# 3ds Max Wavefront OBJ Exporter v0.97b - (c)2007 guruware
# File Created: 04.02.2019 15:16:45

mtllib kinderbreak03.mtl

#
# object GeoSphere034
#

v  0.0775 0.0003 -0.1078
v  0.0345 -0.0682 -0.1078
v  0.0955 -0.0580 -0.0703
v  -0.0003 0.0003 -0.1331
v  -0.0368 -0.0580 -0.1133
v  -0.0780 0.0003 -0.1078
v  -0.0913 -0.0682 -0.0669
v  -0.1261 0.0003 -0.0416
v  -0.1186 -0.0580 -0.0007
v  0.1256 0.0003 -0.0416
v  -0.1261 0.0003 0.0401
v  -0.0003 -0.1300 -0.0007
v  0.0560 -0.1106 -0.0416
v  -0.0218 -0.1106 -0.0669
v  -0.0698 -0.1106 -0.0007
v  0.0790 -0.0000 -0.1177
v  0.0974 -0.0603 -0.0795
v  0.0352 -0.0709 -0.1177
v  -0.0003 -0.0000 -0.1434
v  -0.0375 -0.0603 -0.1233
v  -0.0795 -0.0000 -0.1177
v  -0.0931 -0.0709 -0.0760
v  -0.1286 -0.0000 -0.0502
v  -0.1209 -0.0603 -0.0085
v  0.1280 -0.0000 -0.0502
v  -0.1286 -0.0000 0.0331
v  -0.0003 -0.1349 -0.0085
v  -0.0222 -0.1147 -0.0760
v  0.0571 -0.1147 -0.0502
v  -0.0712 -0.1147 -0.0085
# 30 vertices

vn -0.5346 0.3304 0.7779
vn -0.0247 0.3304 0.9435
vn 0.5746 0.3304 0.7488
vn 0.7947 0.1876 0.5774
vn 0.8897 0.3304 0.3151
vn -0.8026 0.1256 0.5831
vn 0.3066 0.1256 0.9435
vn 0.9921 0.1256 -0.0000
vn -0.1024 0.9435 0.3151
vn 0.0385 0.6617 0.7488
vn -0.1876 0.7947 0.5774
vn -0.4713 0.6617 0.5831
vn 0.7240 0.6617 0.1947
vn 0.4911 0.7947 0.3568
vn 0.4089 0.6617 0.6284
vn 0.5355 -0.3259 -0.7792
vn 0.0248 -0.3259 -0.9451
vn -0.5756 -0.3259 -0.7500
vn -0.7951 -0.1848 -0.5777
vn -0.8912 -0.3259 -0.3156
vn 0.8028 -0.1237 -0.5833
vn -0.3066 -0.1237 -0.9437
vn -0.9923 -0.1237 -0.0000
vn 0.1038 -0.9419 -0.3194
vn -0.0388 -0.6560 -0.7538
vn 0.1894 -0.7901 -0.5830
vn 0.4745 -0.6560 -0.5870
vn -0.7289 -0.6560 -0.1960
vn -0.4959 -0.7901 -0.3603
vn -0.4117 -0.6560 -0.6326
vn -0.1126 0.9936 -0.0000
vn -0.0933 0.9956 -0.0056
vn -0.0408 0.9990 -0.0206
vn -0.0232 0.9994 -0.0244
vn -0.0158 0.9995 -0.0256
vn -0.0087 0.9996 -0.0267
vn 0.8990 0.4378 -0.0147
vn 0.9011 0.4298 -0.0571
vn 0.9010 0.4305 -0.0537
vn 0.8987 0.4383 -0.0117
vn -0.8377 0.5104 -0.1941
vn -0.8419 0.5203 -0.1431
vn -0.8416 0.5195 -0.1475
vn -0.8374 0.5096 -0.1978
vn 0.0318 0.9992 -0.0231
vn 0.8113 -0.5274 0.2522
vn 0.7840 -0.5438 0.2993
vn 0.7873 -0.5420 0.2940
vn 0.8137 -0.5258 0.2478
vn 0.8399 -0.4579 0.2914
vn 0.6890 -0.6110 0.3898
vn 0.7412 -0.5609 0.3687
vn 0.8402 -0.4590 0.2888
vn 0.5652 -0.6971 0.4411
vn 0.5650 -0.6981 0.4399
vn -0.9246 -0.3225 0.2028
vn -0.9207 -0.3356 0.1989
vn -0.9213 -0.3339 0.1994
vn -0.9250 -0.3211 0.2032
vn 0.4842 -0.8011 0.3518
vn -0.6679 -0.6017 0.4381
vn -0.6803 -0.6217 0.3881
vn -0.6794 -0.6202 0.3922
vn -0.6670 -0.6002 0.4415
vn -0.8642 -0.3523 0.3591
vn -0.8859 -0.3343 0.3215
vn -0.8851 -0.3351 0.3231
vn -0.8633 -0.3530 0.3606
# 68 vertex normals

vt 0.6500 0.5000 0.1349
vt 0.7000 0.3238 0.1349
vt 0.6000 0.3524 0.1349
vt 0.7500 0.5000 0.1349
vt 0.8000 0.3524 0.1349
vt 0.8500 0.5000 0.1349
vt 0.9000 0.3238 0.1349
vt 0.9500 0.5000 0.1349
vt -0.0500 0.5000 0.1349
vt 0.0000 0.3524 0.1349
vt -0.1000 0.3238 0.1349
vt 0.5500 0.5000 0.1349
vt 0.0500 0.5000 0.1349
vt 0.7000 0.0000 0.1349
vt 0.6000 0.1762 0.1349
vt 0.8000 0.1762 0.1349
vt 0.0000 0.1762 0.1349
vt -0.2000 0.1762 0.1349
# 18 texture coords

g GeoSphere034
usemtl wire_113135006
s off
f 1/1/1 2/2/1 3/3/1 
f 4/4/2 5/5/2 2/2/2 
f 6/6/3 7/7/3 5/5/3 
f 6/6/4 8/8/4 7/7/4 
f 8/9/5 9/10/5 7/11/5 
f 3/3/6 10/12/6 1/1/6 
f 5/5/7 4/4/7 6/6/7 
f 9/10/8 8/9/8 11/13/8 
f 12/14/9 13/15/9 14/16/9 
f 14/16/10 2/2/10 5/5/10 
f 14/16/11 13/15/11 2/2/11 
f 13/15/12 3/3/12 2/2/12 
f 15/17/13 7/11/13 9/10/13 
f 15/17/14 14/18/14 7/11/14 
f 14/16/15 5/5/15 7/7/15 
f 16/1/16 17/3/16 18/2/16 
f 19/4/17 18/2/17 20/5/17 
f 21/6/18 20/5/18 22/7/18 
f 21/6/19 22/7/19 23/8/19 
f 23/9/20 22/11/20 24/10/20 
f 17/3/21 16/1/21 25/12/21 
f 20/5/22 21/6/22 19/4/22 
f 24/10/23 26/13/23 23/9/23 
f 27/14/24 28/16/24 29/15/24 
f 28/16/25 20/5/25 18/2/25 
f 28/16/26 18/2/26 29/15/26 
f 29/15/27 18/2/27 17/3/27 
f 30/17/28 24/10/28 22/11/28 
f 30/17/29 22/11/29 28/18/29 
f 28/16/30 22/7/30 20/5/30 
s 1
f 11/13/31 8/9/32 23/9/33 26/13/31 
f 8/8/32 6/6/34 21/6/35 23/8/33 
f 6/6/34 4/4/36 19/4/36 21/6/35 
s 2
f 4/4/37 2/2/38 18/2/39 19/4/40 
s 1
f 2/2/41 1/1/42 16/1/43 18/2/44 
s 2
f 1/1/45 10/12/45 25/12/45 16/1/45 
s 1
f 10/12/46 3/3/47 17/3/48 25/12/49 
s 2
f 3/3/50 13/15/51 29/15/52 17/3/53 
f 13/15/51 12/14/54 27/14/55 29/15/52 
s 1
f 12/14/56 14/16/57 28/16/58 27/14/59 
s 2
f 14/18/60 15/17/60 30/17/60 28/18/60 
s 1
f 15/17/61 9/10/62 24/10/63 30/17/64 
s 2
f 9/10/65 11/13/66 26/13/67 24/10/68 
# 13 polygons - 30 triangles

