# 3ds Max Wavefront OBJ Exporter v0.97b - (c)2007 guruware
# File Created: 04.02.2019 15:16:03

mtllib kinderbreak02.mtl

#
# object GeoSphere032
#

v  0.1062 0.0004 0.0324
v  0.0951 -0.0538 -0.0017
v  0.0811 -0.0457 0.0563
v  0.1062 -0.0009 -0.0359
v  0.0811 -0.0460 -0.0598
v  0.0661 -0.0009 -0.0911
v  0.0302 -0.0538 -0.0911
v  0.0011 0.0004 -0.1122
v  -0.0294 -0.0457 -0.0957
v  -0.0638 0.0004 -0.0911
v  -0.0749 -0.0538 -0.0570
v  -0.1039 0.0004 -0.0359
v  -0.0977 -0.0457 -0.0017
v  -0.1039 0.0004 0.0324
v  -0.0749 -0.0538 0.0535
v  -0.0638 0.0004 0.0876
v  -0.0294 -0.0457 0.0922
v  0.0661 0.0004 0.0876
v  0.0302 -0.0538 0.0876
v  0.0011 -0.1027 -0.0017
v  0.0481 -0.0873 -0.0359
v  -0.0168 -0.0873 -0.0570
v  -0.0570 -0.0873 -0.0017
v  -0.0168 -0.0873 0.0535
v  0.0481 -0.0873 0.0324
v  0.1123 0.0000 0.0348
v  0.0857 -0.0523 0.0602
v  0.1006 -0.0615 -0.0013
v  0.1123 0.0000 -0.0375
v  0.0857 -0.0523 -0.0628
v  0.0698 0.0000 -0.0959
v  0.0318 -0.0615 -0.0959
v  0.0011 0.0000 -0.1183
v  -0.0312 -0.0523 -0.1008
v  -0.0677 0.0000 -0.0959
v  -0.0794 -0.0615 -0.0598
v  -0.1101 0.0000 -0.0375
v  -0.1035 -0.0523 -0.0013
v  -0.1101 0.0000 0.0348
v  -0.0794 -0.0615 0.0572
v  -0.0677 0.0000 0.0933
v  -0.0312 -0.0523 0.0982
v  0.0698 0.0000 0.0933
v  0.0318 -0.0615 0.0933
v  0.0011 -0.1170 -0.0013
v  -0.0179 -0.0995 -0.0598
v  0.0508 -0.0995 -0.0375
v  -0.0604 -0.0995 -0.0013
v  -0.0179 -0.0995 0.0572
v  0.0508 -0.0995 0.0348
# 50 vertices

vn -0.8978 0.3511 -0.2659
vn -0.8951 0.3586 0.2649
vn -0.5285 0.3586 0.7695
vn -0.0245 0.3511 0.9360
vn 0.5700 0.3511 0.7428
vn 0.7926 0.2004 0.5759
vn 0.8826 0.3511 0.3126
vn 0.8826 0.3511 -0.3126
vn 0.7926 0.2004 -0.5759
vn 0.5700 0.3511 -0.7428
vn -0.5303 0.3511 -0.7717
vn -0.8013 0.1376 0.5822
vn 0.3062 0.1344 0.9424
vn -0.8017 0.1344 -0.5825
vn -0.0963 0.9502 0.2963
vn 0.0373 0.6870 0.7257
vn -0.1794 0.8142 0.5522
vn -0.4540 0.6887 0.5653
vn 0.2520 0.9502 0.1831
vn 0.7018 0.6870 0.1887
vn 0.4697 0.8142 0.3413
vn 0.3964 0.6870 0.6091
vn 0.2520 0.9502 -0.1831
vn 0.3964 0.6870 -0.6091
vn 0.7018 0.6870 -0.1887
vn -0.0963 0.9502 -0.2963
vn -0.4568 0.6870 -0.5652
vn -0.1794 0.8142 -0.5522
vn 0.0373 0.6870 -0.7257
vn -0.3115 0.9502 -0.0000
vn -0.6779 0.6887 0.2571
vn -0.5806 0.8142 -0.0000
vn -0.6787 0.6870 -0.2598
vn 0.9050 -0.3304 0.2680
vn 0.9050 -0.3304 -0.2680
vn 0.5346 -0.3304 -0.7779
vn 0.0247 -0.3304 -0.9435
vn -0.5746 -0.3304 -0.7488
vn -0.7947 -0.1876 -0.5774
vn -0.8897 -0.3304 -0.3151
vn -0.8897 -0.3304 0.3151
vn -0.7947 -0.1876 0.5774
vn -0.5746 -0.3304 0.7488
vn 0.5346 -0.3304 0.7779
vn 0.8026 -0.1256 -0.5831
vn -0.3066 -0.1256 -0.9435
vn 0.8026 -0.1256 0.5831
vn 0.1024 -0.9435 -0.3151
vn -0.0385 -0.6617 -0.7488
vn 0.1876 -0.7947 -0.5774
vn 0.4713 -0.6617 -0.5831
vn -0.2680 -0.9435 -0.1947
vn -0.7240 -0.6617 -0.1947
vn -0.4911 -0.7947 -0.3568
vn -0.4089 -0.6617 -0.6284
vn -0.2680 -0.9435 0.1947
vn -0.4089 -0.6617 0.6284
vn -0.7240 -0.6617 0.1947
vn 0.1024 -0.9435 0.3151
vn 0.4713 -0.6617 0.5831
vn 0.1876 -0.7947 0.5774
vn -0.0385 -0.6617 0.7488
vn 0.3313 -0.9435 0.0000
vn 0.7002 -0.6617 -0.2680
vn 0.6071 -0.7947 0.0000
vn 0.7002 -0.6617 0.2680
vn -0.0483 0.9982 0.0351
vn -0.3550 0.5020 -0.7887
vn -0.5520 0.4464 -0.7043
vn -0.5322 0.4534 -0.7150
vn -0.3403 0.5050 -0.7932
vn -0.4558 0.4675 0.7574
vn -0.2384 0.5567 0.7958
vn -0.2592 0.5497 0.7941
vn -0.4664 0.4621 0.7543
vn -0.0522 0.9979 -0.0379
vn -0.0360 0.9981 -0.0509
vn -0.0369 0.9981 -0.0501
vn -0.0205 0.9978 -0.0632
vn 0.8997 0.4340 -0.0472
vn 0.8878 0.3678 -0.2766
vn 0.8912 0.3752 -0.2550
vn 0.8987 0.4372 -0.0335
vn -0.5722 0.3553 -0.7391
vn -0.7287 0.4944 -0.4739
vn -0.7166 0.4828 -0.5034
vn -0.5649 0.3491 -0.7477
vn -0.1259 0.9878 0.0915
vn 0.1708 0.4763 0.8625
vn 0.4945 0.3957 0.7739
vn 0.4655 0.4056 0.7866
vn 0.1517 0.4792 0.8645
vn 0.5344 0.3511 -0.7688
vn 0.3526 0.4459 -0.8227
vn 0.3703 0.4379 -0.8193
vn 0.5420 0.3465 -0.7656
vn 0.0488 0.9982 0.0354
vn -0.7214 0.4474 0.5286
vn -0.5920 0.3919 0.7042
vn -0.6070 0.3987 0.6875
vn -0.7285 0.4503 0.5162
vn 0.1485 0.6113 0.7774
vn 0.1453 0.6404 0.7542
vn 0.1457 0.6371 0.7569
vn 0.1488 0.6087 0.7793
vn 0.5740 0.4644 0.6744
vn 0.6722 0.5507 0.4948
vn 0.6639 0.5433 0.5139
vn 0.5676 0.4589 0.6835
vn 0.8690 -0.2361 0.4349
vn 0.8476 -0.2845 0.4480
vn 0.8502 -0.2789 0.4465
vn 0.8705 -0.2324 0.4338
vn -0.1959 -0.3187 -0.9274
vn -0.1568 -0.2717 -0.9495
vn -0.1619 -0.2779 -0.9469
vn -0.2002 -0.3239 -0.9246
vn -0.7849 0.2423 0.5703
# 118 vertex normals

vt 0.4500 0.5000 0.1170
vt 0.5000 0.3238 0.1170
vt 0.4000 0.3524 0.1170
vt 0.5500 0.5000 0.1170
vt 0.6000 0.3524 0.1170
vt 0.6500 0.5000 0.1170
vt 0.7000 0.3238 0.1170
vt 0.7500 0.5000 0.1170
vt 0.8000 0.3524 0.1170
vt 0.8500 0.5000 0.1170
vt 0.9000 0.3238 0.1170
vt 0.9500 0.5000 0.1170
vt -0.0500 0.5000 0.1170
vt 0.0000 0.3524 0.1170
vt -0.1000 0.3238 0.1170
vt 0.0500 0.5000 0.1170
vt 0.1000 0.3238 0.1170
vt 0.1500 0.5000 0.1170
vt 0.2000 0.3524 0.1170
vt 0.3500 0.5000 0.1170
vt 0.3000 0.3238 0.1170
vt 0.7000 0.0000 0.1170
vt 0.6000 0.1762 0.1170
vt 0.8000 0.1762 0.1170
vt -0.1000 0.0000 0.1170
vt -0.2000 0.1762 0.1170
vt 0.0000 0.1762 0.1170
vt 0.1000 0.0000 0.1170
vt 0.2000 0.1762 0.1170
vt 0.3000 0.0000 0.1170
vt 0.4000 0.1762 0.1170
vt 0.5000 0.0000 0.1170
# 32 texture coords

g GeoSphere032
usemtl wire_088088225
s off
f 1/1/1 2/2/1 3/3/1 
f 4/4/2 5/5/2 2/2/2 
f 6/6/3 7/7/3 5/5/3 
f 8/8/4 9/9/4 7/7/4 
f 10/10/5 11/11/5 9/9/5 
f 10/10/6 12/12/6 11/11/6 
f 12/13/7 13/14/7 11/15/7 
f 14/16/8 15/17/8 13/14/8 
f 14/16/9 16/18/9 15/17/9 
f 16/18/10 17/19/10 15/17/10 
f 18/20/11 3/3/11 19/21/11 
f 5/5/12 4/4/12 6/6/12 
f 9/9/13 8/8/13 10/10/13 
f 3/3/14 18/20/14 1/1/14 
f 20/22/15 21/23/15 22/24/15 
f 22/24/16 7/7/16 9/9/16 
f 22/24/17 21/23/17 7/7/17 
f 21/23/18 5/5/18 7/7/18 
f 20/25/19 22/26/19 23/27/19 
f 23/27/20 11/15/20 13/14/20 
f 23/27/21 22/26/21 11/15/21 
f 22/24/22 9/9/22 11/11/22 
f 20/28/23 23/27/23 24/29/23 
f 24/29/24 15/17/24 17/19/24 
f 23/27/25 13/14/25 15/17/25 
f 20/30/26 24/29/26 25/31/26 
f 25/31/27 19/21/27 3/3/27 
f 25/31/28 24/29/28 19/21/28 
f 24/29/29 17/19/29 19/21/29 
f 20/32/30 25/31/30 21/23/30 
f 21/23/31 2/2/31 5/5/31 
f 21/23/32 25/31/32 2/2/32 
f 25/31/33 3/3/33 2/2/33 
f 26/1/34 27/3/34 28/2/34 
f 29/4/35 28/2/35 30/5/35 
f 31/6/36 30/5/36 32/7/36 
f 33/8/37 32/7/37 34/9/37 
f 35/10/38 34/9/38 36/11/38 
f 35/10/39 36/11/39 37/12/39 
f 37/13/40 36/15/40 38/14/40 
f 39/16/41 38/14/41 40/17/41 
f 39/16/42 40/17/42 41/18/42 
f 41/18/43 40/17/43 42/19/43 
f 43/20/44 44/21/44 27/3/44 
f 30/5/45 31/6/45 29/4/45 
f 34/9/46 35/10/46 33/8/46 
f 27/3/47 26/1/47 43/20/47 
f 45/22/48 46/24/48 47/23/48 
f 46/24/49 34/9/49 32/7/49 
f 46/24/50 32/7/50 47/23/50 
f 47/23/51 32/7/51 30/5/51 
f 45/25/52 48/27/52 46/26/52 
f 48/27/53 38/14/53 36/15/53 
f 48/27/54 36/15/54 46/26/54 
f 46/24/55 36/11/55 34/9/55 
f 45/28/56 49/29/56 48/27/56 
f 49/29/57 42/19/57 40/17/57 
f 48/27/58 40/17/58 38/14/58 
f 45/30/59 50/31/59 49/29/59 
f 50/31/60 27/3/60 44/21/60 
f 50/31/61 44/21/61 49/29/61 
f 49/29/62 44/21/62 42/19/62 
f 45/32/63 47/23/63 50/31/63 
f 47/23/64 30/5/64 28/2/64 
f 47/23/65 28/2/65 50/31/65 
f 50/31/66 28/2/66 27/3/66 
s 1
f 16/18/67 14/16/67 39/16/67 41/18/67 
s 2
f 14/16/68 13/14/69 38/14/70 39/16/71 
s 1
f 13/14/72 12/13/73 37/13/74 38/14/75 
s 2
f 12/12/76 10/10/77 35/10/78 37/12/76 
f 10/10/77 8/8/79 33/8/79 35/10/78 
s 1
f 8/8/80 7/7/81 32/7/82 33/8/83 
s 2
f 7/7/84 6/6/85 31/6/86 32/7/87 
s 1
f 6/6/88 4/4/88 29/4/88 31/6/88 
s 2
f 4/4/89 2/2/90 28/2/91 29/4/92 
s 1
f 2/2/93 1/1/94 26/1/95 28/2/96 
s 2
f 1/1/97 18/20/97 43/20/97 26/1/97 
s 1
f 18/20/98 19/21/99 44/21/100 43/20/101 
s 2
f 19/21/102 17/19/103 42/19/104 44/21/105 
s 4
f 17/19/106 16/18/107 41/18/108 42/19/109 
s 1
f 23/27/110 15/17/111 40/17/112 48/27/113 
s 2
f 15/17/114 24/29/115 49/29/116 40/17/117 
s 4
f 24/29/118 23/27/118 48/27/118 49/29/118 
# 17 polygons - 66 triangles

