# 3ds Max Wavefront OBJ Exporter v0.97b - (c)2007 guruware
# File Created: 04.02.2019 15:17:17

mtllib kinderbreak04.mtl

#
# object Object156
#

v  -0.0171 -0.1327 0.0332
v  0.0333 -0.1320 -0.0209
v  -0.0384 -0.1331 -0.0359
v  -0.0177 -0.1394 0.0335
v  -0.0393 -0.1395 -0.0370
v  0.0338 -0.1383 -0.0215
# 6 vertices

vn -0.0171 0.9999 0.0025
vn 0.0180 -0.9998 -0.0070
vn 0.7304 -0.0041 0.6830
vn 0.7317 -0.0272 0.6810
vn 0.7317 -0.0257 0.6812
vn 0.7303 -0.0028 0.6831
vn -0.9513 0.0990 0.2920
vn -0.9515 0.0955 0.2924
vn -0.9515 0.0957 0.2923
vn -0.9513 0.0992 0.2919
vn 0.2026 0.1181 -0.9721
# 11 vertex normals

vt 0.7000 0.0000 0.1349
vt 0.6000 0.1762 0.1349
vt 0.8000 0.1762 0.1349
# 3 texture coords

g Object156
usemtl wire_113135006
s off
f 1/1/1 2/2/1 3/3/1 
f 4/1/2 5/3/2 6/2/2 
s 2
f 2/2/3 1/1/4 4/1/5 6/2/6 
s 1
f 1/1/7 3/3/8 5/3/9 4/1/10 
s off
f 2/2/11 6/2/11 5/3/11 3/3/11 
# 3 polygons - 2 triangles

