# 3ds Max Wavefront OBJ Exporter v0.97b - (c)2007 guruware
# File Created: 05.12.2018 16:12:59

mtllib dome arma.mtl

#
# object armature_balcon
#

v  3.7175 9.8415 -6.6336
v  3.7175 12.0000 -6.6336
v  2.2735 12.0000 -5.2525
v  2.2735 9.8415 -5.2525
v  0.9381 12.0000 -3.1748
v  0.9381 9.8415 -3.1748
v  0.3635 12.0000 -0.1411
v  0.3635 9.8415 -0.1411
v  0.5398 12.0000 3.0355
v  0.5398 9.8415 3.0355
v  1.5836 12.0000 5.5039
v  1.5836 9.8415 5.5039
v  2.8228 12.0000 7.3144
v  2.8228 9.8415 7.3144
v  1.5687 9.8415 -7.7080
v  0.4173 9.8415 -6.1086
v  0.4173 12.0000 -6.1086
v  1.5703 12.0000 -7.7048
v  -0.6516 9.8415 -3.7358
v  -0.6516 12.0000 -3.7358
v  -1.1310 9.8415 -0.3195
v  -1.1310 12.0000 -0.3195
v  -1.0981 9.8415 3.2251
v  -1.0981 12.0000 3.2251
v  -0.3560 9.8415 5.9481
v  -0.3560 12.0000 5.9481
v  0.5675 9.8415 7.9292
v  0.5675 12.0000 7.9292
v  3.9262 12.0000 -6.6475
v  2.4550 12.0000 -4.9968
v  1.4378 12.0000 -8.0113
v  0.2132 12.0000 -6.3443
v  -0.8645 12.0000 -3.8912
v  -1.3520 12.0000 -0.3459
v  -1.3279 12.0000 3.3328
v  -0.5880 12.0000 6.1466
v  0.3963 12.0000 8.2262
v  3.0264 12.0000 7.3805
v  1.7957 12.0000 5.2812
v  0.7626 12.0000 2.9049
v  0.5845 12.0000 -0.1148
v  1.1413 12.0000 -2.9985
v  2.8228 12.3748 7.3144
v  1.5836 12.3748 5.5039
v  -0.3560 12.3748 5.9481
v  0.5675 12.3748 7.9292
v  0.5398 12.3748 3.0355
v  -1.0981 12.3748 3.2251
v  0.3635 12.3748 -0.1411
v  -1.1310 12.3748 -0.3195
v  -0.6516 12.3748 -3.7358
v  0.9381 12.3748 -3.1748
v  2.2735 12.3748 -5.2525
v  0.4173 12.3748 -6.1086
v  3.7175 12.3748 -6.6336
v  1.5703 12.3748 -7.7048
v  3.9262 12.2700 -6.6475
v  2.4550 12.2700 -4.9968
v  1.4378 12.2700 -8.0113
v  0.2132 12.2700 -6.3443
v  -0.8645 12.2700 -3.8912
v  -1.3520 12.2700 -0.3459
v  -1.3279 12.2700 3.3328
v  -0.5880 12.2700 6.1466
v  0.3963 12.2700 8.2262
v  3.0264 12.2700 7.3805
v  1.7957 12.2700 5.2812
v  0.7626 12.2700 2.9049
v  0.5845 12.2700 -0.1148
v  1.1413 12.2700 -2.9985
# 70 vertices

vn 0.6912 0.0000 0.7227
vn 0.8412 0.0000 0.5407
vn 0.9825 0.0000 0.1861
vn 0.9985 0.0000 -0.0554
vn 0.9210 -0.0000 -0.3895
vn 0.8252 -0.0000 -0.5648
vn -0.8111 0.0007 -0.5849
vn -0.9117 0.0000 -0.4108
vn -0.9903 0.0000 -0.1390
vn -1.0000 0.0000 0.0093
vn -0.9648 0.0000 0.2629
vn -0.9064 -0.0000 0.4225
vn 0.4468 0.0005 -0.8946
vn 0.2630 0.0000 0.9648
vn -0.0000 -1.0000 -0.0000
vn 0.0000 -1.0000 -0.0000
vn -0.0000 -1.0000 0.0000
vn 0.0000 -1.0000 0.0000
vn 0.0000 1.0000 -0.0000
vn -0.0000 1.0000 -0.0000
vn -0.0000 1.0000 0.0000
vn 0.7465 -0.0000 0.6654
vn 0.4806 0.0000 -0.8769
vn -0.8059 0.0000 -0.5920
vn -0.9155 -0.0000 -0.4022
vn -0.9907 -0.0000 -0.1362
vn -1.0000 -0.0000 0.0066
vn -0.9671 -0.0000 0.2543
vn -0.9039 0.0000 0.4278
vn 0.3061 0.0000 0.9520
vn 0.8627 0.0000 -0.5058
vn 0.9171 0.0000 -0.3987
vn 0.9983 0.0000 -0.0589
vn 0.9819 -0.0000 0.1896
vn 0.8356 -0.0000 0.5493
vn 0.3050 0.9061 0.2933
vn 0.2949 0.9361 0.1917
vn 0.4113 0.9081 0.0786
vn 0.4223 0.9061 -0.0242
vn 0.3331 0.9320 -0.1428
vn 0.3669 0.9009 -0.2318
vn 0.1450 0.8624 0.4850
vn -0.3097 0.9396 0.1455
vn -0.3581 0.9288 0.0958
vn -0.4212 0.9070 0.0033
vn -0.4146 0.9082 -0.0576
vn -0.3307 0.9322 -0.1471
vn -0.2700 0.9425 -0.1967
vn 0.2553 0.8358 -0.4861
# 49 vertex normals

vt 0.0000 0.0000 1.0000
vt 0.0000 1.0000 1.0000
vt 0.0833 1.0000 1.0000
vt 0.0833 0.0000 1.0000
vt 0.1667 1.0000 1.0000
vt 0.1667 0.0000 1.0000
vt 0.2500 1.0000 1.0000
vt 0.2500 0.0000 1.0000
vt 0.3333 1.0000 1.0000
vt 0.3333 0.0000 1.0000
vt 0.4167 1.0000 1.0000
vt 0.4167 0.0000 1.0000
vt 0.5000 1.0000 1.0000
vt 0.5000 0.0000 1.0000
vt 1.0000 1.0000 1.0000
# 15 texture coords

g armature_balcon
usemtl wire_229154215
s off
f 1/1/1 2/2/1 3/3/1 4/4/1 
f 4/4/2 3/3/2 5/5/2 6/6/2 
f 6/6/3 5/5/3 7/7/3 8/8/3 
f 8/8/4 7/7/4 9/9/4 10/10/4 
f 10/10/5 9/9/5 11/11/5 12/12/5 
f 12/12/6 11/11/6 13/13/6 14/14/6 
f 15/1/7 16/4/7 17/3/7 18/2/7 
f 16/4/8 19/6/8 20/5/8 17/3/8 
f 19/6/9 21/8/9 22/7/9 20/5/9 
f 21/8/10 23/10/10 24/9/10 22/7/10 
f 23/10/11 25/12/11 26/11/11 24/9/11 
f 25/12/12 27/14/12 28/13/12 26/11/12 
f 1/1/13 15/15/13 18/2/13 2/2/13 
f 27/14/14 14/14/14 13/13/14 28/13/14 
f 3/3/15 2/2/15 29/2/15 30/3/15 
f 2/2/16 18/2/16 31/2/16 29/2/16 
f 18/2/15 17/3/15 32/3/15 31/2/15 
f 17/3/17 20/5/17 33/5/17 32/3/17 
f 20/5/16 22/7/16 34/7/16 33/5/16 
f 22/7/17 24/9/17 35/9/17 34/7/17 
f 24/9/17 26/11/17 36/11/17 35/9/17 
f 26/11/16 28/13/16 37/13/16 36/11/16 
f 28/13/15 13/13/15 38/13/15 37/13/15 
f 13/13/17 11/11/17 39/11/17 38/13/17 
f 11/11/16 9/9/16 40/9/16 39/11/16 
f 9/9/18 7/7/18 41/7/18 40/9/18 
f 7/7/16 5/5/16 42/5/16 41/7/16 
f 5/5/15 3/3/15 30/3/15 42/5/15 
f 43/13/19 44/11/19 45/11/19 46/13/19 
f 44/11/20 47/9/20 48/9/20 45/11/20 
f 48/9/21 47/9/21 49/7/21 50/7/21 
f 51/5/19 52/5/19 53/3/19 54/3/19 
f 53/3/19 55/2/19 56/2/19 54/3/19 
f 49/7/21 52/5/21 51/5/21 50/7/21 
f 30/3/22 29/2/22 57/2/22 58/3/22 
f 29/2/23 31/2/23 59/2/23 57/2/23 
f 31/2/24 32/3/24 60/3/24 59/2/24 
f 32/3/25 33/5/25 61/5/25 60/3/25 
f 33/5/26 34/7/26 62/7/26 61/5/26 
f 34/7/27 35/9/27 63/9/27 62/7/27 
f 35/9/28 36/11/28 64/11/28 63/9/28 
f 36/11/29 37/13/29 65/13/29 64/11/29 
f 37/13/30 38/13/30 66/13/30 65/13/30 
f 38/13/31 39/11/31 67/11/31 66/13/31 
f 39/11/32 40/9/32 68/9/32 67/11/32 
f 40/9/33 41/7/33 69/7/33 68/9/33 
f 41/7/34 42/5/34 70/5/34 69/7/34 
f 42/5/35 30/3/35 58/3/35 70/5/35 
f 55/2/36 53/3/36 58/3/36 57/2/36 
f 53/3/37 52/5/37 70/5/37 58/3/37 
f 52/5/38 49/7/38 69/7/38 70/5/38 
f 49/7/39 47/9/39 68/9/39 69/7/39 
f 47/9/40 44/11/40 67/11/40 68/9/40 
f 44/11/41 43/13/41 66/13/41 67/11/41 
f 43/13/42 46/13/42 65/13/42 66/13/42 
f 46/13/43 45/11/43 64/11/43 65/13/43 
f 45/11/44 48/9/44 63/9/44 64/11/44 
f 48/9/45 50/7/45 62/7/45 63/9/45 
f 50/7/46 51/5/46 61/5/46 62/7/46 
f 51/5/47 54/3/47 60/3/47 61/5/47 
f 54/3/48 56/2/48 59/2/48 60/3/48 
f 56/2/49 55/2/49 57/2/49 59/2/49 
# 62 polygons

#
# object armature_pilliers
#

v  1.7852 0.1796 -11.6138
v  1.1318 3.9276 -12.1314
v  2.6672 3.6416 -9.5419
v  3.1968 0.1005 -9.1362
v  1.1421 3.6416 -6.9004
v  1.7583 0.1005 -6.6446
v  -1.8682 3.9276 -6.9353
v  -1.0932 0.1796 -6.6282
v  -3.2508 4.2289 -9.5196
v  -2.4905 0.2445 -9.1087
v  -1.7976 4.2289 -12.0367
v  -1.0616 0.2445 -11.5837
v  0.9184 4.6447 -11.3463
v  0.9311 7.5440 -11.2339
v  1.9519 7.1693 -9.4192
v  1.9958 4.2845 -9.4464
v  0.8908 7.1693 -7.5812
v  0.8892 4.2845 -7.5296
v  -1.1912 7.5440 -7.5579
v  -1.2949 4.6447 -7.5127
v  -2.2121 7.9187 -9.3726
v  -2.3723 5.0049 -9.4126
v  -1.1509 7.9187 -11.2106
v  -1.2657 5.0049 -11.3294
v  1.6066 10.2947 -10.6688
v  2.5332 9.8959 -8.9960
v  1.5478 9.8959 -7.2894
v  -0.3641 10.2947 -7.2554
v  -1.2906 10.6935 -8.9282
v  -0.3053 10.6935 -10.6348
v  2.9450 12.8967 -9.6509
v  3.7395 12.4642 -8.1770
v  2.8604 12.4642 -6.6542
v  1.1866 12.8967 -6.6053
v  0.3921 13.3292 -8.0792
v  1.2713 13.3292 -9.6020
v  4.9462 15.3500 -8.1802
v  5.5711 14.8741 -6.9619
v  4.8284 14.8741 -5.6756
v  3.4609 15.3500 -5.6075
v  2.8361 15.8258 -6.8258
v  3.5787 15.8258 -8.1122
v  8.4788 18.0605 -5.1438
v  8.7043 17.7749 -4.6545
v  8.3932 17.7749 -4.1158
v  7.8568 18.0605 -4.0664
v  7.6313 18.3462 -4.5557
v  7.9424 18.3462 -5.0944
v  0.5953 0.1796 11.2742
v  2.0068 0.1005 8.7966
v  1.4772 3.6416 9.2023
v  -0.0582 3.9276 11.7918
v  0.5683 0.1005 6.3050
v  -0.0478 3.6416 6.5608
v  -2.2832 0.1796 6.2886
v  -3.0581 3.9276 6.5957
v  -3.6805 0.2445 8.7691
v  -4.4408 4.2289 9.1800
v  -2.2515 0.2445 11.2441
v  -2.9875 4.2289 11.6971
v  -0.2715 4.6447 11.0067
v  0.8059 4.2845 9.1068
v  0.7620 7.1693 9.0796
v  -0.2589 7.5440 10.8943
v  -0.3008 4.2845 7.1899
v  -0.2992 7.1693 7.2416
v  -2.4849 4.6447 7.1731
v  -2.3812 7.5440 7.2183
v  -3.5623 5.0049 9.0730
v  -3.4020 7.9187 9.0330
v  -2.4556 5.0049 10.9898
v  -2.3409 7.9187 10.8710
v  1.3432 9.8959 8.6564
v  0.4167 10.2947 10.3291
v  0.3579 9.8959 6.9498
v  -1.5540 10.2947 6.9158
v  -2.4806 10.6935 8.5885
v  -1.4952 10.6935 10.2952
v  2.5496 12.4642 7.8373
v  1.7550 12.8967 9.3113
v  1.6704 12.4642 6.3146
v  -0.0033 12.8967 6.2657
v  -0.7978 13.3292 7.7396
v  0.0813 13.3292 9.2624
v  4.3811 14.8741 6.6223
v  3.7563 15.3500 7.8406
v  3.6384 14.8741 5.3359
v  2.2709 15.3500 5.2679
v  1.6461 15.8258 6.4862
v  2.3888 15.8258 7.7726
v  7.5143 17.7749 4.3149
v  7.2889 18.0605 4.8042
v  7.2033 17.7749 3.7762
v  6.6668 18.0605 3.7268
v  6.4414 18.3462 4.2161
v  6.7524 18.3462 4.7548
# 96 vertices

vn 0.8643 0.0773 -0.4971
vn 0.8513 0.1836 0.4915
vn 0.0016 0.0773 0.9970
vn -0.8731 -0.1297 0.4699
vn -0.8464 -0.2119 -0.4886
vn -0.0296 -0.1297 -0.9911
vn 0.8720 0.0165 -0.4893
vn 0.8660 0.0085 0.5000
vn 0.0123 0.0165 0.9998
vn -0.8666 0.0398 0.4974
vn -0.8647 0.0544 -0.4993
vn -0.0026 0.0398 -0.9992
vn 0.8580 -0.1062 -0.5026
vn 0.8377 -0.2536 0.4836
vn -0.0063 -0.1062 0.9943
vn -0.8371 0.1959 0.5109
vn -0.8128 0.3451 -0.4693
vn 0.0239 0.1959 -0.9803
vn 0.8284 -0.2256 -0.5127
vn 0.7536 -0.4927 0.4351
vn -0.0298 -0.2256 0.9738
vn -0.7858 0.3367 0.5188
vn -0.7048 0.5811 -0.4069
vn 0.0563 0.3367 -0.9399
vn 0.7851 -0.3289 -0.5249
vn 0.6404 -0.6731 0.3698
vn -0.0620 -0.3289 0.9423
vn -0.7209 0.4459 0.5305
vn -0.5829 0.7396 -0.3365
vn 0.0990 0.4459 -0.8896
vn 0.7514 -0.3764 -0.5420
vn 0.5197 -0.8000 0.3000
vn -0.0937 -0.3764 0.9217
vn -0.5733 0.6033 0.5545
vn -0.3726 0.9027 -0.2151
vn 0.1936 0.6033 -0.7737
vn -0.0254 -0.9996 -0.0146
vn 0.4717 0.8387 0.2723
vn 0.6929 0.6512 -0.3095
vn 0.0746 0.6970 -0.7132
vn -0.5975 0.7239 -0.3450
vn -0.5804 0.6970 0.4212
vn 0.0784 0.6512 0.7549
vn 0.6664 0.6387 0.3847
vn 0.8643 0.0773 0.4971
vn 0.8513 0.1836 -0.4915
vn 0.0016 0.0773 -0.9970
vn -0.8731 -0.1297 -0.4699
vn -0.8464 -0.2119 0.4886
vn -0.0296 -0.1297 0.9911
vn 0.8720 0.0165 0.4893
vn 0.8660 0.0085 -0.5000
vn 0.0123 0.0165 -0.9998
vn -0.8666 0.0398 -0.4974
vn -0.8647 0.0544 0.4993
vn -0.0026 0.0398 0.9992
vn 0.8580 -0.1062 0.5026
vn 0.8377 -0.2536 -0.4837
vn -0.0063 -0.1062 -0.9943
vn -0.8371 0.1959 -0.5109
vn -0.8128 0.3451 0.4693
vn 0.0239 0.1959 0.9803
vn 0.8284 -0.2256 0.5127
vn 0.7536 -0.4927 -0.4351
vn -0.0298 -0.2256 -0.9738
vn -0.7858 0.3367 -0.5188
vn -0.7048 0.5811 0.4069
vn 0.0563 0.3367 0.9399
vn 0.7851 -0.3289 0.5249
vn 0.6404 -0.6731 -0.3698
vn -0.0620 -0.3289 -0.9423
vn -0.7209 0.4459 -0.5305
vn -0.5829 0.7396 0.3365
vn 0.0990 0.4459 0.8896
vn 0.7514 -0.3764 0.5420
vn 0.5197 -0.8000 -0.3000
vn -0.0937 -0.3764 -0.9217
vn -0.5733 0.6033 -0.5545
vn -0.3726 0.9027 0.2151
vn 0.1936 0.6033 0.7737
vn -0.0254 -0.9996 0.0146
vn 0.4717 0.8387 -0.2723
vn 0.6929 0.6512 0.3095
vn 0.0746 0.6970 0.7132
vn -0.5975 0.7239 0.3450
vn -0.5804 0.6970 -0.4212
vn 0.0784 0.6512 -0.7549
vn 0.6664 0.6387 -0.3847
# 88 vertex normals

vt 0.7500 0.0000 1.0000
vt 0.7500 0.1667 1.0000
vt 0.9167 0.1667 1.0000
vt 0.9167 0.0000 1.0000
vt 1.0833 0.1667 1.0000
vt 1.0833 0.0000 1.0000
vt 0.0833 0.0000 1.0000
vt 0.0833 0.1667 1.0000
vt 0.2500 0.1667 1.0000
vt 0.2500 0.0000 1.0000
vt 0.4167 0.1667 1.0000
vt 0.4167 0.0000 1.0000
vt 0.5833 0.1667 1.0000
vt 0.5833 0.0000 1.0000
vt 0.7500 0.3333 1.0000
vt 0.9167 0.3333 1.0000
vt 1.0833 0.3333 1.0000
vt 0.0833 0.3333 1.0000
vt 0.2500 0.3333 1.0000
vt 0.4167 0.3333 1.0000
vt 0.5833 0.3333 1.0000
vt 0.7500 0.5000 1.0000
vt 0.9167 0.5000 1.0000
vt 1.0833 0.5000 1.0000
vt 0.0833 0.5000 1.0000
vt 0.2500 0.5000 1.0000
vt 0.4167 0.5000 1.0000
vt 0.5833 0.5000 1.0000
vt 0.7500 0.6667 1.0000
vt 0.9167 0.6667 1.0000
vt 1.0833 0.6667 1.0000
vt 0.0833 0.6667 1.0000
vt 0.2500 0.6667 1.0000
vt 0.4167 0.6667 1.0000
vt 0.5833 0.6667 1.0000
vt 0.7500 0.8333 1.0000
vt 0.9167 0.8333 1.0000
vt 1.0833 0.8333 1.0000
vt 0.0833 0.8333 1.0000
vt 0.2500 0.8333 1.0000
vt 0.4167 0.8333 1.0000
vt 0.5833 0.8333 1.0000
vt 0.7500 1.0000 1.0000
vt 0.9167 1.0000 1.0000
vt 1.0833 1.0000 1.0000
vt 0.0833 1.0000 1.0000
vt 0.2500 1.0000 1.0000
vt 0.4167 1.0000 1.0000
vt 0.5833 1.0000 1.0000
vt 0.9330 0.7500 -0.2500
vt 0.5000 1.0000 -0.2500
vt 0.0670 0.7500 -0.2500
vt 0.0670 0.2500 -0.2500
vt 0.5000 0.0000 -0.2500
vt 0.9330 0.2500 -0.2500
vt 0.5000 1.0000 0.2500
vt 0.9330 0.7500 0.2500
vt 0.9330 0.2500 0.2500
vt 0.5000 0.0000 0.2500
vt 0.0670 0.2500 0.2500
vt 0.0670 0.7500 0.2500
# 61 texture coords

g armature_pilliers
usemtl wire_184155229
s off
f 71/16/50 72/17/50 73/18/50 74/19/50 
f 74/19/51 73/18/51 75/20/51 76/21/51 
f 76/22/52 75/23/52 77/24/52 78/25/52 
f 78/25/53 77/24/53 79/26/53 80/27/53 
f 80/27/54 79/26/54 81/28/54 82/29/54 
f 82/29/55 81/28/55 72/17/55 71/16/55 
f 83/17/56 84/30/56 85/31/56 86/18/56 
f 86/18/57 85/31/57 87/32/57 88/20/57 
f 88/23/58 87/33/58 89/34/58 90/24/58 
f 90/24/59 89/34/59 91/35/59 92/26/59 
f 92/26/60 91/35/60 93/36/60 94/28/60 
f 94/28/61 93/36/61 84/30/61 83/17/61 
f 84/30/62 95/37/62 96/38/62 85/31/62 
f 85/31/63 96/38/63 97/39/63 87/32/63 
f 87/33/64 97/40/64 98/41/64 89/34/64 
f 89/34/65 98/41/65 99/42/65 91/35/65 
f 91/35/66 99/42/66 100/43/66 93/36/66 
f 93/36/67 100/43/67 95/37/67 84/30/67 
f 95/37/68 101/44/68 102/45/68 96/38/68 
f 96/38/69 102/45/69 103/46/69 97/39/69 
f 97/40/70 103/47/70 104/48/70 98/41/70 
f 98/41/71 104/48/71 105/49/71 99/42/71 
f 99/42/72 105/49/72 106/50/72 100/43/72 
f 100/43/73 106/50/73 101/44/73 95/37/73 
f 101/44/74 107/51/74 108/52/74 102/45/74 
f 102/45/75 108/52/75 109/53/75 103/46/75 
f 103/47/76 109/54/76 110/55/76 104/48/76 
f 104/48/77 110/55/77 111/56/77 105/49/77 
f 105/49/78 111/56/78 112/57/78 106/50/78 
f 106/50/79 112/57/79 107/51/79 101/44/79 
f 107/51/80 113/58/80 114/59/80 108/52/80 
f 108/52/81 114/59/81 115/60/81 109/53/81 
f 109/54/82 115/61/82 116/62/82 110/55/82 
f 110/55/83 116/62/83 117/63/83 111/56/83 
f 111/56/84 117/63/84 118/64/84 112/57/84 
f 112/57/85 118/64/85 113/58/85 107/51/85 
f 82/65/86 71/66/86 74/67/86 76/68/86 78/69/86 80/70/86 
f 113/71/87 118/72/87 117/73/87 116/74/87 115/75/87 114/76/87 
f 86/18/88 73/18/88 72/17/88 83/17/88 
f 83/17/89 72/17/89 81/28/89 94/28/89 
f 94/28/90 81/28/90 79/26/90 92/26/90 
f 92/26/91 79/26/91 77/24/91 90/24/91 
f 90/24/92 77/24/92 75/23/92 88/23/92 
f 88/20/93 75/20/93 73/18/93 86/18/93 
f 119/16/94 120/19/94 121/18/94 122/17/94 
f 120/19/95 123/21/95 124/20/95 121/18/95 
f 123/22/96 125/25/96 126/24/96 124/23/96 
f 125/25/97 127/27/97 128/26/97 126/24/97 
f 127/27/98 129/29/98 130/28/98 128/26/98 
f 129/29/99 119/16/99 122/17/99 130/28/99 
f 131/17/100 132/18/100 133/31/100 134/30/100 
f 132/18/101 135/20/101 136/32/101 133/31/101 
f 135/23/102 137/24/102 138/34/102 136/33/102 
f 137/24/103 139/26/103 140/35/103 138/34/103 
f 139/26/104 141/28/104 142/36/104 140/35/104 
f 141/28/105 131/17/105 134/30/105 142/36/105 
f 134/30/106 133/31/106 143/38/106 144/37/106 
f 133/31/107 136/32/107 145/39/107 143/38/107 
f 136/33/108 138/34/108 146/41/108 145/40/108 
f 138/34/109 140/35/109 147/42/109 146/41/109 
f 140/35/110 142/36/110 148/43/110 147/42/110 
f 142/36/111 134/30/111 144/37/111 148/43/111 
f 144/37/112 143/38/112 149/45/112 150/44/112 
f 143/38/113 145/39/113 151/46/113 149/45/113 
f 145/40/114 146/41/114 152/48/114 151/47/114 
f 146/41/115 147/42/115 153/49/115 152/48/115 
f 147/42/116 148/43/116 154/50/116 153/49/116 
f 148/43/117 144/37/117 150/44/117 154/50/117 
f 150/44/118 149/45/118 155/52/118 156/51/118 
f 149/45/119 151/46/119 157/53/119 155/52/119 
f 151/47/120 152/48/120 158/55/120 157/54/120 
f 152/48/121 153/49/121 159/56/121 158/55/121 
f 153/49/122 154/50/122 160/57/122 159/56/122 
f 154/50/123 150/44/123 156/51/123 160/57/123 
f 156/51/124 155/52/124 161/59/124 162/58/124 
f 155/52/125 157/53/125 163/60/125 161/59/125 
f 157/54/126 158/55/126 164/62/126 163/61/126 
f 158/55/127 159/56/127 165/63/127 164/62/127 
f 159/56/128 160/57/128 166/64/128 165/63/128 
f 160/57/129 156/51/129 162/58/129 166/64/129 
f 129/65/130 127/70/130 125/69/130 123/68/130 120/67/130 119/66/130 
f 162/71/131 161/76/131 163/75/131 164/74/131 165/73/131 166/72/131 
f 132/18/132 131/17/132 122/17/132 121/18/132 
f 131/17/133 141/28/133 130/28/133 122/17/133 
f 141/28/134 139/26/134 128/26/134 130/28/134 
f 139/26/135 137/24/135 126/24/135 128/26/135 
f 137/24/136 135/23/136 124/23/136 126/24/136 
f 135/20/137 132/18/137 121/18/137 124/20/137 
# 88 polygons

