# 3ds Max Wavefront OBJ Exporter v0.97b - (c)2007 guruware
# File Created: 30.11.2018 17:01:49

mtllib sun.mtl

#
# object GeoSphere003
#

v  -46.1318 10.4729 -73.1768
v  -42.3539 9.7678 -73.1768
v  -44.9644 9.7678 -76.7698
v  -39.0847 7.7473 -73.1768
v  -41.1100 8.4351 -76.8254
v  -43.9541 7.7473 -79.8790
v  -36.7645 4.6836 -73.1768
v  -37.9173 5.4125 -76.7698
v  -40.1762 5.4125 -79.8790
v  -43.2372 4.6836 -82.0856
v  -49.1882 9.7678 -75.3974
v  -48.0500 8.4351 -79.0804
v  -51.8330 7.7473 -77.3190
v  -47.0105 5.4125 -82.0996
v  -50.6656 5.4125 -80.9120
v  -53.7101 4.6836 -78.6828
v  -49.1882 9.7678 -70.9562
v  -52.3391 8.4351 -73.1768
v  -51.8330 7.7473 -69.0347
v  -54.8894 5.4125 -75.0984
v  -54.8894 5.4125 -71.2553
v  -53.7101 4.6836 -67.6709
v  -44.9644 9.7678 -69.5838
v  -48.0500 8.4351 -67.2733
v  -43.9541 7.7473 -66.4747
v  -50.6656 5.4125 -65.4417
v  -47.0105 5.4125 -64.2541
v  -43.2372 4.6836 -64.2680
v  -41.1100 8.4351 -69.5283
v  -40.1762 5.4125 -66.4747
v  -37.9173 5.4125 -69.5838
v  -36.0284 1.6346 -70.9562
v  -36.0284 1.6346 -75.3974
v  -36.6527 -1.6346 -69.0347
v  -35.8112 -1.7797 -73.1768
v  -36.6527 -1.6346 -77.3190
v  -38.5535 -4.6836 -67.6709
v  -37.3742 -5.4125 -71.2553
v  -37.3742 -5.4125 -75.0984
v  -38.5535 -4.6836 -78.6828
v  -40.8978 1.6346 -82.0996
v  -45.1216 1.6346 -83.4720
v  -39.2632 -1.6346 -80.9120
v  -42.9426 -1.7797 -82.9923
v  -47.1420 -1.6346 -83.4720
v  -41.5980 -5.4125 -80.9120
v  -45.2531 -5.4125 -82.0996
v  -49.0265 -4.6836 -82.0856
v  -53.0004 1.6346 -80.9120
v  -55.6109 1.6346 -77.3190
v  -51.3658 -1.6346 -82.0996
v  -54.4814 -1.7797 -79.2431
v  -56.2352 -1.6346 -75.3974
v  -52.0874 -5.4125 -79.8790
v  -54.3463 -5.4125 -76.7698
v  -55.4991 -4.6836 -73.1768
v  -55.6109 1.6346 -69.0347
v  -53.0004 1.6346 -65.4417
v  -56.2352 -1.6346 -70.9562
v  -54.4814 -1.7797 -67.1105
v  -51.3658 -1.6346 -64.2541
v  -54.3463 -5.4125 -69.5838
v  -52.0874 -5.4125 -66.4747
v  -49.0264 -4.6836 -64.2680
v  -45.1216 1.6346 -62.8817
v  -40.8978 1.6346 -64.2541
v  -47.1420 -1.6346 -62.8817
v  -42.9426 -1.7797 -63.3613
v  -39.2632 -1.6346 -65.4417
v  -45.2531 -5.4125 -64.2541
v  -41.5980 -5.4125 -65.4417
v  -37.7822 1.7797 -79.2431
v  -49.3210 1.7797 -82.9923
v  -56.4524 1.7797 -73.1768
v  -49.3210 1.7797 -63.3613
v  -37.7822 1.7797 -67.1105
v  -46.1318 -10.4729 -73.1768
v  -47.2992 -9.7678 -76.7698
v  -43.0754 -9.7678 -75.3974
v  -48.3095 -7.7473 -79.8790
v  -44.2136 -8.4351 -79.0804
v  -40.4306 -7.7473 -77.3190
v  -49.9097 -9.7678 -73.1768
v  -53.1789 -7.7473 -73.1768
v  -51.1536 -8.4351 -76.8254
v  -47.2992 -9.7678 -69.5838
v  -48.3095 -7.7473 -66.4747
v  -51.1536 -8.4351 -69.5283
v  -43.0754 -9.7678 -70.9562
v  -40.4306 -7.7473 -69.0347
v  -44.2136 -8.4351 -67.2733
v  -39.9245 -8.4351 -73.1768
# 92 vertices

vn 0.1819 0.9744 -0.1321
vn 0.5212 0.8434 -0.1303
vn 0.3151 0.9210 -0.2290
vn 0.2850 0.8434 -0.4555
vn 0.7902 0.5984 -0.1321
vn 0.6697 0.7030 -0.2392
vn 0.6183 0.6449 -0.4492
vn 0.4345 0.7030 -0.5630
vn 0.3699 0.5984 -0.7107
vn -0.0695 0.9744 -0.2138
vn 0.0371 0.8434 -0.5360
vn -0.1204 0.9210 -0.3705
vn -0.3451 0.8434 -0.4118
vn 0.1185 0.5984 -0.7924
vn -0.0206 0.7030 -0.7109
vn -0.2362 0.6449 -0.7269
vn -0.4012 0.7030 -0.5872
vn -0.5616 0.5984 -0.5714
vn -0.2248 0.9744 0.0000
vn -0.4983 0.8434 -0.2009
vn -0.3895 0.9210 0.0000
vn -0.4983 0.8434 0.2009
vn -0.7170 0.5984 -0.3576
vn -0.6824 0.7030 -0.2001
vn -0.7643 0.6449 -0.0000
vn -0.6824 0.7030 0.2001
vn -0.7170 0.5984 0.3576
vn -0.0695 0.9744 0.2138
vn -0.3451 0.8434 0.4118
vn -0.1204 0.9210 0.3705
vn 0.0371 0.8434 0.5360
vn -0.5616 0.5984 0.5714
vn -0.4012 0.7030 0.5872
vn -0.2362 0.6449 0.7269
vn -0.0206 0.7030 0.7109
vn 0.1185 0.5984 0.7924
vn 0.1819 0.9744 0.1321
vn 0.2850 0.8434 0.4555
vn 0.3151 0.9210 0.2290
vn 0.5212 0.8434 0.1303
vn 0.3699 0.5984 0.7107
vn 0.4345 0.7030 0.5630
vn 0.6183 0.6449 0.4492
vn 0.6697 0.7030 0.2392
vn 0.7902 0.5984 0.1321
vn 0.9721 0.2347 -0.0000
vn 0.9772 -0.0685 0.2009
vn 0.9980 0.0635 -0.0000
vn 0.9772 -0.0685 -0.2009
vn 0.8559 -0.3736 0.3576
vn 0.9340 -0.2960 0.2001
vn 0.9186 -0.3952 -0.0000
vn 0.9340 -0.2960 -0.2001
vn 0.8559 -0.3736 -0.3576
vn 0.3004 0.2347 -0.9245
vn 0.4931 -0.0685 -0.8673
vn 0.3084 0.0635 -0.9491
vn 0.1109 -0.0685 -0.9915
vn 0.6045 -0.3736 -0.7035
vn 0.4789 -0.2960 -0.8264
vn 0.2839 -0.3952 -0.8736
vn 0.0983 -0.2960 -0.9501
vn -0.0756 -0.3736 -0.9245
vn -0.7864 0.2347 -0.5714
vn -0.6725 -0.0685 -0.7369
vn -0.8074 0.0635 -0.5866
vn -0.9087 -0.0685 -0.4118
vn -0.4823 -0.3736 -0.7924
vn -0.6380 -0.2960 -0.7109
vn -0.7431 -0.3952 -0.5399
vn -0.8732 -0.2960 -0.3871
vn -0.9026 -0.3736 -0.2138
vn -0.7864 0.2347 0.5714
vn -0.9087 -0.0685 0.4118
vn -0.8074 0.0635 0.5866
vn -0.6725 -0.0685 0.7369
vn -0.9026 -0.3736 0.2138
vn -0.8732 -0.2960 0.3871
vn -0.7431 -0.3952 0.5399
vn -0.6380 -0.2960 0.7109
vn -0.4823 -0.3736 0.7924
vn 0.3004 0.2347 0.9245
vn 0.1109 -0.0685 0.9915
vn 0.3084 0.0635 0.9491
vn 0.4931 -0.0685 0.8673
vn -0.0756 -0.3736 0.9245
vn 0.0983 -0.2960 0.9501
vn 0.2839 -0.3952 0.8736
vn 0.4789 -0.2960 0.8264
vn 0.6045 -0.3736 0.7035
vn 0.7864 -0.2347 -0.5714
vn 0.6725 0.0685 -0.7369
vn 0.8074 -0.0635 -0.5866
vn 0.9087 0.0685 -0.4118
vn 0.4823 0.3736 -0.7924
vn 0.6380 0.2960 -0.7109
vn 0.7431 0.3952 -0.5399
vn 0.8732 0.2960 -0.3871
vn 0.9026 0.3736 -0.2138
vn -0.3004 -0.2347 -0.9245
vn -0.4931 0.0685 -0.8673
vn -0.3084 -0.0635 -0.9491
vn -0.1109 0.0685 -0.9915
vn -0.6045 0.3736 -0.7035
vn -0.4789 0.2960 -0.8264
vn -0.2839 0.3952 -0.8736
vn -0.0983 0.2960 -0.9501
vn 0.0756 0.3736 -0.9245
vn -0.9721 -0.2347 0.0000
vn -0.9772 0.0685 0.2009
vn -0.9980 -0.0635 0.0000
vn -0.9772 0.0685 -0.2009
vn -0.8559 0.3736 0.3576
vn -0.9340 0.2960 0.2001
vn -0.9186 0.3952 -0.0000
vn -0.9340 0.2960 -0.2001
vn -0.8559 0.3736 -0.3576
vn -0.3004 -0.2347 0.9245
vn -0.1109 0.0685 0.9915
vn -0.3084 -0.0635 0.9491
vn -0.4931 0.0685 0.8673
vn 0.0756 0.3736 0.9245
vn -0.0983 0.2960 0.9501
vn -0.2839 0.3952 0.8736
vn -0.4789 0.2960 0.8264
vn -0.6045 0.3736 0.7035
vn 0.7864 -0.2347 0.5714
vn 0.9087 0.0685 0.4118
vn 0.8074 -0.0635 0.5866
vn 0.6725 0.0685 0.7369
vn 0.9026 0.3736 0.2138
vn 0.8732 0.2960 0.3871
vn 0.7431 0.3952 0.5399
vn 0.6380 0.2960 0.7109
vn 0.4823 0.3736 0.7924
vn 0.0695 -0.9744 -0.2138
vn -0.0371 -0.8434 -0.5360
vn 0.1204 -0.9210 -0.3705
vn 0.3451 -0.8434 -0.4118
vn -0.1185 -0.5984 -0.7924
vn 0.0206 -0.7030 -0.7109
vn 0.2362 -0.6449 -0.7269
vn 0.4012 -0.7030 -0.5872
vn 0.5616 -0.5984 -0.5714
vn -0.1819 -0.9744 -0.1321
vn -0.5212 -0.8434 -0.1303
vn -0.3151 -0.9210 -0.2290
vn -0.2850 -0.8434 -0.4555
vn -0.7902 -0.5984 -0.1321
vn -0.6697 -0.7030 -0.2392
vn -0.6183 -0.6449 -0.4492
vn -0.4345 -0.7030 -0.5630
vn -0.3699 -0.5984 -0.7107
vn -0.1819 -0.9744 0.1321
vn -0.2850 -0.8434 0.4555
vn -0.3151 -0.9210 0.2290
vn -0.5212 -0.8434 0.1303
vn -0.3699 -0.5984 0.7107
vn -0.4345 -0.7030 0.5630
vn -0.6183 -0.6449 0.4492
vn -0.6697 -0.7030 0.2392
vn -0.7902 -0.5984 0.1321
vn 0.0695 -0.9744 0.2138
vn 0.3451 -0.8434 0.4118
vn 0.1204 -0.9210 0.3705
vn -0.0371 -0.8434 0.5360
vn 0.5616 -0.5984 0.5714
vn 0.4012 -0.7030 0.5872
vn 0.2362 -0.6449 0.7269
vn 0.0206 -0.7030 0.7109
vn -0.1185 -0.5984 0.7924
vn 0.2248 -0.9744 0.0000
vn 0.4983 -0.8434 -0.2009
vn 0.3895 -0.9210 0.0000
vn 0.4983 -0.8434 0.2009
vn 0.7170 -0.5984 -0.3576
vn 0.6824 -0.7030 -0.2001
vn 0.7643 -0.6449 -0.0000
vn 0.6824 -0.7030 0.2001
vn 0.7170 -0.5984 0.3576
# 180 vertex normals

vt 0.6000 1.0000 10.4729
vt 0.5000 0.8825 10.4729
vt 0.7000 0.8825 10.4729
vt 0.5000 0.7651 10.4729
vt 0.6000 0.7981 10.4729
vt 0.7000 0.7651 10.4729
vt 0.5000 0.6476 10.4729
vt 0.5656 0.6729 10.4729
vt 0.6344 0.6729 10.4729
vt 0.7000 0.6476 10.4729
vt 0.8000 1.0000 10.4729
vt 0.9000 0.8825 10.4729
vt 0.8000 0.7981 10.4729
vt 0.9000 0.7651 10.4729
vt 0.7656 0.6729 10.4729
vt 0.8344 0.6729 10.4729
vt 0.9000 0.6476 10.4729
vt 0.0000 1.0000 10.4729
vt -0.1000 0.8825 10.4729
vt 0.1000 0.8825 10.4729
vt -0.1000 0.7651 10.4729
vt 0.0000 0.7981 10.4729
vt 0.1000 0.7651 10.4729
vt 0.9656 0.6729 10.4729
vt -0.0344 0.6729 10.4729
vt 0.0344 0.6729 10.4729
vt 0.1000 0.6476 10.4729
vt 0.2000 1.0000 10.4729
vt 0.3000 0.8825 10.4729
vt 0.2000 0.7981 10.4729
vt 0.3000 0.7651 10.4729
vt 0.1656 0.6729 10.4729
vt 0.2344 0.6729 10.4729
vt 0.3000 0.6476 10.4729
vt 0.4000 1.0000 10.4729
vt 0.4000 0.7981 10.4729
vt 0.3656 0.6729 10.4729
vt 0.4344 0.6729 10.4729
vt 0.4656 0.5499 10.4729
vt 0.5344 0.5499 10.4729
vt 0.4344 0.4501 10.4729
vt 0.5000 0.4456 10.4729
vt 0.5656 0.4501 10.4729
vt 0.4000 0.3524 10.4729
vt 0.4656 0.3271 10.4729
vt 0.5344 0.3271 10.4729
vt 0.6000 0.3524 10.4729
vt 0.6656 0.5499 10.4729
vt 0.7344 0.5499 10.4729
vt 0.6344 0.4501 10.4729
vt 0.7000 0.4456 10.4729
vt 0.7656 0.4501 10.4729
vt 0.6656 0.3271 10.4729
vt 0.7344 0.3271 10.4729
vt 0.8000 0.3524 10.4729
vt 0.8656 0.5499 10.4729
vt 0.9344 0.5499 10.4729
vt 0.8344 0.4501 10.4729
vt 0.9000 0.4456 10.4729
vt 0.9656 0.4501 10.4729
vt 0.8656 0.3271 10.4729
vt 0.9344 0.3271 10.4729
vt -0.0344 0.4501 10.4729
vt -0.0656 0.3271 10.4729
vt 0.0000 0.3524 10.4729
vt 0.0656 0.5499 10.4729
vt 0.1344 0.5499 10.4729
vt 0.0344 0.4501 10.4729
vt 0.1000 0.4456 10.4729
vt 0.1656 0.4501 10.4729
vt 0.0656 0.3271 10.4729
vt 0.1344 0.3271 10.4729
vt 0.2000 0.3524 10.4729
vt 0.2656 0.5499 10.4729
vt 0.3344 0.5499 10.4729
vt 0.2344 0.4501 10.4729
vt 0.3000 0.4456 10.4729
vt 0.3656 0.4501 10.4729
vt 0.2656 0.3271 10.4729
vt 0.3344 0.3271 10.4729
vt 0.6000 0.5544 10.4729
vt 0.8000 0.5544 10.4729
vt 0.0000 0.5544 10.4729
vt -0.0656 0.5499 10.4729
vt 0.2000 0.5544 10.4729
vt 0.4000 0.5544 10.4729
vt 0.7000 0.0000 10.4729
vt 0.8000 0.1175 10.4729
vt 0.6000 0.1175 10.4729
vt 0.8000 0.2349 10.4729
vt 0.7000 0.2019 10.4729
vt 0.6000 0.2349 10.4729
vt -0.1000 0.0000 10.4729
vt 0.0000 0.1175 10.4729
vt -0.2000 0.1175 10.4729
vt 0.0000 0.2349 10.4729
vt -0.1000 0.2019 10.4729
vt 0.9000 0.2019 10.4729
vt 0.1000 0.0000 10.4729
vt 0.2000 0.1175 10.4729
vt 0.2000 0.2349 10.4729
vt 0.1000 0.2019 10.4729
vt 0.3000 0.0000 10.4729
vt 0.4000 0.1175 10.4729
vt 0.4000 0.2349 10.4729
vt 0.3000 0.2019 10.4729
vt 0.5000 0.0000 10.4729
vt 0.5000 0.2019 10.4729
# 108 texture coords

g GeoSphere003
usemtl wire_153228184
s off
f 1/1/1 2/2/1 3/3/1 
f 2/2/2 4/4/2 5/5/2 
f 2/2/3 5/5/3 3/3/3 
f 3/3/4 5/5/4 6/6/4 
f 4/4/5 7/7/5 8/8/5 
f 4/4/6 8/8/6 5/5/6 
f 5/5/7 8/8/7 9/9/7 
f 5/5/8 9/9/8 6/6/8 
f 6/6/9 9/9/9 10/10/9 
f 1/11/10 3/3/10 11/12/10 
f 3/3/11 6/6/11 12/13/11 
f 3/3/12 12/13/12 11/12/12 
f 11/12/13 12/13/13 13/14/13 
f 6/6/14 10/10/14 14/15/14 
f 6/6/15 14/15/15 12/13/15 
f 12/13/16 14/15/16 15/16/16 
f 12/13/17 15/16/17 13/14/17 
f 13/14/18 15/16/18 16/17/18 
f 1/18/19 11/19/19 17/20/19 
f 11/19/20 13/21/20 18/22/20 
f 11/19/21 18/22/21 17/20/21 
f 17/20/22 18/22/22 19/23/22 
f 13/14/23 16/17/23 20/24/23 
f 13/21/24 20/25/24 18/22/24 
f 18/22/25 20/25/25 21/26/25 
f 18/22/26 21/26/26 19/23/26 
f 19/23/27 21/26/27 22/27/27 
f 1/28/28 17/20/28 23/29/28 
f 17/20/29 19/23/29 24/30/29 
f 17/20/30 24/30/30 23/29/30 
f 23/29/31 24/30/31 25/31/31 
f 19/23/32 22/27/32 26/32/32 
f 19/23/33 26/32/33 24/30/33 
f 24/30/34 26/32/34 27/33/34 
f 24/30/35 27/33/35 25/31/35 
f 25/31/36 27/33/36 28/34/36 
f 1/35/37 23/29/37 2/2/37 
f 23/29/38 25/31/38 29/36/38 
f 23/29/39 29/36/39 2/2/39 
f 2/2/40 29/36/40 4/4/40 
f 25/31/41 28/34/41 30/37/41 
f 25/31/42 30/37/42 29/36/42 
f 29/36/43 30/37/43 31/38/43 
f 29/36/44 31/38/44 4/4/44 
f 4/4/45 31/38/45 7/7/45 
f 7/7/46 32/39/46 33/40/46 
f 32/39/47 34/41/47 35/42/47 
f 32/39/48 35/42/48 33/40/48 
f 33/40/49 35/42/49 36/43/49 
f 34/41/50 37/44/50 38/45/50 
f 34/41/51 38/45/51 35/42/51 
f 35/42/52 38/45/52 39/46/52 
f 35/42/53 39/46/53 36/43/53 
f 36/43/54 39/46/54 40/47/54 
f 10/10/55 41/48/55 42/49/55 
f 41/48/56 43/50/56 44/51/56 
f 41/48/57 44/51/57 42/49/57 
f 42/49/58 44/51/58 45/52/58 
f 43/50/59 40/47/59 46/53/59 
f 43/50/60 46/53/60 44/51/60 
f 44/51/61 46/53/61 47/54/61 
f 44/51/62 47/54/62 45/52/62 
f 45/52/63 47/54/63 48/55/63 
f 16/17/64 49/56/64 50/57/64 
f 49/56/65 51/58/65 52/59/65 
f 49/56/66 52/59/66 50/57/66 
f 50/57/67 52/59/67 53/60/67 
f 51/58/68 48/55/68 54/61/68 
f 51/58/69 54/61/69 52/59/69 
f 52/59/70 54/61/70 55/62/70 
f 52/59/71 55/62/71 53/60/71 
f 53/63/72 55/64/72 56/65/72 
f 22/27/73 57/66/73 58/67/73 
f 57/66/74 59/68/74 60/69/74 
f 57/66/75 60/69/75 58/67/75 
f 58/67/76 60/69/76 61/70/76 
f 59/68/77 56/65/77 62/71/77 
f 59/68/78 62/71/78 60/69/78 
f 60/69/79 62/71/79 63/72/79 
f 60/69/80 63/72/80 61/70/80 
f 61/70/81 63/72/81 64/73/81 
f 28/34/82 65/74/82 66/75/82 
f 65/74/83 67/76/83 68/77/83 
f 65/74/84 68/77/84 66/75/84 
f 66/75/85 68/77/85 69/78/85 
f 67/76/86 64/73/86 70/79/86 
f 67/76/87 70/79/87 68/77/87 
f 68/77/88 70/79/88 71/80/88 
f 68/77/89 71/80/89 69/78/89 
f 69/78/90 71/80/90 37/44/90 
f 40/47/91 43/50/91 36/43/91 
f 43/50/92 41/48/92 72/81/92 
f 43/50/93 72/81/93 36/43/93 
f 36/43/94 72/81/94 33/40/94 
f 41/48/95 10/10/95 9/9/95 
f 41/48/96 9/9/96 72/81/96 
f 72/81/97 9/9/97 8/8/97 
f 72/81/98 8/8/98 33/40/98 
f 33/40/99 8/8/99 7/7/99 
f 48/55/100 51/58/100 45/52/100 
f 51/58/101 49/56/101 73/82/101 
f 51/58/102 73/82/102 45/52/102 
f 45/52/103 73/82/103 42/49/103 
f 49/56/104 16/17/104 15/16/104 
f 49/56/105 15/16/105 73/82/105 
f 73/82/106 15/16/106 14/15/106 
f 73/82/107 14/15/107 42/49/107 
f 42/49/108 14/15/108 10/10/108 
f 56/65/109 59/68/109 53/63/109 
f 59/68/110 57/66/110 74/83/110 
f 59/68/111 74/83/111 53/63/111 
f 53/63/112 74/83/112 50/84/112 
f 57/66/113 22/27/113 21/26/113 
f 57/66/114 21/26/114 74/83/114 
f 74/83/115 21/26/115 20/25/115 
f 74/83/116 20/25/116 50/84/116 
f 50/57/117 20/24/117 16/17/117 
f 64/73/118 67/76/118 61/70/118 
f 67/76/119 65/74/119 75/85/119 
f 67/76/120 75/85/120 61/70/120 
f 61/70/121 75/85/121 58/67/121 
f 65/74/122 28/34/122 27/33/122 
f 65/74/123 27/33/123 75/85/123 
f 75/85/124 27/33/124 26/32/124 
f 75/85/125 26/32/125 58/67/125 
f 58/67/126 26/32/126 22/27/126 
f 37/44/127 34/41/127 69/78/127 
f 34/41/128 32/39/128 76/86/128 
f 34/41/129 76/86/129 69/78/129 
f 69/78/130 76/86/130 66/75/130 
f 32/39/131 7/7/131 31/38/131 
f 32/39/132 31/38/132 76/86/132 
f 76/86/133 31/38/133 30/37/133 
f 76/86/134 30/37/134 66/75/134 
f 66/75/135 30/37/135 28/34/135 
f 77/87/136 78/88/136 79/89/136 
f 78/88/137 80/90/137 81/91/137 
f 78/88/138 81/91/138 79/89/138 
f 79/89/139 81/91/139 82/92/139 
f 80/90/140 48/55/140 47/54/140 
f 80/90/141 47/54/141 81/91/141 
f 81/91/142 47/54/142 46/53/142 
f 81/91/143 46/53/143 82/92/143 
f 82/92/144 46/53/144 40/47/144 
f 77/93/145 83/94/145 78/95/145 
f 83/94/146 84/96/146 85/97/146 
f 83/94/147 85/97/147 78/95/147 
f 78/88/148 85/98/148 80/90/148 
f 84/96/149 56/65/149 55/64/149 
f 84/96/150 55/64/150 85/97/150 
f 85/98/151 55/62/151 54/61/151 
f 85/98/152 54/61/152 80/90/152 
f 80/90/153 54/61/153 48/55/153 
f 77/99/154 86/100/154 83/94/154 
f 86/100/155 87/101/155 88/102/155 
f 86/100/156 88/102/156 83/94/156 
f 83/94/157 88/102/157 84/96/157 
f 87/101/158 64/73/158 63/72/158 
f 87/101/159 63/72/159 88/102/159 
f 88/102/160 63/72/160 62/71/160 
f 88/102/161 62/71/161 84/96/161 
f 84/96/162 62/71/162 56/65/162 
f 77/103/163 89/104/163 86/100/163 
f 89/104/164 90/105/164 91/106/164 
f 89/104/165 91/106/165 86/100/165 
f 86/100/166 91/106/166 87/101/166 
f 90/105/167 37/44/167 71/80/167 
f 90/105/168 71/80/168 91/106/168 
f 91/106/169 71/80/169 70/79/169 
f 91/106/170 70/79/170 87/101/170 
f 87/101/171 70/79/171 64/73/171 
f 77/107/172 79/89/172 89/104/172 
f 79/89/173 82/92/173 92/108/173 
f 79/89/174 92/108/174 89/104/174 
f 89/104/175 92/108/175 90/105/175 
f 82/92/176 40/47/176 39/46/176 
f 82/92/177 39/46/177 92/108/177 
f 92/108/178 39/46/178 38/45/178 
f 92/108/179 38/45/179 90/105/179 
f 90/105/180 38/45/180 37/44/180 
# 0 polygons - 180 triangles

