# 3ds Max Wavefront OBJ Exporter v0.97b - (c)2007 guruware
# File Created: 01.02.2019 11:21:01

mtllib champignon3_holo.mtl

#
# object GeoSphere010
#

v  0.0217 0.0394 -0.0032
v  0.0209 0.0247 -0.0051
v  0.0147 0.0247 -0.0163
v  -0.0063 0.0855 -0.0032
v  -0.0097 0.0705 -0.0134
v  -0.0170 0.0705 -0.0033
v  -0.0152 0.0674 0.0109
v  -0.0205 0.0567 0.0070
v  -0.0172 0.0394 0.0170
v  -0.0203 0.0247 -0.0134
v  -0.0084 0.0247 -0.0220
v  -0.0084 0.0247 0.0231
v  0.0063 0.0247 0.0231
v  0.0108 0.0567 0.0172
v  -0.0009 0.0567 0.0210
v  0.0141 0.0705 -0.0057
v  0.0043 0.0674 -0.0161
v  0.0054 0.0855 0.0006
v  0.0223 0.0247 0.0023
v  -0.0044 0.0421 0.0231
v  -0.0172 0.0394 -0.0159
v  0.0148 0.0421 -0.0158
v  -0.0044 0.0421 -0.0220
v  -0.0009 0.0567 -0.0199
v  0.0108 0.0567 -0.0161
v  0.0009 0.0855 -0.0056
v  0.0009 0.0855 0.0067
v  0.0043 0.0674 0.0172
v  0.0141 0.0705 0.0068
v  -0.0132 0.0567 0.0170
v  -0.0023 0.0705 0.0169
v  -0.0235 0.0421 0.0044
v  -0.0235 0.0421 -0.0033
v  0.0164 0.0674 0.0006
v  0.0194 0.0421 0.0106
v  -0.0011 0.0247 -0.0231
v  -0.0063 0.0855 0.0044
v  -0.0117 0.0813 0.0006
v  -0.0170 0.0247 0.0179
v  -0.0117 0.0421 -0.0196
v  0.0181 0.0247 0.0145
v  -0.0248 0.0247 0.0006
v  -0.0236 0.0247 0.0079
v  0.0184 0.0567 -0.0056
v  0.0148 0.0421 0.0169
v  -0.0026 0.0001 0.0029
v  -0.0026 0.0001 -0.0031
v  0.0026 0.0001 -0.0031
v  0.0026 0.0001 0.0029
v  -0.0031 0.0361 0.0040
v  0.0031 0.0361 0.0040
v  0.0031 0.0361 -0.0041
v  -0.0031 0.0361 -0.0041
v  0.0026 0.0166 0.0029
v  -0.0026 0.0166 0.0029
v  0.0026 0.0166 -0.0031
v  -0.0026 0.0166 -0.0031
v  0.0033 0.0164 0.0042
v  -0.0032 0.0164 0.0042
v  0.0033 0.0164 -0.0044
v  -0.0032 0.0164 -0.0044
# 61 vertices

vn 0.8731 0.0410 -0.4859
vn -0.4424 0.8373 -0.3214
vn -0.7236 0.4472 0.5257
vn 0.0000 -1.0000 -0.0000
vn 0.2916 0.3310 0.8975
vn 0.2999 0.8760 -0.3778
vn 0.1628 0.2634 0.9509
vn -0.5871 -0.0468 -0.8081
vn 0.8779 0.0175 -0.4785
vn 0.3046 0.1684 -0.9375
vn -0.0380 0.8322 -0.5532
vn 0.3559 0.8322 0.4252
vn -0.3405 0.7340 0.5876
vn -0.8540 0.2634 0.4486
vn -0.8540 0.2634 -0.4486
vn 0.5253 0.8499 0.0414
vn 0.9584 0.2481 0.1408
vn 0.3995 0.0622 -0.9146
vn -0.1876 0.7947 0.5774
vn -0.2861 0.9582 0.0000
vn -0.2694 0.4901 0.8290
vn -0.5198 0.1051 0.8478
vn -0.2694 0.4901 -0.8290
vn -0.6772 0.5472 -0.4920
vn -0.6641 0.7340 0.1423
vn -0.7703 0.4760 -0.4244
vn 0.9463 0.0092 0.3232
vn 0.4911 0.7947 -0.3568
vn 0.0000 1.0000 -0.0000
vn -0.9822 0.1876 -0.0000
vn 0.2764 0.4472 -0.8507
vn 0.4536 0.7340 -0.5055
vn 0.9047 0.4088 0.1198
vn 0.6700 0.5605 -0.4868
vn 0.7052 0.4901 0.5124
vn 0.4536 0.7340 0.5055
vn 0.4272 0.2634 0.8649
vn -0.2944 0.8322 0.4699
vn -0.4493 0.8499 0.2753
vn -0.3035 0.1876 -0.9342
vn 0.8364 0.4999 0.2249
vn 0.7027 0.5256 0.4796
vn 0.0000 -0.0000 1.0000
vn -0.4300 0.2657 0.8628
vn -0.2865 0.5256 -0.8010
vn -0.0699 0.7340 -0.6756
vn -0.8717 0.4901 -0.0000
vn -0.8504 0.5256 -0.0250
vn -0.2559 0.5605 0.7876
vn 0.1420 0.9183 0.3696
vn -0.9511 0.0000 -0.3090
vn 0.8550 0.2657 -0.4453
vn 0.8944 0.4472 -0.0000
vn -0.4493 0.8499 -0.2753
vn 0.5253 0.8499 -0.0414
vn 0.7535 0.6355 -0.1681
vn -0.1447 0.8836 -0.4453
vn 0.3788 0.8836 0.2752
vn 0.7052 0.4901 -0.5124
vn -0.5444 0.4999 -0.6736
vn -0.5588 0.0217 -0.8290
vn 0.2941 0.3073 -0.9050
vn -0.1557 0.0962 -0.9831
vn -0.8576 0.2502 0.4494
vn -0.9831 0.0962 0.1557
vn 0.2764 0.4472 0.8507
vn 0.0729 0.6355 0.7686
vn 0.5878 -0.0000 0.8090
vn 0.7947 0.1876 0.5774
vn -0.8306 0.0436 0.5552
vn 0.9794 -0.0767 -0.1868
vn 0.0000 0.0000 1.0000
vn 1.0000 0.0000 -0.0000
vn 0.0000 0.0000 -1.0000
vn -1.0000 0.0000 -0.0000
vn 0.0000 0.0329 0.9995
vn 0.9999 0.0168 -0.0000
vn 0.0000 0.0329 -0.9995
vn -0.9999 0.0168 -0.0000
vn 0.0000 -0.9987 -0.0519
vn -0.1012 -0.9949 -0.0000
vn 0.0000 -0.9987 0.0519
vn 0.1012 -0.9949 -0.0000
# 83 vertex normals

vt 0.5264 0.5747 0.0499
vt 0.5099 0.5000 0.0499
vt 0.6000 0.5000 0.0499
vt 0.9000 0.9119 0.0499
vt 0.8378 0.7575 0.0499
vt 0.9622 0.7575 0.0499
vt 0.1000 0.7357 0.0499
vt 0.0513 0.6688 0.0499
vt 0.1264 0.5747 0.0499
vt 0.9000 0.5000 0.0499
vt 0.8000 0.5000 0.0499
vt 0.8750 0.5000 0.0000
vt 0.3000 0.5000 0.0499
vt 0.3487 0.6688 0.0499
vt 0.2513 0.6688 0.0499
vt 0.5622 0.7575 0.0499
vt 0.7000 0.7357 0.0499
vt 0.5000 0.9119 0.0499
vt 0.4500 0.5000 0.0499
vt 0.5250 0.5000 0.0000
vt 0.2270 0.5891 0.0499
vt 0.8736 0.5747 0.0499
vt 0.6270 0.5891 0.0499
vt 0.7730 0.5891 0.0499
vt 0.7487 0.6688 0.0499
vt 0.6513 0.6688 0.0499
vt 0.7000 0.9119 0.0499
vt 0.3000 0.9119 0.0499
vt 0.3000 0.7357 0.0499
vt 0.4378 0.7575 0.0499
vt 0.1487 0.6688 0.0499
vt 0.2378 0.7575 0.0499
vt 0.0270 0.5891 0.0499
vt 0.9730 0.5891 0.0499
vt 0.5000 0.7357 0.0499
vt 0.4270 0.5891 0.0499
vt 0.7500 0.5000 0.0499
vt 0.6750 0.5000 0.0000
vt 0.1000 0.9119 0.0499
vt -0.1000 0.9119 0.0499
vt 0.0000 0.8524 0.0499
vt 0.1209 0.5000 0.0499
vt 0.2000 0.5000 0.0499
vt 0.8270 0.5891 0.0499
vt 0.4000 0.5000 0.0499
vt 0.4250 0.5000 0.0000
vt 0.0000 1.0000 0.0499
vt -0.0270 0.5891 0.0499
vt 0.0000 0.5000 0.0499
vt 0.0500 0.5000 0.0499
vt 0.0250 0.5000 0.0000
vt 0.0382 0.5000 0.0263
vt 0.5487 0.6688 0.0499
vt 0.3730 0.5891 0.0499
vt 0.3250 0.5000 0.0000
vt 0.7750 0.5000 0.0000
vt -0.0378 0.7575 0.0499
vt 0.9500 0.5000 0.0499
vt 0.9250 0.5000 0.0000
vt 0.8000 1.0000 0.0499
vt 0.6000 1.0000 0.0499
vt 1.0000 0.0000 0.0000
vt 1.0000 1.0000 0.0000
vt 0.0000 1.0000 0.0000
vt 0.0000 0.0000 0.0000
vt 1.0000 0.6015 0.0000
vt 0.0000 0.6015 0.0000
# 67 texture coords

g GeoSphere010
usemtl wire_027177027
s off
f 1/1/1 2/2/1 3/3/1 
f 4/4/2 5/5/2 6/6/2 
f 7/7/3 8/8/3 9/9/3 
f 10/10/4 11/11/4 12/12/4 
f 13/13/5 14/14/5 15/15/5 
f 16/16/6 17/17/6 18/18/6 
f 3/3/4 2/2/4 19/19/4 12/20/4 
f 15/15/7 20/21/7 13/13/7 
f 21/22/8 11/11/8 10/10/8 
f 1/1/9 3/3/9 22/23/9 
f 23/24/10 24/25/10 25/26/10 
f 5/5/11 26/27/11 17/17/11 
f 27/28/12 28/29/12 29/30/12 
f 7/7/13 30/31/13 31/32/13 
f 32/33/14 9/9/14 8/8/14 
f 21/22/15 10/10/15 33/34/15 
f 18/18/16 29/30/16 34/35/16 
f 19/19/17 1/1/17 35/36/17 
f 36/37/4 3/3/4 12/38/4 
f 22/23/18 3/3/18 36/37/18 
f 27/28/19 37/39/19 28/29/19 
f 4/40/20 38/41/20 37/39/20 
f 20/21/21 15/15/21 30/31/21 
f 9/9/22 39/42/22 12/43/22 
f 24/25/23 23/24/23 40/44/23 
f 5/5/24 21/22/24 6/6/24 
f 38/41/25 8/8/25 7/7/25 
f 33/34/26 6/6/26 21/22/26 
f 19/19/4 41/45/4 12/46/4 
f 35/36/27 41/45/27 19/19/27 
f 26/27/28 18/18/28 17/17/28 
f 27/47/29 4/40/29 37/39/29 
f 33/48/30 42/49/30 32/33/30 
f 43/50/4 42/49/4 12/51/4 39/52/4 
f 17/17/31 25/26/31 24/25/31 
f 16/16/32 25/26/32 17/17/32 
f 34/35/33 35/36/33 1/1/33 
f 16/16/34 44/53/34 25/26/34 
f 14/14/35 45/54/35 35/36/35 
f 14/14/36 29/30/36 28/29/36 
f 45/54/37 14/14/37 13/13/37 
f 41/45/4 13/13/4 12/55/4 
f 31/32/38 37/39/38 7/7/38 
f 37/39/39 38/41/39 7/7/39 
f 23/24/40 11/11/40 40/44/40 
f 11/11/4 36/37/4 12/56/4 
f 29/30/41 35/36/41 34/35/41 
f 29/30/42 14/14/42 35/36/42 
f 20/21/43 12/43/43 13/13/43 
f 9/9/44 12/43/44 20/21/44 
f 5/5/45 24/25/45 40/44/45 
f 24/25/46 5/5/46 17/17/46 
f 8/8/47 33/48/47 32/33/47 
f 33/48/48 8/8/48 6/57/48 
f 31/32/49 30/31/49 15/15/49 
f 31/32/50 28/29/50 37/39/50 
f 42/58/4 10/10/4 12/59/4 
f 33/34/51 10/10/51 42/58/51 
f 30/31/44 9/9/44 20/21/44 
f 7/7/3 9/9/3 30/31/3 
f 44/53/52 1/1/52 22/23/52 
f 34/35/53 1/1/53 44/53/53 
f 8/8/25 38/41/25 6/57/25 
f 6/57/54 38/41/54 4/40/54 
f 16/16/55 18/18/55 34/35/55 
f 34/35/56 44/53/56 16/16/56 
f 5/5/57 4/4/57 26/27/57 
f 27/60/29 26/27/29 4/4/29 
f 27/61/29 18/18/29 26/27/29 
f 27/28/58 29/30/58 18/18/58 
f 25/26/10 22/23/10 23/24/10 
f 22/23/59 25/26/59 44/53/59 
f 5/5/60 40/44/60 21/22/60 
f 11/11/61 21/22/61 40/44/61 
f 22/23/62 36/37/62 23/24/62 
f 23/24/63 36/37/63 11/11/63 
f 32/33/64 43/50/64 9/9/64 
f 32/33/65 42/49/65 43/50/65 
f 28/29/66 15/15/66 14/14/66 
f 31/32/67 15/15/67 28/29/67 
f 41/45/68 45/54/68 13/13/68 
f 45/54/69 41/45/69 35/36/69 
f 9/9/70 43/50/70 39/42/70 
f 1/1/71 19/19/71 2/2/71 
s 2
f 46/62/4 47/63/4 48/64/4 49/65/4 
s 4
f 50/65/29 51/62/29 52/63/29 53/64/29 
s 8
f 46/65/72 49/62/72 54/66/72 55/67/72 
s 16
f 49/65/73 48/62/73 56/66/73 54/67/73 
s 32
f 48/65/74 47/62/74 57/66/74 56/67/74 
s 64
f 47/65/75 46/62/75 55/66/75 57/67/75 
s 8
f 58/66/76 51/63/76 50/64/76 59/67/76 
s 16
f 60/66/77 52/63/77 51/64/77 58/67/77 
s 32
f 61/66/78 53/63/78 52/64/78 60/67/78 
s 64
f 59/66/79 50/63/79 53/64/79 61/67/79 
s off
f 55/67/80 54/66/80 58/66/80 59/67/80 
f 54/67/81 56/66/81 60/66/81 58/67/81 
f 56/67/82 57/66/82 61/66/82 60/67/82 
f 57/67/83 55/66/83 59/66/83 61/67/83 
# 16 polygons - 82 triangles

