# 3ds Max Wavefront OBJ Exporter v0.97b - (c)2007 guruware
# File Created: 01.02.2019 11:18:05

mtllib champignon2_holo.mtl

#
# object GeoSphere009
#

v  0.0232 0.0303 -0.0034
v  0.0224 0.0247 -0.0053
v  0.0161 0.0247 -0.0167
v  -0.0053 0.0480 -0.0034
v  -0.0087 0.0422 -0.0137
v  -0.0162 0.0422 -0.0035
v  -0.0144 0.0410 0.0110
v  -0.0198 0.0369 0.0071
v  -0.0165 0.0303 0.0172
v  -0.0195 0.0247 -0.0137
v  -0.0075 0.0247 -0.0225
v  -0.0075 0.0247 0.0235
v  0.0075 0.0247 0.0235
v  0.0121 0.0369 0.0174
v  0.0002 0.0369 0.0213
v  0.0154 0.0422 -0.0059
v  0.0055 0.0410 -0.0165
v  0.0066 0.0480 0.0005
v  0.0238 0.0247 0.0022
v  -0.0033 0.0314 0.0235
v  -0.0165 0.0303 -0.0163
v  0.0162 0.0314 -0.0162
v  -0.0033 0.0314 -0.0225
v  0.0002 0.0369 -0.0204
v  0.0121 0.0369 -0.0165
v  0.0021 0.0480 -0.0058
v  0.0021 0.0480 0.0067
v  0.0055 0.0410 0.0174
v  0.0154 0.0422 0.0068
v  -0.0124 0.0369 0.0172
v  -0.0013 0.0422 0.0171
v  -0.0229 0.0314 0.0044
v  -0.0229 0.0314 -0.0035
v  0.0179 0.0410 0.0005
v  0.0209 0.0314 0.0107
v  0.0000 0.0247 -0.0237
v  -0.0053 0.0480 0.0043
v  -0.0108 0.0463 0.0005
v  -0.0162 0.0247 0.0181
v  -0.0108 0.0314 -0.0201
v  0.0196 0.0247 0.0147
v  -0.0242 0.0247 0.0005
v  -0.0230 0.0247 0.0079
v  0.0199 0.0369 -0.0058
v  0.0162 0.0314 0.0171
v  0.0165 0.0368 0.0135
v  0.0174 0.0353 0.0136
v  0.0184 0.0339 0.0132
v  0.0195 0.0328 0.0123
v  0.0205 0.0321 0.0110
v  0.0213 0.0319 0.0095
v  0.0220 0.0321 0.0078
v  0.0223 0.0328 0.0063
v  0.0222 0.0339 0.0049
v  0.0219 0.0353 0.0039
v  0.0213 0.0368 0.0033
v  0.0204 0.0384 0.0032
v  0.0194 0.0397 0.0036
v  0.0183 0.0408 0.0045
v  0.0173 0.0415 0.0057
v  0.0165 0.0418 0.0073
v  0.0158 0.0415 0.0089
v  0.0155 0.0408 0.0105
v  0.0156 0.0397 0.0119
v  0.0159 0.0383 0.0129
v  0.0063 0.0310 0.0228
v  0.0058 0.0321 0.0226
v  0.0050 0.0329 0.0224
v  0.0040 0.0334 0.0223
v  0.0029 0.0337 0.0223
v  0.0017 0.0336 0.0224
v  0.0007 0.0331 0.0226
v  -0.0002 0.0323 0.0229
v  -0.0007 0.0314 0.0232
v  -0.0010 0.0303 0.0235
v  -0.0008 0.0292 0.0238
v  -0.0003 0.0281 0.0241
v  0.0005 0.0273 0.0243
v  0.0015 0.0268 0.0244
v  0.0026 0.0265 0.0243
v  0.0038 0.0266 0.0242
v  0.0048 0.0271 0.0240
v  0.0057 0.0279 0.0238
v  0.0062 0.0288 0.0235
v  0.0065 0.0299 0.0231
v  0.0064 0.0431 0.0154
v  0.0062 0.0438 0.0145
v  0.0056 0.0444 0.0137
v  0.0047 0.0450 0.0132
v  0.0036 0.0453 0.0129
v  0.0025 0.0456 0.0129
v  0.0014 0.0455 0.0132
v  0.0004 0.0453 0.0138
v  -0.0004 0.0449 0.0146
v  -0.0008 0.0444 0.0155
v  -0.0009 0.0437 0.0165
v  -0.0006 0.0431 0.0174
v  -0.0000 0.0424 0.0182
v  0.0008 0.0419 0.0187
v  0.0019 0.0415 0.0190
v  0.0030 0.0413 0.0190
v  0.0041 0.0413 0.0186
v  0.0051 0.0415 0.0181
v  0.0059 0.0419 0.0173
v  0.0063 0.0424 0.0163
v  -0.0149 0.0360 0.0173
v  -0.0140 0.0374 0.0169
v  -0.0134 0.0388 0.0159
v  -0.0132 0.0399 0.0147
v  -0.0134 0.0408 0.0131
v  -0.0139 0.0413 0.0115
v  -0.0148 0.0413 0.0100
v  -0.0159 0.0409 0.0087
v  -0.0171 0.0401 0.0077
v  -0.0184 0.0390 0.0072
v  -0.0195 0.0377 0.0072
v  -0.0204 0.0362 0.0077
v  -0.0210 0.0349 0.0086
v  -0.0213 0.0337 0.0099
v  -0.0211 0.0328 0.0114
v  -0.0205 0.0323 0.0130
v  -0.0197 0.0323 0.0145
v  -0.0186 0.0327 0.0159
v  -0.0173 0.0335 0.0168
v  -0.0161 0.0346 0.0173
v  -0.0088 0.0475 -0.0033
v  -0.0093 0.0472 -0.0043
v  -0.0101 0.0468 -0.0050
v  -0.0111 0.0463 -0.0055
v  -0.0121 0.0458 -0.0056
v  -0.0131 0.0453 -0.0053
v  -0.0141 0.0449 -0.0047
v  -0.0148 0.0447 -0.0038
v  -0.0152 0.0445 -0.0028
v  -0.0153 0.0445 -0.0016
v  -0.0151 0.0447 -0.0005
v  -0.0146 0.0450 0.0005
v  -0.0138 0.0454 0.0013
v  -0.0128 0.0459 0.0017
v  -0.0118 0.0464 0.0018
v  -0.0108 0.0468 0.0016
v  -0.0098 0.0472 0.0010
v  -0.0091 0.0475 0.0001
v  -0.0087 0.0477 -0.0010
v  -0.0086 0.0477 -0.0021
v  0.0054 0.0433 -0.0136
v  0.0048 0.0440 -0.0130
v  0.0045 0.0448 -0.0121
v  0.0045 0.0454 -0.0112
v  0.0049 0.0460 -0.0102
v  0.0055 0.0463 -0.0093
v  0.0064 0.0463 -0.0085
v  0.0074 0.0462 -0.0080
v  0.0085 0.0458 -0.0078
v  0.0095 0.0452 -0.0078
v  0.0104 0.0445 -0.0082
v  0.0110 0.0438 -0.0089
v  0.0113 0.0430 -0.0097
v  0.0113 0.0423 -0.0106
v  0.0109 0.0418 -0.0116
v  0.0102 0.0415 -0.0125
v  0.0094 0.0415 -0.0133
v  0.0083 0.0416 -0.0138
v  0.0073 0.0420 -0.0141
v  0.0063 0.0426 -0.0140
v  -0.0113 0.0415 -0.0130
v  -0.0100 0.0416 -0.0142
v  -0.0089 0.0413 -0.0155
v  -0.0081 0.0406 -0.0168
v  -0.0076 0.0395 -0.0182
v  -0.0077 0.0381 -0.0193
v  -0.0081 0.0366 -0.0201
v  -0.0090 0.0352 -0.0205
v  -0.0102 0.0338 -0.0205
v  -0.0115 0.0328 -0.0200
v  -0.0129 0.0322 -0.0192
v  -0.0143 0.0320 -0.0181
v  -0.0154 0.0323 -0.0167
v  -0.0162 0.0330 -0.0154
v  -0.0166 0.0341 -0.0141
v  -0.0166 0.0355 -0.0129
v  -0.0161 0.0370 -0.0121
v  -0.0153 0.0385 -0.0117
v  -0.0141 0.0398 -0.0118
v  -0.0128 0.0408 -0.0122
v  -0.0027 0.0001 0.0028
v  -0.0027 0.0001 -0.0032
v  0.0025 0.0001 -0.0032
v  0.0025 0.0001 0.0028
v  -0.0027 0.0276 0.0028
v  0.0025 0.0276 0.0028
v  0.0025 0.0276 -0.0032
v  -0.0027 0.0276 -0.0032
v  0.0025 0.0176 0.0028
v  -0.0027 0.0176 0.0028
v  0.0025 0.0176 -0.0032
v  -0.0027 0.0176 -0.0032
v  0.0035 0.0173 0.0047
v  0.0035 0.0273 0.0047
v  -0.0036 0.0273 0.0047
v  -0.0036 0.0173 0.0047
v  0.0035 0.0173 -0.0051
v  0.0035 0.0273 -0.0051
v  -0.0036 0.0173 -0.0051
v  -0.0036 0.0273 -0.0051
# 205 vertices

vn 0.8731 0.0410 -0.4859
vn -0.4424 0.8373 -0.3214
vn -0.7236 0.4472 0.5257
vn 0.0000 -1.0000 -0.0000
vn 0.2916 0.3310 0.8975
vn 0.2999 0.8760 -0.3778
vn 0.1628 0.2634 0.9509
vn -0.5871 -0.0468 -0.8081
vn 0.8779 0.0175 -0.4785
vn 0.3046 0.1684 -0.9375
vn -0.0380 0.8322 -0.5532
vn 0.3559 0.8322 0.4252
vn -0.3405 0.7340 0.5876
vn -0.8540 0.2634 0.4486
vn -0.8540 0.2634 -0.4486
vn 0.5253 0.8499 0.0414
vn 0.9584 0.2481 0.1408
vn 0.3995 0.0622 -0.9146
vn -0.1876 0.7947 0.5774
vn -0.2861 0.9582 0.0000
vn -0.2694 0.4901 0.8290
vn -0.5198 0.1051 0.8478
vn -0.2694 0.4901 -0.8290
vn -0.6772 0.5472 -0.4920
vn -0.6641 0.7340 0.1423
vn -0.7703 0.4760 -0.4244
vn 0.9463 0.0092 0.3232
vn 0.4911 0.7947 -0.3568
vn 0.0000 1.0000 -0.0000
vn -0.9822 0.1876 -0.0000
vn 0.2764 0.4472 -0.8507
vn 0.4536 0.7340 -0.5055
vn 0.9047 0.4088 0.1198
vn 0.6700 0.5605 -0.4868
vn 0.7052 0.4901 0.5124
vn 0.4536 0.7340 0.5055
vn 0.4272 0.2634 0.8649
vn -0.2944 0.8322 0.4699
vn -0.4493 0.8499 0.2753
vn -0.3035 0.1876 -0.9342
vn 0.8364 0.4999 0.2249
vn 0.7027 0.5256 0.4796
vn 0.0000 -0.0000 1.0000
vn -0.4300 0.2657 0.8628
vn -0.2865 0.5256 -0.8010
vn -0.0699 0.7340 -0.6756
vn -0.8717 0.4901 -0.0000
vn -0.8504 0.5256 -0.0250
vn -0.2559 0.5605 0.7876
vn 0.1420 0.9183 0.3696
vn -0.9511 0.0000 -0.3090
vn 0.8550 0.2657 -0.4453
vn 0.8944 0.4472 -0.0000
vn -0.4493 0.8499 -0.2753
vn 0.5253 0.8499 -0.0414
vn 0.7535 0.6355 -0.1681
vn -0.1447 0.8836 -0.4453
vn 0.3788 0.8836 0.2752
vn 0.7052 0.4901 -0.5124
vn -0.5444 0.4999 -0.6736
vn -0.5588 0.0217 -0.8290
vn 0.2941 0.3073 -0.9050
vn -0.1557 0.0962 -0.9831
vn -0.8576 0.2502 0.4494
vn -0.9831 0.0962 0.1557
vn 0.2764 0.4472 0.8507
vn 0.0729 0.6355 0.7686
vn 0.5878 -0.0000 0.8090
vn 0.7947 0.1876 0.5774
vn -0.8306 0.0436 0.5552
vn 0.9794 -0.0767 -0.1868
vn 0.7975 0.4767 0.3698
vn 0.7975 0.4767 0.3699
vn 0.7974 0.4768 0.3698
vn 0.7975 0.4768 0.3698
vn 0.7974 0.4767 0.3699
vn 0.0634 0.2722 0.9602
vn 0.0635 0.2722 0.9601
vn 0.0635 0.2722 0.9602
vn 0.1574 0.8123 0.5617
vn 0.1574 0.8123 0.5616
vn 0.1574 0.8122 0.5617
vn 0.1575 0.8123 0.5616
vn 0.1573 0.8122 0.5617
vn -0.6983 0.5834 0.4147
vn -0.6984 0.5834 0.4147
vn -0.4282 0.9025 -0.0464
vn -0.4281 0.9025 -0.0464
vn -0.4281 0.9025 -0.0463
vn -0.4281 0.9026 -0.0463
vn 0.3885 0.7527 -0.5314
vn 0.3885 0.7528 -0.5314
vn 0.3885 0.7527 -0.5315
vn -0.5920 0.5141 -0.6207
vn -0.5920 0.5142 -0.6207
vn 0.0000 0.0000 1.0000
vn 1.0000 0.0000 -0.0000
vn 0.0000 0.0000 -1.0000
vn -1.0000 0.0000 -0.0000
vn 0.0000 0.9879 0.1553
vn -0.2942 0.9557 -0.0000
vn 0.0000 0.9879 -0.1553
vn 0.2942 0.9557 -0.0000
vn 0.0000 -0.9879 -0.1553
vn -0.2942 -0.9557 -0.0000
vn 0.0000 -0.9879 0.1553
vn 0.2942 -0.9557 -0.0000
# 107 vertex normals

vt 0.5264 0.5747 0.0499
vt 0.5099 0.5000 0.0499
vt 0.6000 0.5000 0.0499
vt 0.9000 0.9119 0.0499
vt 0.8378 0.7575 0.0499
vt 0.9622 0.7575 0.0499
vt 0.1000 0.7357 0.0499
vt 0.0513 0.6688 0.0499
vt 0.1264 0.5747 0.0499
vt 0.9000 0.5000 0.0499
vt 0.8000 0.5000 0.0499
vt 0.8750 0.5000 0.0000
vt 0.3000 0.5000 0.0499
vt 0.3487 0.6688 0.0499
vt 0.2513 0.6688 0.0499
vt 0.5622 0.7575 0.0499
vt 0.7000 0.7357 0.0499
vt 0.5000 0.9119 0.0499
vt 0.4500 0.5000 0.0499
vt 0.5250 0.5000 0.0000
vt 0.2270 0.5891 0.0499
vt 0.8736 0.5747 0.0499
vt 0.6270 0.5891 0.0499
vt 0.7730 0.5891 0.0499
vt 0.7487 0.6688 0.0499
vt 0.6513 0.6688 0.0499
vt 0.7000 0.9119 0.0499
vt 0.3000 0.9119 0.0499
vt 0.3000 0.7357 0.0499
vt 0.4378 0.7575 0.0499
vt 0.1487 0.6688 0.0499
vt 0.2378 0.7575 0.0499
vt 0.0270 0.5891 0.0499
vt 0.9730 0.5891 0.0499
vt 0.5000 0.7357 0.0499
vt 0.4270 0.5891 0.0499
vt 0.7500 0.5000 0.0499
vt 0.6750 0.5000 0.0000
vt 0.1000 0.9119 0.0499
vt -0.1000 0.9119 0.0499
vt 0.0000 0.8524 0.0499
vt 0.1209 0.5000 0.0499
vt 0.2000 0.5000 0.0499
vt 0.8270 0.5891 0.0499
vt 0.4000 0.5000 0.0499
vt 0.4250 0.5000 0.0000
vt 0.0000 1.0000 0.0499
vt -0.0270 0.5891 0.0499
vt 0.0000 0.5000 0.0499
vt 0.0500 0.5000 0.0499
vt 0.0250 0.5000 0.0000
vt 0.0382 0.5000 0.0263
vt 0.5487 0.6688 0.0499
vt 0.3730 0.5891 0.0499
vt 0.3250 0.5000 0.0000
vt 0.7750 0.5000 0.0000
vt -0.0378 0.7575 0.0499
vt 0.9500 0.5000 0.0499
vt 0.9250 0.5000 0.0000
vt 0.8000 1.0000 0.0499
vt 0.6000 1.0000 0.0499
vt 0.5000 1.0000 0.2500
vt 0.3455 0.9755 0.2500
vt 0.2061 0.9045 0.2500
vt 0.0955 0.7939 0.2500
vt 0.0245 0.6545 0.2500
vt 0.0000 0.5000 0.2500
vt 0.0245 0.3455 0.2500
vt 0.0955 0.2061 0.2500
vt 0.2061 0.0955 0.2500
vt 0.3455 0.0245 0.2500
vt 0.5000 0.0000 0.2500
vt 0.6545 0.0245 0.2500
vt 0.7939 0.0955 0.2500
vt 0.9045 0.2061 0.2500
vt 0.9755 0.3455 0.2500
vt 1.0000 0.5000 0.2500
vt 0.9755 0.6545 0.2500
vt 0.9045 0.7939 0.2500
vt 0.7939 0.9045 0.2500
vt 0.6545 0.9755 0.2500
vt 1.0000 0.0000 0.0000
vt 1.0000 1.0000 0.0000
vt 0.0000 1.0000 0.0000
vt 0.0000 0.0000 0.0000
vt 1.0000 0.6353 0.0000
vt 0.0000 0.6353 0.0000
# 87 texture coords

g GeoSphere009
usemtl wire_027177027
s off
f 1/1/1 2/2/1 3/3/1 
f 4/4/2 5/5/2 6/6/2 
f 7/7/3 8/8/3 9/9/3 
f 10/10/4 11/11/4 12/12/4 
f 13/13/5 14/14/5 15/15/5 
f 16/16/6 17/17/6 18/18/6 
f 3/3/4 2/2/4 19/19/4 12/20/4 
f 15/15/7 20/21/7 13/13/7 
f 21/22/8 11/11/8 10/10/8 
f 1/1/9 3/3/9 22/23/9 
f 23/24/10 24/25/10 25/26/10 
f 5/5/11 26/27/11 17/17/11 
f 27/28/12 28/29/12 29/30/12 
f 7/7/13 30/31/13 31/32/13 
f 32/33/14 9/9/14 8/8/14 
f 21/22/15 10/10/15 33/34/15 
f 18/18/16 29/30/16 34/35/16 
f 19/19/17 1/1/17 35/36/17 
f 36/37/4 3/3/4 12/38/4 
f 22/23/18 3/3/18 36/37/18 
f 27/28/19 37/39/19 28/29/19 
f 4/40/20 38/41/20 37/39/20 
f 20/21/21 15/15/21 30/31/21 
f 9/9/22 39/42/22 12/43/22 
f 24/25/23 23/24/23 40/44/23 
f 5/5/24 21/22/24 6/6/24 
f 38/41/25 8/8/25 7/7/25 
f 33/34/26 6/6/26 21/22/26 
f 19/19/4 41/45/4 12/46/4 
f 35/36/27 41/45/27 19/19/27 
f 26/27/28 18/18/28 17/17/28 
f 27/47/29 4/40/29 37/39/29 
f 33/48/30 42/49/30 32/33/30 
f 43/50/4 42/49/4 12/51/4 39/52/4 
f 17/17/31 25/26/31 24/25/31 
f 16/16/32 25/26/32 17/17/32 
f 34/35/33 35/36/33 1/1/33 
f 16/16/34 44/53/34 25/26/34 
f 14/14/35 45/54/35 35/36/35 
f 14/14/36 29/30/36 28/29/36 
f 45/54/37 14/14/37 13/13/37 
f 41/45/4 13/13/4 12/55/4 
f 31/32/38 37/39/38 7/7/38 
f 37/39/39 38/41/39 7/7/39 
f 23/24/40 11/11/40 40/44/40 
f 11/11/4 36/37/4 12/56/4 
f 29/30/41 35/36/41 34/35/41 
f 29/30/42 14/14/42 35/36/42 
f 20/21/43 12/43/43 13/13/43 
f 9/9/44 12/43/44 20/21/44 
f 5/5/45 24/25/45 40/44/45 
f 24/25/46 5/5/46 17/17/46 
f 8/8/47 33/48/47 32/33/47 
f 33/48/48 8/8/48 6/57/48 
f 31/32/49 30/31/49 15/15/49 
f 31/32/50 28/29/50 37/39/50 
f 42/58/4 10/10/4 12/59/4 
f 33/34/51 10/10/51 42/58/51 
f 30/31/44 9/9/44 20/21/44 
f 7/7/3 9/9/3 30/31/3 
f 44/53/52 1/1/52 22/23/52 
f 34/35/53 1/1/53 44/53/53 
f 8/8/25 38/41/25 6/57/25 
f 6/57/54 38/41/54 4/40/54 
f 16/16/55 18/18/55 34/35/55 
f 34/35/56 44/53/56 16/16/56 
f 5/5/57 4/4/57 26/27/57 
f 27/60/29 26/27/29 4/4/29 
f 27/61/29 18/18/29 26/27/29 
f 27/28/58 29/30/58 18/18/58 
f 25/26/10 22/23/10 23/24/10 
f 22/23/59 25/26/59 44/53/59 
f 5/5/60 40/44/60 21/22/60 
f 11/11/61 21/22/61 40/44/61 
f 22/23/62 36/37/62 23/24/62 
f 23/24/63 36/37/63 11/11/63 
f 32/33/64 43/50/64 9/9/64 
f 32/33/65 42/49/65 43/50/65 
f 28/29/66 15/15/66 14/14/66 
f 31/32/67 15/15/67 28/29/67 
f 41/45/68 45/54/68 13/13/68 
f 45/54/69 41/45/69 35/36/69 
f 9/9/70 43/50/70 39/42/70 
f 1/1/71 19/19/71 2/2/71 
s 1
f 46/62/72 47/63/72 48/64/73 49/65/72 50/66/72 51/67/72 52/68/74 53/69/72 54/70/75 55/71/72 56/72/76 57/73/72 58/74/72 59/75/72 60/76/72 61/77/72 62/78/74 63/79/72 64/80/72 65/81/72 
f 66/62/77 67/63/78 68/64/78 69/65/78 70/66/79 71/67/78 72/68/79 73/69/78 74/70/78 75/71/78 76/72/78 77/73/78 78/74/79 79/75/78 80/76/78 81/77/78 82/78/78 83/79/78 84/80/78 85/81/78 
f 86/62/80 87/63/80 88/64/81 89/65/80 90/66/81 91/67/80 92/68/82 93/69/80 94/70/80 95/71/80 96/72/83 97/73/80 98/74/84 99/75/80 100/76/81 101/77/80 102/78/80 103/79/80 104/80/81 105/81/80 
f 106/62/85 107/63/85 108/64/86 109/65/85 110/66/86 111/67/86 112/68/85 113/69/85 114/70/85 115/71/85 116/72/85 117/73/85 118/74/85 119/75/85 120/76/85 121/77/85 122/78/86 123/79/85 124/80/85 125/81/85 
f 126/62/87 127/63/88 128/64/88 129/65/88 130/66/88 131/67/88 132/68/88 133/69/88 134/70/88 135/71/88 136/72/88 137/73/88 138/74/88 139/75/88 140/76/89 141/77/88 142/78/90 143/79/88 144/80/88 145/81/88 
f 146/62/91 147/81/91 148/80/91 149/79/91 150/78/92 151/77/91 152/76/93 153/75/91 154/74/93 155/73/91 156/72/93 157/71/91 158/70/91 159/69/91 160/68/92 161/67/91 162/66/92 163/65/91 164/64/93 165/63/91 
f 166/62/94 167/81/94 168/80/94 169/79/94 170/78/94 171/77/94 172/76/94 173/75/94 174/74/94 175/73/94 176/72/95 177/71/94 178/70/94 179/69/94 180/68/94 181/67/94 182/66/94 183/65/94 184/64/94 185/63/94 
s 2
f 186/82/4 187/83/4 188/84/4 189/85/4 
s 4
f 190/85/29 191/82/29 192/83/29 193/84/29 
s 8
f 186/85/96 189/82/96 194/86/96 195/87/96 
s 16
f 189/85/97 188/82/97 196/86/97 194/87/97 
s 32
f 188/85/98 187/82/98 197/86/98 196/87/98 
s 64
f 187/85/99 186/82/99 195/86/99 197/87/99 
s 8
f 198/86/96 199/83/96 200/84/96 201/87/96 
s 16
f 202/86/97 203/83/97 199/84/97 198/87/97 
s 32
f 204/86/98 205/83/98 203/84/98 202/87/98 
s 64
f 201/86/99 200/83/99 205/84/99 204/87/99 
s off
f 191/83/100 190/84/100 200/84/100 199/83/100 
f 190/83/101 193/84/101 205/84/101 200/83/101 
f 193/83/102 192/84/102 203/84/102 205/83/102 
f 192/83/103 191/84/103 199/84/103 203/83/103 
f 195/87/104 194/86/104 198/86/104 201/87/104 
f 194/87/105 196/86/105 202/86/105 198/87/105 
f 196/87/106 197/86/106 204/86/106 202/87/106 
f 197/87/107 195/86/107 201/86/107 204/87/107 
# 27 polygons - 82 triangles

