# 3ds Max Wavefront OBJ Exporter v0.97b - (c)2007 guruware
# File Created: 01.02.2019 11:24:11

mtllib montagne1.mtl

#
# object Box009
#

v  -0.1018 -0.0000 0.1007
v  -0.1291 -0.0000 -0.0272
v  -0.0180 -0.0000 -0.0253
v  -0.0503 -0.0000 0.1300
v  -0.0055 0.2405 0.0019
v  -0.0051 0.2405 0.0019
v  -0.0010 0.2405 -0.0068
v  -0.0055 0.2405 -0.0068
v  -0.0337 0.1009 0.0833
v  -0.0661 0.1009 0.0700
v  0.1090 -0.0000 0.1007
v  0.1292 -0.0000 -0.0272
v  0.0830 0.1009 -0.0179
v  0.0733 0.1009 0.0700
v  0.1090 -0.0000 -0.1141
v  0.0060 -0.0000 -0.1281
v  0.0051 0.1009 -0.0803
v  0.0733 0.1009 -0.0774
v  -0.1018 -0.0000 -0.1141
v  -0.0793 0.1009 -0.0179
v  -0.0661 0.1009 -0.0774
v  0.0057 -0.0000 -0.0249
v  0.0003 0.2405 -0.0026
v  0.0062 0.2405 0.0007
v  0.0062 0.2405 -0.0068
v  0.0005 0.2405 -0.0068
v  0.0270 -0.0000 0.1164
v  0.0152 0.1009 0.0673
v  -0.0140 -0.0000 -0.1314
v  -0.0081 0.1009 -0.0857
v  -0.0002 0.2405 -0.0104
v  -0.0018 0.2405 -0.0121
v  0.0062 0.2405 -0.0117
v  -0.0327 -0.0048 0.1108
v  0.0223 -0.0048 0.1156
v  0.0140 0.0961 0.0714
v  -0.0160 0.0961 0.0691
v  -0.0055 0.2405 -0.0121
v  0.0041 0.1864 0.0205
v  -0.0172 0.1864 0.0378
v  -0.0006 0.1819 0.0287
v  0.0060 0.1819 0.0287
v  -0.0302 0.1080 0.0741
v  -0.0135 0.1035 0.0611
v  -0.0312 0.1864 0.0392
v  -0.0208 0.1864 0.0291
v  -0.0223 0.1864 0.0293
v  0.0031 0.1864 0.0097
v  0.0380 0.1864 0.0392
v  0.0290 0.1864 0.0240
v  0.0380 0.1864 -0.0088
v  0.0290 0.1864 -0.0088
v  0.0380 0.1864 -0.0410
v  0.0290 0.1864 -0.0300
v  0.0041 0.1864 -0.0341
v  0.0010 0.1864 -0.0243
v  -0.0024 0.1864 -0.0410
v  -0.0063 0.1864 -0.0320
v  -0.0312 0.1864 -0.0410
v  -0.0223 0.1864 -0.0320
v  -0.0312 0.1864 -0.0088
v  -0.0223 0.1864 -0.0088
v  -0.0590 0.1080 0.0631
v  0.0739 0.1080 -0.0160
v  0.0657 0.1080 0.0631
v  0.0047 0.1080 -0.0712
v  0.0657 0.1080 -0.0696
v  -0.0700 0.1080 -0.0160
v  -0.0590 0.1080 -0.0696
v  0.0132 0.1080 0.0587
v  -0.0070 0.1080 -0.0766
v  0.0124 0.1035 0.0631
# 72 vertices

vn 0.0000 -1.0000 -0.0000
vn 0.0000 1.0000 -0.0000
vn -0.4102 0.4172 0.8110
vn 0.9145 0.3843 0.1267
vn 0.0901 0.3985 -0.9127
vn -0.8725 0.4249 -0.2411
vn 0.0853 0.3838 0.9195
vn 0.2351 0.4038 -0.8841
vn 0.8958 0.4051 -0.1829
vn -0.9009 0.3998 0.1689
vn -0.0766 0.3931 0.9163
vn -0.1590 0.4013 -0.9020
vn -0.1478 0.4029 0.9032
vn 0.3730 0.7077 0.6001
vn 0.5803 0.2442 0.7769
vn 0.0000 1.0000 0.0000
vn -0.0000 1.0000 0.0000
vn 0.0888 0.4279 0.8995
vn 0.6171 0.2047 0.7598
vn -0.4755 0.1715 0.8628
vn 0.9216 0.3881 -0.0000
vn -0.1941 0.2411 -0.9509
vn 0.7138 0.1892 -0.6743
vn 0.0000 0.3456 -0.9384
vn -0.9551 0.2962 -0.0000
vn -0.2008 0.3956 0.8962
vn 0.9229 0.3806 0.0591
vn -0.0511 0.3778 -0.9245
vn -0.9046 0.4100 -0.1162
vn -0.2456 0.3061 0.9198
vn 0.5210 0.3480 -0.7794
vn 0.9161 0.3914 -0.0870
vn -0.9147 0.3962 0.0793
vn -0.0548 0.3929 0.9180
vn -0.0796 0.3910 -0.9169
vn 0.9957 0.0910 -0.0173
vn 0.6208 0.4809 0.6192
vn -0.2203 0.8013 0.5563
vn 0.6346 0.7699 0.0678
vn 0.0227 0.7697 -0.6380
vn -0.6038 0.7866 -0.1291
vn -0.0441 0.7253 0.6871
vn 0.2585 0.7570 -0.6001
vn 0.6124 0.7846 -0.0967
vn -0.6342 0.7677 0.0918
vn -0.0505 0.7441 0.6662
vn -0.0859 0.7836 -0.6152
vn -0.3590 0.6724 0.6473
vn 0.7017 0.1853 0.6880
# 49 vertex normals

vt 1.0000 0.0000 0.0000
vt 1.0000 0.5982 0.0000
vt 0.5841 0.5982 0.0000
vt 0.5841 0.0000 0.0000
vt 0.0000 0.0000 0.0000
vt 0.4159 0.0000 0.0000
vt 0.4159 0.5982 0.0000
vt 0.0000 0.5982 0.0000
vt 0.4159 0.5189 0.0000
vt 0.0000 0.5189 0.0000
vt 0.5982 0.0000 0.0000
vt 0.5982 0.5189 0.0000
vt 0.4897 0.0000 0.0000
vt 0.4897 0.5189 0.0000
vt 0.4018 0.0000 0.0000
vt 0.4018 0.5189 0.0000
vt 0.4897 1.0000 0.0000
vt 0.0000 1.0000 0.0000
vt 0.4897 0.5982 0.0000
vt 0.5103 0.0000 0.0000
vt 0.5103 0.5982 0.0000
vt 1.0000 0.5189 0.0000
vt 0.5103 0.5189 0.0000
vt 0.5841 0.5189 0.0000
vt 1.0000 1.0000 0.0000
vt 0.5841 1.0000 0.0000
vt 0.5103 1.0000 0.0000
vt 0.4159 1.0000 0.0000
vt 0.4159 0.5732 0.0000
vt 0.0000 0.5732 0.0000
vt 0.5982 0.5732 0.0000
vt 0.5982 1.0000 0.0000
vt 0.4897 0.5732 0.0000
vt 0.4018 0.5732 0.0000
vt 0.4018 1.0000 0.0000
vt 1.0000 0.5732 0.0000
vt 0.5103 0.5732 0.0000
vt 0.5841 0.5732 0.0000
# 38 texture coords

g Box009
usemtl wire_135110008
s off
f 1/1/1 2/2/1 3/3/1 4/4/1 
f 5/5/2 6/6/2 7/7/2 8/8/2 
f 1/5/3 4/6/3 9/9/3 10/10/3 
f 11/5/4 12/11/4 13/12/4 14/10/4 
f 15/5/5 16/13/5 17/14/5 18/10/5 
f 19/5/6 2/15/6 20/16/6 21/10/6 
f 16/17/1 15/18/1 12/8/1 22/19/1 
f 23/20/2 24/1/2 25/2/2 26/21/2 
f 27/20/7 11/1/7 14/22/7 28/23/7 
f 16/13/8 29/4/8 30/24/8 17/14/8 
f 2/2/1 19/25/1 29/26/1 3/3/1 
f 26/21/2 31/27/2 32/28/2 7/7/2 
f 12/11/9 15/1/9 18/22/9 13/12/9 
f 2/15/10 1/1/10 10/22/10 20/16/10 
f 12/8/1 11/5/1 27/13/1 22/19/1 
f 25/2/2 33/25/2 31/27/2 26/21/2 
f 6/6/2 23/20/2 26/21/2 7/7/2 
f 34/6/11 35/20/11 36/23/11 37/9/11 
f 29/4/12 19/1/12 21/22/12 30/24/12 
f 29/26/1 16/17/1 22/19/1 3/3/1 
f 32/28/2 38/18/2 8/8/2 7/7/2 
f 27/20/13 28/23/13 36/23/13 35/20/13 
f 39/27/14 40/28/14 41/28/14 42/27/14 
f 40/28/15 43/29/15 44/29/15 41/28/15 
f 45/5/16 40/6/16 46/6/16 47/5/16 
f 40/6/16 39/20/16 48/20/16 46/6/16 
f 39/20/17 49/1/17 50/1/17 48/20/17 
f 49/1/2 51/2/2 52/2/2 50/1/2 
f 51/2/2 53/25/2 54/25/2 52/2/2 
f 53/25/2 55/27/2 56/27/2 54/25/2 
f 55/27/2 57/28/2 58/28/2 56/27/2 
f 57/28/2 59/18/2 60/18/2 58/28/2 
f 59/18/2 61/8/2 62/8/2 60/18/2 
f 61/8/2 45/5/2 47/5/2 62/8/2 
f 47/5/18 46/6/18 6/6/18 5/5/18 
f 46/6/19 48/20/19 23/20/19 6/6/19 
f 48/20/20 50/1/20 24/1/20 23/20/20 
f 50/1/21 52/2/21 25/2/21 24/1/21 
f 52/2/21 54/25/21 33/25/21 25/2/21 
f 54/25/22 56/27/22 31/27/22 33/25/22 
f 56/27/23 58/28/23 32/28/23 31/27/23 
f 58/28/24 60/18/24 38/18/24 32/28/24 
f 60/18/25 62/8/25 8/8/25 38/18/25 
f 62/8/25 47/5/25 5/5/25 8/8/25 
f 43/29/26 40/28/26 45/18/26 63/30/26 
f 64/31/27 51/32/27 49/18/27 65/30/27 
f 66/33/28 55/17/28 53/18/28 67/30/28 
f 68/34/29 61/35/29 59/18/29 69/30/29 
f 65/36/30 49/25/30 39/27/30 70/37/30 
f 71/38/31 57/26/31 55/17/31 66/33/31 
f 67/36/32 53/25/32 51/32/32 64/31/32 
f 63/36/33 45/25/33 61/35/33 68/34/33 
f 72/37/34 42/27/34 41/28/34 44/29/34 
f 69/36/35 59/25/35 57/26/35 71/38/35 
f 70/37/36 39/27/36 42/27/36 72/37/36 
f 43/29/37 9/9/37 37/9/37 44/29/37 
f 9/9/38 43/29/38 63/30/38 10/10/38 
f 13/12/39 64/31/39 65/30/39 14/10/39 
f 17/14/40 66/33/40 67/30/40 18/10/40 
f 20/16/41 68/34/41 69/30/41 21/10/41 
f 14/22/42 65/36/42 70/37/42 28/23/42 
f 30/24/43 71/38/43 66/33/43 17/14/43 
f 18/22/44 67/36/44 64/31/44 13/12/44 
f 10/22/45 63/36/45 68/34/45 20/16/45 
f 36/23/46 72/37/46 44/29/46 37/9/46 
f 21/22/47 69/36/47 71/38/47 30/24/47 
f 28/23/48 70/37/48 72/37/48 36/23/48 
f 9/9/49 4/6/49 34/6/49 37/9/49 
# 68 polygons

