# 3ds Max Wavefront OBJ Exporter v0.97b - (c)2007 guruware
# File Created: 01.02.2019 11:14:33

mtllib rocher.mtl

#
# object GeoSphere008
#

v  0.0427 0.0133 0.0090
v  0.0364 0.0053 0.0228
v  0.0345 -0.0022 -0.0063
v  0.0189 -0.0071 -0.0017
v  0.0020 0.0007 0.0116
v  0.0094 0.0007 -0.0133
v  0.0111 0.0237 -0.0030
v  0.0052 0.0133 -0.0130
v  0.0052 0.0133 0.0228
v  0.0310 0.0133 -0.0174
v  0.0175 0.0053 -0.0199
v  0.0189 -0.0071 0.0116
v  0.0206 0.0007 0.0272
v  0.0227 0.0256 0.0116
v  0.0211 0.0179 0.0272
v  0.0241 0.0133 0.0298
v  0.0365 0.0182 -0.0080
v  0.0211 0.0179 -0.0174
v  0.0406 0.0053 -0.0063
v  0.0227 0.0256 -0.0017
v  -0.0018 0.0096 0.0049
v  -0.0484 0.0134 0.0116
v  -0.0393 0.0272 0.0339
v  -0.0373 0.0394 -0.0133
v  -0.0129 0.0496 -0.0058
v  0.0155 0.0395 0.0157
v  0.0035 0.0384 -0.0246
v  0.0040 0.0010 -0.0080
v  0.0120 0.0187 -0.0240
v  0.0120 0.0187 0.0339
v  -0.0295 0.0150 -0.0312
v  -0.0089 0.0299 -0.0353
v  -0.0129 0.0496 0.0157
v  -0.0145 0.0368 0.0411
v  -0.0144 -0.0037 0.0157
v  -0.0128 0.0090 0.0411
v  -0.0184 0.0160 0.0452
v  -0.0376 0.0064 -0.0159
v  -0.0128 0.0090 -0.0312
v  -0.0462 0.0266 -0.0133
v  -0.0144 -0.0037 -0.0058
v  0.0228 0.0256 0.0049
# 42 vertices

vn 0.9022 -0.4206 0.0961
vn -0.6145 -0.7610 -0.2080
vn -0.9213 0.3888 -0.0000
vn 0.4055 -0.3332 -0.8512
vn -0.4296 -0.6952 0.5763
vn -0.4183 0.7484 0.5147
vn 0.5620 0.5996 0.5697
vn 0.1921 0.8951 -0.4024
vn 0.2216 -0.8321 -0.5085
vn 0.5860 -0.7693 0.2546
vn 0.8174 -0.5052 0.2768
vn 0.8254 0.5558 -0.0986
vn -0.5751 0.8181 -0.0000
vn -0.5629 -0.3363 0.7550
vn 0.6533 0.3668 0.6623
vn -0.3084 -0.0606 0.9493
vn 0.0717 0.1160 -0.9907
vn -0.8683 -0.2080 -0.4503
vn -0.0158 0.4659 -0.8847
vn -0.5437 0.7709 0.3317
vn 0.3684 0.5960 -0.7135
vn 0.3035 -0.1876 0.9342
vn 0.4183 -0.7484 0.5147
vn -0.5257 -0.8507 -0.0000
vn -0.4042 0.6021 -0.6886
vn -0.3035 0.1876 -0.9342
vn -0.2764 -0.4472 -0.8507
vn -0.8619 -0.4147 -0.2918
vn -0.9021 -0.0772 0.4245
vn -0.2209 0.9753 -0.0000
vn 0.6391 0.7691 0.0000
vn 0.7017 0.5256 0.4810
vn -0.3035 0.1876 0.9342
vn 0.4902 -0.3030 -0.8172
vn 0.7759 0.1357 -0.6161
vn -0.9306 0.3538 0.0944
vn 0.5357 0.8171 -0.2130
vn 0.9468 -0.3219 -0.0000
vn -0.4398 0.3035 -0.8453
vn 0.3518 0.7310 0.5847
vn 0.4956 -0.7060 0.5059
vn -0.4983 -0.6448 0.5796
vn -0.0873 -0.9101 -0.4051
vn -0.3144 0.8052 -0.5027
vn -0.6578 0.7110 0.2485
vn -0.8556 0.4410 0.2711
vn -0.7761 -0.6224 -0.1010
vn 0.6519 -0.7583 -0.0000
vn 0.5267 0.3754 0.7627
vn -0.6159 -0.4131 0.6709
vn 0.3005 0.0805 0.9504
vn -0.0579 -0.1202 -0.9911
vn 0.8497 0.2665 -0.4551
vn 0.0701 -0.4626 -0.8838
vn 0.6178 -0.7164 0.3243
vn -0.3004 -0.6243 -0.7211
vn -0.3234 0.1667 0.9315
vn -0.4956 0.7060 0.5059
vn 0.4337 0.9011 -0.0000
vn 0.4669 -0.5660 -0.6795
vn 0.3234 -0.1667 -0.9315
vn 0.2244 0.4662 -0.8557
vn 0.8262 0.4784 -0.2976
vn 0.8941 0.1362 0.4266
vn 0.3296 -0.9441 -0.0000
vn -0.5606 -0.8281 0.0000
vn -0.6501 -0.5804 0.4904
vn 0.3234 -0.1667 0.9315
vn -0.5199 0.2680 -0.8111
vn -0.7620 -0.1868 -0.6200
# 70 vertex normals

vt 0.0188 0.4336 0.0820
vt 0.1281 0.5756 0.0820
vt -0.1000 0.7357 0.0820
vt 0.6500 0.9119 0.0820
vt 0.4563 0.6711 0.0820
vt 0.6563 0.6711 0.0820
vt 0.6000 0.1762 0.0820
vt 0.6281 0.4244 0.0820
vt 0.3719 0.4244 0.0820
vt 0.8281 0.4244 0.0820
vt 0.9000 0.7357 0.0820
vt 0.7281 0.5756 0.0820
vt 0.3500 0.9119 0.0820
vt 0.2563 0.6711 0.0820
vt 0.2500 0.0881 0.0820
vt 0.2438 0.3289 0.0820
vt 0.1500 0.0881 0.0820
vt 0.2281 0.4244 0.0820
vt 0.9000 0.3238 0.0820
vt 0.7563 0.3289 0.0820
vt 0.7500 0.9119 0.0820
vt 0.8000 1.0000 0.0820
vt 0.0500 0.9119 0.0820
vt -0.0750 0.5738 0.0820
vt -0.1500 0.0881 0.0820
vt -0.1000 0.3238 0.0820
vt 0.5000 0.4928 0.0820
vt 0.7500 0.0881 0.0820
vt 0.2500 0.9119 0.0820
vt 0.5500 0.0881 0.0820
vt 0.4500 0.0881 0.0820
vt 0.9250 0.5738 0.0820
# 32 texture coords

g GeoSphere008
usemtl wire_115115115
s off
f 1/1/1 2/2/1 3/3/1 
f 4/4/2 5/5/2 6/6/2 
f 7/7/3 8/8/3 9/9/3 
f 10/10/4 3/11/4 11/12/4 
f 12/13/5 13/14/5 5/5/5 
f 14/15/6 9/9/6 15/16/6 
f 14/17/7 16/18/7 1/1/7 
f 17/19/8 18/20/8 7/7/8 
f 4/21/9 11/12/9 3/11/9 12/22/9 
f 12/23/10 3/3/10 2/2/10 
f 1/1/11 3/3/11 19/24/11 
f 20/25/12 1/1/12 19/24/12 17/26/12 
f 21/27/13 9/9/13 8/8/13 
f 9/9/14 5/5/14 13/14/14 
f 2/2/15 1/1/15 16/18/15 
f 13/14/16 16/18/16 9/9/16 
f 18/20/17 10/10/17 11/12/17 
f 8/8/18 6/6/18 21/27/18 
f 20/28/19 17/19/19 7/7/19 
f 14/15/20 7/7/20 9/9/20 
f 10/10/21 18/20/21 17/19/21 
f 16/18/22 13/14/22 2/2/22 
f 12/29/23 2/2/23 13/14/23 
f 12/13/24 5/5/24 4/4/24 
f 7/7/25 18/20/25 8/8/25 
f 8/8/26 18/20/26 11/12/26 
f 4/4/27 6/6/27 8/8/27 11/12/27 
f 6/6/28 5/5/28 21/27/28 
f 21/27/29 5/5/29 9/9/29 
f 20/30/30 7/7/30 14/31/30 
f 14/17/31 1/1/31 20/25/31 
f 15/16/32 16/18/32 14/17/32 
f 16/18/33 15/16/33 9/9/33 
f 3/11/34 10/10/34 19/32/34 
f 10/10/35 17/19/35 19/32/35 
f 22/1/36 23/2/36 24/3/36 
f 25/4/37 26/5/37 27/6/37 
f 28/7/38 29/8/38 30/9/38 
f 31/10/39 24/11/39 32/12/39 
f 33/13/40 34/14/40 26/5/40 
f 35/15/41 30/9/41 36/16/41 
f 35/17/42 37/18/42 22/1/42 
f 38/19/43 39/20/43 28/7/43 
f 25/21/44 32/12/44 24/11/44 33/22/44 
f 33/23/45 24/3/45 23/2/45 
f 22/1/46 24/3/46 40/24/46 
f 41/25/47 22/1/47 40/24/47 38/26/47 
f 42/27/48 30/9/48 29/8/48 
f 30/9/49 26/5/49 34/14/49 
f 23/2/50 22/1/50 37/18/50 
f 34/14/51 37/18/51 30/9/51 
f 39/20/52 31/10/52 32/12/52 
f 29/8/53 27/6/53 42/27/53 
f 41/28/54 38/19/54 28/7/54 
f 35/15/55 28/7/55 30/9/55 
f 31/10/56 39/20/56 38/19/56 
f 37/18/57 34/14/57 23/2/57 
f 33/29/58 23/2/58 34/14/58 
f 33/13/59 26/5/59 25/4/59 
f 28/7/60 39/20/60 29/8/60 
f 29/8/61 39/20/61 32/12/61 
f 25/4/62 27/6/62 29/8/62 32/12/62 
f 27/6/63 26/5/63 42/27/63 
f 42/27/64 26/5/64 30/9/64 
f 41/30/65 28/7/65 35/31/65 
f 35/17/66 22/1/66 41/25/66 
f 36/16/67 37/18/67 35/17/67 
f 37/18/68 36/16/68 30/9/68 
f 24/11/69 31/10/69 40/32/69 
f 31/10/70 38/19/70 40/32/70 
# 6 polygons - 64 triangles

