# 3ds Max Wavefront OBJ Exporter v0.97b - (c)2007 guruware
# File Created: 01.02.2019 11:15:18

mtllib rocher2.mtl

#
# object Object007
#

v  -0.0273 0.0124 -0.0207
v  -0.0386 0.0262 0.0006
v  -0.0011 0.0476 -0.0282
v  0.0145 0.0603 -0.0047
v  0.0106 0.0384 0.0308
v  0.0337 0.0374 -0.0042
v  0.0213 0.0000 0.0069
v  0.0388 0.0177 0.0027
v  -0.0056 0.0177 0.0399
v  0.0176 0.0140 -0.0338
v  0.0340 0.0442 -0.0206
v  -0.0076 0.0486 0.0091
v  -0.0281 0.0358 0.0242
v  -0.0086 -0.0047 0.0080
v  -0.0270 0.0080 0.0255
v  -0.0338 0.0150 0.0238
v  0.0007 0.0054 -0.0302
v  0.0283 0.0080 -0.0210
v  -0.0068 0.0256 -0.0350
v  0.0079 -0.0047 -0.0058
v  0.0236 0.0246 0.0296
# 21 vertices

vn -0.7262 0.2936 -0.6217
vn 0.7633 0.4688 0.4446
vn 0.6086 -0.3219 0.7253
vn 0.2898 0.1974 -0.9365
vn -0.2218 0.7310 0.6454
vn -0.0690 -0.7060 0.7048
vn -0.7643 -0.6448 -0.0091
vn 0.2542 -0.9101 -0.3273
vn -0.2037 0.8501 -0.4856
vn -0.6948 0.7116 -0.1046
vn -0.7142 0.2855 -0.6391
vn -0.4215 -0.6224 -0.6595
vn 0.4190 -0.7583 0.4994
vn -0.2457 0.3754 0.8937
vn -0.9098 -0.4131 -0.0405
vn -0.5349 0.0805 0.8411
vn 0.7415 -0.0715 -0.6671
vn 0.8948 0.2665 0.3584
vn 0.7221 -0.4626 -0.5144
vn 0.1487 -0.7164 0.6817
vn 0.3593 -0.6243 -0.6937
vn -0.9214 0.1667 0.3510
vn -0.7061 0.7060 -0.0544
vn -0.2064 0.7412 0.6388
vn 0.8206 -0.5660 -0.0791
vn 0.9164 -0.0948 -0.3888
vn 0.8998 0.3917 0.1921
vn 0.7590 0.4784 0.4416
vn 0.2479 0.1362 0.9592
vn 0.2118 -0.9441 0.2525
vn -0.3603 -0.8281 -0.4294
vn -0.7936 -0.5804 -0.1828
vn -0.5057 -0.1667 0.8465
vn 0.2292 0.1763 -0.9573
vn -0.0148 -0.1868 -0.9823
# 35 vertex normals

vt 0.0188 0.4336 0.0820
vt 0.1281 0.5756 0.0820
vt -0.1000 0.7357 0.0820
vt 0.6500 0.9119 0.0820
vt 0.4563 0.6711 0.0820
vt 0.6563 0.6711 0.0820
vt 0.6000 0.1762 0.0820
vt 0.6281 0.4244 0.0820
vt 0.3719 0.4244 0.0820
vt 0.8281 0.4244 0.0820
vt 0.9000 0.7357 0.0820
vt 0.7281 0.5756 0.0820
vt 0.3500 0.9119 0.0820
vt 0.2563 0.6711 0.0820
vt 0.2500 0.0881 0.0820
vt 0.2438 0.3289 0.0820
vt 0.1500 0.0881 0.0820
vt 0.2281 0.4244 0.0820
vt 0.9000 0.3238 0.0820
vt 0.7563 0.3289 0.0820
vt 0.7500 0.9119 0.0820
vt 0.8000 1.0000 0.0820
vt 0.0500 0.9119 0.0820
vt -0.0750 0.5738 0.0820
vt -0.1500 0.0881 0.0820
vt -0.1000 0.3238 0.0820
vt 0.5000 0.4928 0.0820
vt 0.7500 0.0881 0.0820
vt 0.2500 0.9119 0.0820
vt 0.5500 0.0881 0.0820
vt 0.4500 0.0881 0.0820
vt 0.9250 0.5738 0.0820
# 32 texture coords

g Object007
usemtl wire_115115115
s off
f 1/1/1 2/2/1 3/3/1 
f 4/4/2 5/5/2 6/6/2 
f 7/7/3 8/8/3 9/9/3 
f 10/10/4 3/11/4 11/12/4 
f 12/13/5 13/14/5 5/5/5 
f 14/15/6 9/9/6 15/16/6 
f 14/17/7 16/18/7 1/1/7 
f 17/19/8 18/20/8 7/7/8 
f 4/21/9 11/12/9 3/11/9 12/22/9 
f 12/23/10 3/3/10 2/2/10 
f 1/1/11 3/3/11 19/24/11 
f 20/25/12 1/1/12 19/24/12 17/26/12 
f 21/27/13 9/9/13 8/8/13 
f 9/9/14 5/5/14 13/14/14 
f 2/2/15 1/1/15 16/18/15 
f 13/14/16 16/18/16 9/9/16 
f 18/20/17 10/10/17 11/12/17 
f 8/8/18 6/6/18 21/27/18 
f 20/28/19 17/19/19 7/7/19 
f 14/15/20 7/7/20 9/9/20 
f 10/10/21 18/20/21 17/19/21 
f 16/18/22 13/14/22 2/2/22 
f 12/29/23 2/2/23 13/14/23 
f 12/13/24 5/5/24 4/4/24 
f 7/7/25 18/20/25 8/8/25 
f 8/8/26 18/20/26 11/12/26 
f 4/4/27 6/6/27 8/8/27 11/12/27 
f 6/6/28 5/5/28 21/27/28 
f 21/27/29 5/5/29 9/9/29 
f 20/30/30 7/7/30 14/31/30 
f 14/17/31 1/1/31 20/25/31 
f 15/16/32 16/18/32 14/17/32 
f 16/18/33 15/16/33 9/9/33 
f 3/11/34 10/10/34 19/32/34 
f 10/10/35 17/19/35 19/32/35 
# 3 polygons - 32 triangles

