# 3ds Max Wavefront OBJ Exporter v0.97b - (c)2007 guruware
# File Created: 01.02.2019 11:04:03

mtllib sapin.mtl

#
# object Pyramid001
#

v  -0.0000 0.1498 -0.0015
v  -0.0508 0.0334 0.0493
v  0.0508 0.0334 0.0493
v  0.0508 0.0334 -0.0523
v  -0.0508 0.0334 -0.0523
v  -0.0000 0.0334 -0.0015
v  -0.0000 0.1767 -0.0015
v  -0.0409 0.0829 0.0394
v  0.0409 0.0829 0.0394
v  0.0409 0.0829 -0.0424
v  -0.0409 0.0829 -0.0424
v  -0.0000 0.0829 -0.0015
v  -0.0000 0.2035 -0.0015
v  -0.0340 0.1256 0.0325
v  0.0340 0.1256 0.0325
v  0.0340 0.1256 -0.0355
v  -0.0340 0.1256 -0.0355
v  -0.0000 0.1256 -0.0015
# 18 vertices

vn 0.0000 0.4472 0.8944
vn 0.8944 0.4472 -0.0000
vn 0.0000 0.4472 -0.8944
vn -0.8944 0.4472 -0.0000
vn 0.0000 -1.0000 -0.0000
# 5 vertex normals

vt 0.5000 1.0000 0.0000
vt 0.0000 0.0000 0.0000
vt 1.0000 0.0000 0.0000
vt 0.0000 1.0000 0.0000
vt 0.5000 0.5000 0.0000
vt 1.0000 1.0000 0.0000
# 6 texture coords

g Pyramid001
usemtl wire_006135058
s 4
f 1/1/1 2/2/1 3/3/1 
s 2
f 1/1/2 3/2/2 4/3/2 
s 16
f 1/1/3 4/2/3 5/3/3 
s 32
f 1/1/4 5/2/4 2/3/4 
s 8
f 2/4/5 6/5/5 3/6/5 
f 3/6/5 6/5/5 4/3/5 
f 4/3/5 6/5/5 5/2/5 
f 5/2/5 6/5/5 2/4/5 
s 4
f 7/1/1 8/2/1 9/3/1 
s 2
f 7/1/2 9/2/2 10/3/2 
s 16
f 7/1/3 10/2/3 11/3/3 
s 32
f 7/1/4 11/2/4 8/3/4 
s 8
f 8/4/5 12/5/5 9/6/5 
f 9/6/5 12/5/5 10/3/5 
f 10/3/5 12/5/5 11/2/5 
f 11/2/5 12/5/5 8/4/5 
s 4
f 13/1/1 14/2/1 15/3/1 
s 2
f 13/1/2 15/2/2 16/3/2 
s 16
f 13/1/3 16/2/3 17/3/3 
s 32
f 13/1/4 17/2/4 14/3/4 
s 8
f 14/4/5 18/5/5 15/6/5 
f 15/6/5 18/5/5 16/3/5 
f 16/3/5 18/5/5 17/2/5 
f 17/2/5 18/5/5 14/4/5 
# 0 polygons - 24 triangles

#
# object Box001
#

v  -0.0123 0.0003 0.0095
v  -0.0123 0.0003 -0.0122
v  0.0121 0.0003 -0.0122
v  0.0121 0.0003 0.0095
v  -0.0123 0.0451 0.0095
v  0.0121 0.0451 0.0095
v  0.0121 0.0451 -0.0122
v  -0.0123 0.0451 -0.0122
# 8 vertices

vn 0.0000 -1.0000 -0.0000
vn 0.0000 1.0000 -0.0000
vn 0.0000 0.0000 1.0000
vn 1.0000 0.0000 -0.0000
vn 0.0000 0.0000 -1.0000
vn -1.0000 0.0000 -0.0000
# 6 vertex normals

vt 1.0000 0.0000 0.0000
vt 1.0000 1.0000 0.0000
vt 0.0000 1.0000 0.0000
vt 0.0000 0.0000 0.0000
# 4 texture coords

g Box001
usemtl wire_141007058
s 2
f 19/7/6 20/8/6 21/9/6 22/10/6 
s 4
f 23/10/7 24/7/7 25/8/7 26/9/7 
s 8
f 19/10/8 22/7/8 24/8/8 23/9/8 
s 16
f 22/10/9 21/7/9 25/8/9 24/9/9 
s 32
f 21/10/10 20/7/10 26/8/10 25/9/10 
s 64
f 20/10/11 19/7/11 23/8/11 26/9/11 
# 6 polygons

#
# object Pyramid002
#

v  -0.0000 0.1498 -0.0015
v  -0.0000 0.0334 0.0703
v  0.0718 0.0334 -0.0015
v  -0.0000 0.0334 -0.0733
v  -0.0718 0.0334 -0.0015
v  -0.0000 0.0334 -0.0015
v  -0.0000 0.1767 -0.0015
v  -0.0000 0.0829 0.0563
v  0.0578 0.0829 -0.0015
v  -0.0000 0.0829 -0.0593
v  -0.0579 0.0829 -0.0015
v  -0.0000 0.0829 -0.0015
v  -0.0000 0.2035 -0.0015
v  -0.0000 0.1256 0.0465
v  0.0480 0.1256 -0.0015
v  -0.0000 0.1256 -0.0496
v  -0.0481 0.1256 -0.0015
v  -0.0000 0.1256 -0.0015
# 18 vertices

vn 0.6325 0.4472 0.6325
vn 0.6325 0.4472 -0.6325
vn -0.6325 0.4472 -0.6325
vn -0.6325 0.4472 0.6325
vn 0.0000 -1.0000 -0.0000
# 5 vertex normals

vt 0.5000 1.0000 0.0000
vt 0.0000 0.0000 0.0000
vt 1.0000 0.0000 0.0000
vt 0.0000 1.0000 0.0000
vt 0.5000 0.5000 0.0000
vt 1.0000 1.0000 0.0000
# 6 texture coords

g Pyramid002
usemtl wire_027177027
s 4
f 27/11/12 28/12/12 29/13/12 
s 2
f 27/11/13 29/12/13 30/13/13 
s 16
f 27/11/14 30/12/14 31/13/14 
s 32
f 27/11/15 31/12/15 28/13/15 
s 8
f 28/14/16 32/15/16 29/16/16 
f 29/16/16 32/15/16 30/13/16 
f 30/13/16 32/15/16 31/12/16 
f 31/12/16 32/15/16 28/14/16 
s 4
f 33/11/12 34/12/12 35/13/12 
s 2
f 33/11/13 35/12/13 36/13/13 
s 16
f 33/11/14 36/12/14 37/13/14 
s 32
f 33/11/15 37/12/15 34/13/15 
s 8
f 34/14/16 38/15/16 35/16/16 
f 35/16/16 38/15/16 36/13/16 
f 36/13/16 38/15/16 37/12/16 
f 37/12/16 38/15/16 34/14/16 
s 4
f 39/11/12 40/12/12 41/13/12 
s 2
f 39/11/13 41/12/13 42/13/13 
s 16
f 39/11/14 42/12/14 43/13/14 
s 32
f 39/11/15 43/12/15 40/13/15 
s 8
f 40/14/16 44/15/16 41/16/16 
f 41/16/16 44/15/16 42/13/16 
f 42/13/16 44/15/16 43/12/16 
f 43/12/16 44/15/16 40/14/16 
# 0 polygons - 24 triangles

