# 3ds Max Wavefront OBJ Exporter v0.97b - (c)2007 guruware
# File Created: 01.02.2019 11:25:23

mtllib volcano.mtl

#
# object Box011
#

v  -0.1060 0.0000 0.1016
v  -0.1333 0.0000 -0.0263
v  -0.0221 0.0000 -0.0244
v  -0.0545 0.0000 0.1308
v  -0.0378 0.1009 0.0842
v  -0.0703 0.1009 0.0709
v  0.1048 0.0000 0.1016
v  0.1250 0.0000 -0.0263
v  0.0788 0.1009 -0.0170
v  0.0691 0.1009 0.0709
v  0.1048 0.0000 -0.1132
v  0.0018 0.0000 -0.1272
v  0.0009 0.1009 -0.0794
v  0.0691 0.1009 -0.0765
v  -0.1060 0.0000 -0.1132
v  -0.0835 0.1009 -0.0170
v  -0.0703 0.1009 -0.0765
v  0.0016 0.0000 -0.0240
v  0.0228 0.0000 0.1173
v  0.0111 0.1009 0.0682
v  -0.0182 0.0000 -0.1306
v  -0.0122 0.1009 -0.0849
v  0.0106 0.0961 0.0738
v  0.0189 -0.0048 0.1179
v  -0.0064 0.1864 0.0265
v  -0.0214 0.1864 0.0387
v  -0.0047 0.1819 0.0296
v  -0.0343 0.1080 0.0749
v  -0.0169 0.1035 0.0635
v  -0.0354 0.1864 0.0401
v  -0.0001 0.1864 0.0214
v  0.0338 0.1864 0.0401
v  0.0338 0.1864 -0.0079
v  0.0338 0.1864 -0.0402
v  -0.0001 0.1864 -0.0333
v  -0.0066 0.1864 -0.0402
v  -0.0354 0.1864 -0.0402
v  -0.0354 0.1864 -0.0079
v  -0.0632 0.1080 0.0639
v  0.0697 0.1080 -0.0152
v  0.0616 0.1080 0.0639
v  0.0006 0.1080 -0.0704
v  0.0616 0.1080 -0.0687
v  -0.0742 0.1080 -0.0152
v  -0.0632 0.1080 -0.0687
v  0.0091 0.1080 0.0596
v  -0.0112 0.1080 -0.0757
v  0.0018 0.1819 0.0296
v  0.0090 0.1035 0.0654
v  -0.0195 0.0961 0.0714
v  -0.0361 -0.0048 0.1131
v  -0.0250 0.1857 0.0300
v  -0.0264 0.1857 0.0301
v  0.0249 0.1857 0.0249
v  -0.0010 0.1857 0.0106
v  0.0249 0.1857 -0.0079
v  0.0249 0.1857 -0.0292
v  -0.0032 0.1857 -0.0235
v  -0.0264 0.1857 -0.0312
v  -0.0105 0.1857 -0.0312
v  -0.0264 0.1857 -0.0079
v  -0.0250 0.1456 0.0300
v  -0.0010 0.1456 0.0106
v  0.0249 0.1456 0.0249
v  0.0249 0.1456 -0.0079
v  0.0249 0.1456 -0.0292
v  -0.0032 0.1456 -0.0235
v  -0.0105 0.1456 -0.0312
v  -0.0264 0.1456 -0.0312
v  -0.0264 0.1456 -0.0079
v  -0.0264 0.1456 0.0301
v  -0.0097 0.1857 0.0176
v  -0.0087 0.1729 0.0168
# 73 vertices

vn 0.0000 -1.0000 -0.0000
vn -0.4102 0.4172 0.8110
vn 0.9145 0.3843 0.1267
vn 0.0901 0.3985 -0.9127
vn -0.8725 0.4249 -0.2411
vn 0.0853 0.3838 0.9195
vn 0.8958 0.4051 -0.1829
vn -0.9009 0.3998 0.1689
vn -0.1590 0.4013 -0.9020
vn 0.2867 0.4254 0.8584
vn 0.5015 0.6061 0.6174
vn 0.5490 0.2662 0.7923
vn -0.0047 0.9993 0.0374
vn -0.2008 0.3956 0.8962
vn 0.9229 0.3806 0.0591
vn -0.0511 0.3778 -0.9245
vn -0.9046 0.4100 -0.1162
vn -0.2456 0.3061 0.9198
vn 0.9161 0.3914 -0.0870
vn -0.9147 0.3962 0.0793
vn -0.0796 0.3910 -0.9169
vn 0.9942 0.0623 -0.0878
vn 0.5663 0.5239 0.6362
vn -0.2203 0.8013 0.5563
vn 0.6346 0.7699 0.0678
vn 0.0227 0.7697 -0.6380
vn -0.6038 0.7866 -0.1291
vn -0.0441 0.7253 0.6871
vn 0.6124 0.7846 -0.0967
vn -0.6342 0.7677 0.0918
vn -0.0859 0.7836 -0.6152
vn 0.1113 0.7686 0.6299
vn 0.6552 0.2095 0.7258
vn -0.0081 0.9966 -0.0824
vn 0.0400 0.9966 -0.0726
vn -0.0828 0.9966 0.0000
vn -0.0828 0.9966 -0.0000
vn 0.0166 0.9966 0.0812
vn 0.0000 0.9966 0.0828
vn 0.0828 0.9966 -0.0000
vn 0.0828 0.9966 0.0000
vn 0.0000 1.0000 0.0000
vn -0.0982 0.0000 -0.9952
vn -0.6305 0.0000 -0.7762
vn 0.4827 0.0000 -0.8758
vn -1.0000 0.0000 0.0000
vn -1.0000 0.0000 -0.0000
vn 0.2000 -0.0000 0.9798
vn 0.0000 -0.0000 1.0000
vn 1.0000 -0.0000 -0.0000
vn 1.0000 -0.0000 0.0000
vn -0.0522 0.9966 -0.0643
# 52 vertex normals

vt 1.0000 0.0000 0.0000
vt 1.0000 0.5982 0.0000
vt 0.5841 0.5982 0.0000
vt 0.5841 0.0000 0.0000
vt 0.0000 0.0000 0.0000
vt 0.4159 0.0000 0.0000
vt 0.4159 0.5189 0.0000
vt 0.0000 0.5189 0.0000
vt 0.5982 0.0000 0.0000
vt 0.5982 0.5189 0.0000
vt 0.4897 0.0000 0.0000
vt 0.4897 0.5189 0.0000
vt 0.4018 0.0000 0.0000
vt 0.4018 0.5189 0.0000
vt 0.4897 1.0000 0.0000
vt 0.0000 1.0000 0.0000
vt 0.0000 0.5982 0.0000
vt 0.4897 0.5982 0.0000
vt 0.5103 0.0000 0.0000
vt 1.0000 0.5189 0.0000
vt 0.5103 0.5189 0.0000
vt 1.0000 1.0000 0.0000
vt 0.5841 1.0000 0.0000
vt 0.5841 0.5189 0.0000
vt 0.4822 1.0000 0.0000
vt 0.4159 1.0000 0.0000
vt 0.4159 0.5732 0.0000
vt 0.4822 0.0000 0.0000
vt 0.5103 1.0000 0.0000
vt 0.0000 0.5732 0.0000
vt 0.5982 0.5732 0.0000
vt 0.5982 1.0000 0.0000
vt 0.4897 0.5732 0.0000
vt 0.4018 0.5732 0.0000
vt 0.4018 1.0000 0.0000
vt 1.0000 0.5732 0.0000
vt 0.5103 0.5732 0.0000
vt 0.5841 0.5732 0.0000
vt 0.4760 0.0000 0.0000
vt 0.4851 0.0000 0.0000
# 40 texture coords

g Box011
usemtl wire_135110008
s off
f 1/1/1 2/2/1 3/3/1 4/4/1 
f 1/5/2 4/6/2 5/7/2 6/8/2 
f 7/5/3 8/9/3 9/10/3 10/8/3 
f 11/5/4 12/11/4 13/12/4 14/8/4 
f 15/5/5 2/13/5 16/14/5 17/8/5 
f 12/15/1 11/16/1 8/17/1 18/18/1 
f 19/19/6 7/1/6 10/20/6 20/21/6 
f 2/2/1 15/22/1 21/23/1 3/3/1 
f 8/9/7 11/1/7 14/20/7 9/10/7 
f 2/13/8 1/1/8 6/20/8 16/14/8 
f 8/17/1 7/5/1 19/11/1 18/18/1 
f 21/4/9 15/1/9 17/20/9 22/24/9 
f 21/23/1 12/15/1 18/18/1 3/3/1 
f 19/19/10 20/21/10 23/21/10 24/19/10 
f 25/25/11 26/26/11 27/26/11 
f 26/26/12 28/27/12 29/27/12 27/26/12 
f 30/5/13 26/6/13 26/6/13 30/5/13 
f 26/6/13 25/28/13 25/28/13 26/6/13 
f 31/19/13 32/1/13 32/1/13 31/19/13 
f 32/1/13 33/2/13 33/2/13 32/1/13 
f 33/2/13 34/22/13 34/22/13 33/2/13 
f 34/22/13 35/29/13 35/29/13 34/22/13 
f 35/29/13 36/26/13 36/26/13 35/29/13 
f 36/26/13 37/16/13 37/16/13 36/26/13 
f 37/16/13 38/17/13 38/17/13 37/16/13 
f 38/17/13 30/5/13 30/5/13 38/17/13 
f 28/27/14 26/26/14 30/16/14 39/30/14 
f 40/31/15 33/32/15 32/16/15 41/30/15 
f 42/33/16 35/15/16 34/16/16 43/30/16 
f 44/34/17 38/35/17 37/16/17 45/30/17 
f 41/36/18 32/22/18 31/29/18 46/37/18 
f 43/36/19 34/22/19 33/32/19 40/31/19 
f 39/36/20 30/22/20 38/35/20 44/34/20 
f 45/36/21 37/22/21 36/23/21 47/38/21 
f 46/37/22 31/29/22 48/29/22 49/37/22 
f 28/27/23 5/7/23 50/7/23 29/27/23 
f 5/7/24 28/27/24 39/30/24 6/8/24 
f 9/10/25 40/31/25 41/30/25 10/8/25 
f 13/12/26 42/33/26 43/30/26 14/8/26 
f 16/14/27 44/34/27 45/30/27 17/8/27 
f 10/20/28 41/36/28 46/37/28 20/21/28 
f 14/20/29 43/36/29 40/31/29 9/10/29 
f 6/20/30 39/36/30 44/34/30 16/14/30 
f 17/20/31 45/36/31 47/38/31 22/24/31 
f 20/21/32 46/37/32 49/37/32 23/21/32 
f 5/7/33 4/6/33 51/6/33 50/7/33 
f 26/6/34 52/6/34 53/5/34 30/5/34 
f 32/1/35 54/1/35 55/19/35 31/19/35 
f 33/2/36 56/2/36 54/1/36 32/1/36 
f 34/22/37 57/22/37 56/2/37 33/2/37 
f 35/29/38 58/29/38 57/22/38 34/22/38 
f 37/16/39 59/16/39 60/26/39 36/26/39 
f 38/17/40 61/17/40 59/16/40 37/16/40 
f 30/5/41 53/5/41 61/17/41 38/17/41 
f 62/6/42 63/19/42 64/1/42 65/2/42 66/22/42 67/29/42 68/26/42 69/16/42 70/17/42 71/5/42 
f 53/5/43 52/6/43 62/6/43 71/5/43 
f 52/6/44 72/39/44 73/40/44 62/6/44 
f 55/19/45 54/1/45 64/1/45 63/19/45 
f 54/1/46 56/2/46 65/2/46 64/1/46 
f 56/2/47 57/22/47 66/22/47 65/2/47 
f 57/22/48 58/29/48 67/29/48 66/22/48 
f 60/26/49 59/16/49 69/16/49 68/26/49 
f 59/16/50 61/17/50 70/17/50 69/16/50 
f 61/17/51 53/5/51 71/5/51 70/17/51 
f 25/28/13 31/19/13 31/19/13 25/28/13 
f 72/39/52 52/6/52 26/6/52 25/28/52 
# 65 polygons - 1 triangles

#
# object Object008
#

v  -0.0250 0.1742 0.0300
v  -0.0010 0.1742 0.0106
v  0.0249 0.1742 0.0249
v  0.0249 0.1742 -0.0079
v  0.0249 0.1742 -0.0292
v  -0.0032 0.1742 -0.0235
v  -0.0105 0.1742 -0.0312
v  -0.0264 0.1742 -0.0312
v  -0.0264 0.1742 -0.0079
v  -0.0264 0.1742 0.0301
# 10 vertices

vn 0.0000 1.0000 0.0000
# 1 vertex normals

vt 0.4159 0.0000 0.0000
vt 0.5103 0.0000 0.0000
vt 1.0000 0.0000 0.0000
vt 1.0000 0.5982 0.0000
vt 1.0000 1.0000 0.0000
vt 0.5103 1.0000 0.0000
vt 0.4159 1.0000 0.0000
vt 0.0000 1.0000 0.0000
vt 0.0000 0.5982 0.0000
vt 0.0000 0.0000 0.0000
# 10 texture coords

g Object008
usemtl wire_225143087
s off
f 74/41/53 75/42/53 76/43/53 77/44/53 78/45/53 79/46/53 80/47/53 81/48/53 82/49/53 83/50/53 
# 1 polygons

#
# object lavze
#

v  -0.0361 -0.0048 0.1131
v  0.0189 -0.0048 0.1179
v  0.0106 0.0961 0.0738
v  -0.0195 0.0961 0.0714
v  0.0090 0.1035 0.0654
v  0.0018 0.1819 0.0296
v  -0.0047 0.1819 0.0296
v  -0.0169 0.1035 0.0635
v  -0.0001 0.1864 0.0214
v  -0.0010 0.1857 0.0106
v  -0.0097 0.1857 0.0176
v  -0.0064 0.1864 0.0265
v  -0.0010 0.1456 0.0106
v  -0.0250 0.1456 0.0300
v  -0.0087 0.1729 0.0168
# 15 vertices

vn -0.0766 0.3931 0.9163
vn -0.0544 0.4068 0.9119
vn -0.0505 0.7441 0.6662
vn -0.0522 0.9966 -0.0643
vn 0.2252 0.7946 0.5638
vn -0.6305 0.0000 -0.7762
# 6 vertex normals

vt 0.4159 0.0000 0.0000
vt 0.5103 0.0000 0.0000
vt 0.5103 0.5189 0.0000
vt 0.4159 0.5189 0.0000
vt 0.5103 0.5732 0.0000
vt 0.5103 1.0000 0.0000
vt 0.4159 1.0000 0.0000
vt 0.4159 0.5732 0.0000
vt 0.4760 0.0000 0.0000
vt 0.4822 0.0000 0.0000
vt 0.4822 1.0000 0.0000
vt 0.4851 0.0000 0.0000
# 12 texture coords

g lavze
usemtl wire_225143087
s off
f 84/51/54 85/52/54 86/53/54 87/54/54 
f 88/55/55 89/56/55 90/57/55 91/58/55 
f 86/53/56 88/55/56 91/58/56 87/54/56 
f 92/52/57 93/52/57 94/59/57 95/60/57 
f 90/57/58 89/56/58 92/56/58 95/61/58 
f 94/59/59 93/52/59 96/52/59 97/51/59 98/62/59 
# 6 polygons

#
# object Object009
#

v  0.0018 0.0000 -0.1272
v  -0.0182 0.0000 -0.1306
v  -0.0122 0.1009 -0.0849
v  0.0009 0.1009 -0.0794
v  -0.0112 0.1080 -0.0757
v  -0.0066 0.1864 -0.0402
v  -0.0001 0.1864 -0.0333
v  0.0006 0.1080 -0.0704
v  -0.0105 0.1857 -0.0312
v  -0.0032 0.1857 -0.0235
v  -0.0105 0.1456 -0.0312
v  -0.0032 0.1456 -0.0235
# 12 vertices

vn 0.2351 0.4038 -0.8841
vn 0.5210 0.3480 -0.7794
vn 0.2585 0.7570 -0.6001
vn -0.0602 0.9966 0.0569
vn -0.7270 -0.0000 0.6867
# 5 vertex normals

vt 0.4897 0.0000 0.0000
vt 0.5841 0.0000 0.0000
vt 0.5841 0.5189 0.0000
vt 0.4897 0.5189 0.0000
vt 0.5841 0.5732 0.0000
vt 0.5841 1.0000 0.0000
vt 0.4897 1.0000 0.0000
vt 0.4897 0.5732 0.0000
vt 0.4159 1.0000 0.0000
vt 0.5103 1.0000 0.0000
# 10 texture coords

g Object009
usemtl wire_225143087
s off
f 99/63/60 100/64/60 101/65/60 102/66/60 
f 103/67/61 104/68/61 105/69/61 106/70/61 
f 101/65/62 103/67/62 106/70/62 102/66/62 
f 104/71/63 107/71/63 108/72/63 105/72/63 
f 108/72/64 107/71/64 109/71/64 110/72/64 
# 5 polygons

