# 3ds Max Wavefront OBJ Exporter v0.97b - (c)2007 guruware
# File Created: 16.01.2019 10:59:54

mtllib book.mtl

#
# object couverture
#

v  -0.1084 -0.0131 -0.2824
v  -0.1084 -0.0131 -0.6835
v  -0.0569 -0.0155 -0.6786
v  -0.0569 -0.0155 -0.2873
v  -0.1084 0.0881 -0.2824
v  -0.0569 0.0925 -0.2873
v  -0.0569 0.0925 -0.6786
v  -0.1084 0.0881 -0.6835
v  -0.1272 0.0390 -0.2824
v  -0.1272 0.0390 -0.6835
v  -0.0823 -0.0015 -0.7035
v  -0.0450 -0.0011 -0.6928
v  -0.0540 -0.0151 -0.6928
v  -0.0932 -0.0169 -0.7042
v  0.2002 -0.0005 -0.6944
v  0.2002 -0.0005 -0.2715
v  0.2002 -0.0198 -0.2716
v  0.2002 -0.0198 -0.6943
v  0.0346 0.0005 -0.2797
v  0.0300 -0.0154 -0.2797
v  -0.0882 0.0030 -0.2646
v  -0.1069 0.0396 -0.2646
v  -0.1162 0.0392 -0.2650
v  -0.0975 -0.0113 -0.2650
v  -0.0882 0.0745 -0.2646
v  -0.0450 0.0778 -0.2730
v  -0.0540 0.0918 -0.2731
v  -0.0975 0.0881 -0.2650
v  0.2002 0.0772 -0.2715
v  0.2002 0.0772 -0.6944
v  0.2002 0.0964 -0.6943
v  0.2002 0.0964 -0.2716
v  0.0346 0.0761 -0.6862
v  0.0300 0.0921 -0.6862
v  -0.0823 0.0762 -0.7008
v  -0.1010 0.0396 -0.7019
v  -0.1134 0.0370 -0.7018
v  -0.0946 0.0886 -0.7018
v  -0.0965 -0.0048 -0.6835
v  -0.0463 -0.0011 -0.6786
v  0.1840 -0.0005 -0.6835
v  0.1840 -0.0005 -0.2824
v  0.0266 0.0005 -0.2919
v  -0.0965 -0.0048 -0.2824
v  -0.1152 0.0409 -0.2824
v  -0.0965 0.0842 -0.2824
v  -0.0463 0.0778 -0.2873
v  0.1840 0.0772 -0.2824
v  0.1840 0.0772 -0.6835
v  0.0266 0.0761 -0.6740
v  -0.0965 0.0842 -0.6835
v  -0.1152 0.0409 -0.6835
v  0.1840 -0.0198 -0.6835
v  0.0211 -0.0154 -0.6740
v  0.0300 -0.0154 -0.6862
v  -0.0540 0.0918 -0.6928
v  0.1840 0.0964 -0.6835
v  0.1840 0.0964 -0.2824
v  0.0211 0.0921 -0.2919
v  0.0300 0.0921 -0.2797
v  -0.0540 -0.0144 -0.2731
v  0.1840 -0.0198 -0.2824
v  0.0211 -0.0154 -0.2919
v  0.0211 0.0921 -0.6740
v  0.0346 0.0005 -0.6862
v  -0.0450 -0.0011 -0.2730
v  0.0346 0.0761 -0.2797
v  -0.0450 0.0778 -0.6928
v  0.0266 0.0005 -0.6740
v  -0.0463 -0.0011 -0.2873
v  0.0266 0.0761 -0.2919
v  -0.0463 0.0778 -0.6786
# 72 vertices

vn -0.0416 -0.9991 -0.0000
vn -0.0757 0.9971 -0.0000
vn -0.9262 -0.3770 -0.0000
vn 0.3849 -0.2584 -0.8860
vn 1.0000 0.0052 -0.0000
vn -0.0719 0.0060 0.9974
vn -0.0424 -0.0207 0.9989
vn 0.2513 0.2103 0.9448
vn 1.0000 -0.0052 -0.0000
vn -0.0719 -0.0060 -0.9974
vn 0.0510 -0.0037 -0.9987
vn -0.0523 0.9978 0.0412
vn 0.0000 1.0000 -0.0000
vn 0.0063 1.0000 -0.0045
vn 0.8441 0.4354 -0.3129
vn -0.0637 -0.9845 -0.1634
vn 0.0000 -1.0000 -0.0000
vn 0.0063 -1.0000 0.0044
vn 0.7713 -0.4205 0.4778
vn -0.0247 -0.9995 -0.0182
vn -0.8525 -0.3392 -0.3979
vn -0.0668 0.9974 -0.0270
vn -0.0246 0.9995 0.0181
vn -0.8552 0.3704 0.3626
vn -0.0377 -0.9971 0.0654
vn 0.0018 -1.0000 -0.0000
vn 0.0054 1.0000 -0.0000
vn 0.1197 -0.0642 -0.9907
vn 0.2509 -0.2105 0.9448
vn 0.1197 0.0642 0.9907
vn 0.2891 0.2077 -0.9345
vn -0.0184 0.9998 -0.0044
vn -0.0259 0.9902 -0.1373
vn -0.0183 -0.9998 0.0043
vn -0.0752 -0.9896 0.1230
vn -0.0197 -0.9985 0.0516
vn 0.0028 0.9999 -0.0156
vn -0.0684 0.9971 0.0333
vn -0.0018 -0.9997 0.0260
vn -0.9178 0.3970 -0.0000
vn -0.0431 0.0218 0.9988
vn -0.0066 0.0680 -0.9977
vn 0.8259 -0.4480 -0.3423
vn 0.8200 0.3883 0.4205
vn -0.8310 0.3501 -0.4322
vn -0.8563 -0.3540 0.3760
vn 0.1195 -0.0657 0.9907
vn 0.1197 0.0642 -0.9907
vn -0.0184 0.9998 0.0044
vn -0.0183 -0.9998 -0.0043
vn 0.0004 -1.0000 -0.0089
vn 0.0028 0.9999 0.0156
vn -0.0238 -0.9997 -0.0000
vn -0.0237 0.9997 -0.0000
vn -0.0719 0.0060 -0.9974
vn -0.0719 -0.0060 0.9974
vn 0.0063 1.0000 0.0045
vn 0.0063 -1.0000 -0.0044
vn -0.0246 0.9995 -0.0181
vn -0.0247 -0.9995 0.0182
# 60 vertex normals

vt 1.0000 0.0000 0.0000
vt 1.0000 1.0000 0.0000
vt 0.8238 1.0000 0.0000
vt 0.8238 0.0000 0.0000
vt 0.0000 0.0000 0.0000
vt 0.1762 0.0000 0.0000
vt 0.1762 1.0000 0.0000
vt 0.0000 1.0000 0.0000
vt 1.0000 0.5134 0.0000
vt 0.0000 0.5134 0.0000
vt 0.4334 0.0000 0.0000
vt 0.5666 1.0000 0.0000
vt 0.4334 1.0000 0.0000
vt 0.5666 0.0000 0.0000
# 14 texture coords

g couverture
usemtl wire_153228214
s off
f 1/1/1 2/2/1 3/3/1 4/4/1 
f 5/5/2 6/6/2 7/7/2 8/8/2 
f 2/5/3 1/1/3 9/9/3 10/10/3 
f 11/2/4 12/3/4 13/3/4 14/2/4 
f 15/8/5 16/5/5 17/5/5 18/8/5 
f 16/5/6 19/11/6 20/11/6 17/5/6 
f 21/1/7 22/9/7 23/9/7 24/1/7 
f 25/5/8 26/6/8 27/6/8 28/5/8 
f 29/1/9 30/2/9 31/2/9 32/1/9 
f 30/2/10 33/12/10 34/12/10 31/2/10 
f 35/8/11 36/10/11 37/10/11 38/8/11 
f 39/2/12 40/3/12 12/3/12 11/2/12 
f 41/8/13 42/5/13 16/5/13 15/8/13 
f 42/5/14 43/11/14 19/11/14 16/5/14 
f 44/1/15 45/9/15 22/9/15 21/1/15 
f 46/5/16 47/6/16 26/6/16 25/5/16 
f 48/1/17 49/2/17 30/2/17 29/1/17 
f 49/2/18 50/12/18 33/12/18 30/2/18 
f 51/8/19 52/10/19 36/10/19 35/8/19 
f 53/8/20 54/13/20 55/13/20 18/8/20 
f 2/5/21 10/10/21 37/10/21 14/5/21 
f 8/8/22 7/7/22 56/7/22 38/8/22 
f 57/2/13 58/1/13 32/1/13 31/2/13 
f 58/1/23 59/14/23 60/14/23 32/1/23 
f 5/2/24 9/9/24 23/9/24 28/2/24 
f 1/1/25 4/4/25 61/4/25 24/1/25 
f 62/5/17 53/8/17 18/8/17 17/5/17 
f 3/3/26 54/13/26 63/11/26 4/4/26 
f 6/6/27 59/14/27 64/12/27 7/7/27 
f 12/3/28 65/13/28 55/13/28 13/3/28 
f 66/4/29 21/1/29 24/1/29 61/4/29 
f 26/6/30 67/14/30 60/14/30 27/6/30 
f 68/7/31 35/8/31 38/8/31 56/7/31 
f 40/3/32 69/13/32 65/13/32 12/3/32 
f 70/4/33 44/1/33 21/1/33 66/4/33 
f 47/6/34 71/14/34 67/14/34 26/6/34 
f 72/7/35 51/8/35 35/8/35 68/7/35 
f 3/3/36 2/2/36 14/2/36 13/3/36 
f 7/7/37 64/12/37 34/12/37 56/7/37 
f 6/6/38 5/5/38 28/5/38 27/6/38 
f 4/4/39 63/11/39 20/11/39 61/4/39 
f 9/9/40 5/2/40 8/8/40 10/10/40 
f 22/9/41 25/2/41 28/2/41 23/9/41 
f 36/10/42 11/5/42 14/5/42 37/10/42 
f 45/9/43 46/2/43 25/2/43 22/9/43 
f 52/10/44 39/5/44 11/5/44 36/10/44 
f 10/10/45 8/8/45 38/8/45 37/10/45 
f 9/9/46 1/1/46 24/1/46 23/9/46 
f 19/11/47 66/4/47 61/4/47 20/11/47 
f 33/12/48 68/7/48 56/7/48 34/12/48 
f 43/11/49 70/4/49 66/4/49 19/11/49 
f 50/12/50 72/7/50 68/7/50 33/12/50 
f 54/13/51 3/3/51 13/3/51 55/13/51 
f 59/14/52 6/6/52 27/6/52 60/14/52 
f 54/13/53 53/8/53 62/5/53 63/11/53 
f 59/14/54 58/1/54 57/2/54 64/12/54 
f 65/13/55 15/8/55 18/8/55 55/13/55 
f 67/14/56 29/1/56 32/1/56 60/14/56 
f 69/13/57 41/8/57 15/8/57 65/13/57 
f 71/14/58 48/1/58 29/1/58 67/14/58 
f 64/12/59 57/2/59 31/2/59 34/12/59 
f 63/11/60 62/5/60 17/5/60 20/11/60 
# 62 polygons

#
# object constellation
#

v  0.0090 0.0945 -0.3705
v  0.0106 0.0945 -0.3682
v  0.1406 0.0972 -0.4605
v  0.1390 0.0972 -0.4628
v  0.1391 0.0973 -0.4546
v  0.1406 0.0974 -0.4570
v  0.0692 0.0953 -0.5010
v  0.0677 0.0951 -0.4986
v  0.0720 0.0945 -0.4962
v  0.0740 0.0945 -0.4981
v  0.0203 0.0943 -0.5512
v  0.0183 0.0942 -0.5492
v  0.0735 0.0945 -0.6386
v  0.0712 0.0945 -0.6403
v  0.0187 0.0943 -0.5485
v  0.0209 0.0942 -0.5468
v  0.0828 0.0946 -0.5620
v  0.0823 0.0947 -0.5644
v  0.0181 0.0941 -0.5493
v  0.0186 0.0941 -0.5469
v  0.0404 0.0934 -0.3775
v  0.0327 0.0934 -0.3935
v  0.0154 0.0934 -0.3975
v  0.0016 0.0934 -0.3864
v  0.0016 0.0934 -0.3687
v  0.0154 0.0934 -0.3576
v  0.0327 0.0934 -0.3616
v  0.0292 0.0934 -0.5493
v  0.0258 0.0934 -0.5566
v  0.0179 0.0934 -0.5584
v  0.0116 0.0934 -0.5533
v  0.0116 0.0934 -0.5453
v  0.0179 0.0934 -0.5403
v  0.0258 0.0934 -0.5420
v  0.1480 0.0961 -0.4603
v  0.1433 0.0961 -0.4701
v  0.1328 0.0956 -0.4725
v  0.1243 0.0956 -0.4657
v  0.1243 0.0956 -0.4549
v  0.1328 0.0956 -0.4481
v  0.1433 0.0956 -0.4506
v  0.0782 0.0943 -0.4977
v  0.0758 0.0943 -0.5026
v  0.0705 0.0943 -0.5038
v  0.0662 0.0943 -0.5004
v  0.0662 0.0943 -0.4949
v  0.0705 0.0943 -0.4915
v  0.0758 0.0943 -0.4927
v  0.0782 0.0946 -0.6382
v  0.0758 0.0946 -0.6431
v  0.0705 0.0946 -0.6443
v  0.0662 0.0946 -0.6409
v  0.0662 0.0946 -0.6354
v  0.0705 0.0946 -0.6320
v  0.0758 0.0946 -0.6332
v  0.0854 0.0942 -0.5629
v  0.0830 0.0942 -0.5678
v  0.0777 0.0942 -0.5691
v  0.0734 0.0942 -0.5656
v  0.0734 0.0942 -0.5602
v  0.0777 0.0942 -0.5568
v  0.0830 0.0942 -0.5580
# 62 vertices

vn -0.0202 0.9998 0.0003
vn -0.0380 0.9991 0.0186
vn -0.0131 0.9999 0.0041
vn -0.0005 1.0000 0.0050
vn -0.0004 1.0000 0.0050
vn -0.0102 0.9999 0.0086
vn -0.0064 1.0000 -0.0000
vn -0.0064 1.0000 0.0000
vn -0.0416 0.9990 0.0170
vn -0.0264 0.9996 0.0075
vn -0.0307 0.9991 -0.0306
vn -0.0167 0.9999 0.0007
vn -0.0188 0.9998 0.0102
# 13 vertex normals

vt 0.0000 0.0000 0.0000
vt 1.0000 0.0000 0.0000
vt 1.0000 1.0000 0.0000
vt 0.0000 1.0000 0.0000
vt 0.5000 1.0000 0.2500
vt 0.1091 0.8117 0.2500
vt 0.0125 0.3887 0.2500
vt 0.2831 0.0495 0.2500
vt 0.7169 0.0495 0.2500
vt 0.9875 0.3887 0.2500
vt 0.8909 0.8117 0.2500
# 11 texture coords

g constellation
usemtl wire_085028177
s 4
f 73/15/61 74/16/61 75/17/61 76/18/61 
f 77/15/62 78/16/62 79/17/62 80/18/62 
f 81/15/63 82/16/63 83/17/63 84/18/63 
f 85/15/64 86/16/64 87/17/65 88/18/65 
f 89/15/66 90/16/66 91/17/66 92/18/66 
s 1
f 93/19/67 94/20/67 95/21/68 96/22/68 97/23/68 98/24/68 99/25/68 
f 100/19/68 101/20/68 102/21/67 103/22/67 104/23/67 105/24/67 106/25/68 
f 107/19/69 108/20/70 109/21/71 110/22/72 111/23/68 112/24/68 113/25/73 
f 114/19/68 115/20/68 116/21/67 117/22/68 118/23/68 119/24/68 120/25/68 
f 121/19/67 122/20/67 123/21/67 124/22/67 125/23/67 126/24/68 127/25/68 
f 128/19/67 129/20/67 130/21/67 131/22/67 132/23/67 133/24/68 134/25/68 
# 11 polygons

#
# object pages
#

v  -0.0965 -0.0048 -0.2824
v  -0.0463 -0.0011 -0.2873
v  -0.0650 0.0394 -0.2873
v  -0.1152 0.0409 -0.2824
v  0.1840 -0.0005 -0.2824
v  0.1840 -0.0005 -0.6835
v  0.1652 0.0394 -0.6835
v  0.1652 0.0394 -0.2824
v  0.0266 0.0005 -0.6740
v  0.0085 0.0394 -0.6740
v  0.0266 0.0005 -0.2919
v  0.0085 0.0394 -0.2919
v  -0.0463 -0.0011 -0.6786
v  -0.0965 -0.0048 -0.6835
v  -0.1152 0.0409 -0.6835
v  -0.0650 0.0394 -0.6786
v  -0.0463 0.0778 -0.2873
v  -0.0965 0.0842 -0.2824
v  0.1840 0.0772 -0.6835
v  0.1840 0.0772 -0.2824
v  -0.0463 0.0778 -0.6786
v  0.0266 0.0761 -0.6740
v  0.0266 0.0761 -0.2919
v  -0.0965 0.0842 -0.6835
# 24 vertices

vn 0.1419 0.0699 0.9874
vn 0.8831 0.4692 -0.0000
vn -0.0894 -0.0474 -0.9949
vn 0.0921 0.0484 0.9946
vn 0.1419 0.0699 -0.9874
vn 0.1384 -0.0719 0.9878
vn 0.8723 -0.4890 -0.0000
vn 0.0921 -0.0511 -0.9944
vn -0.0894 0.0500 0.9947
vn 0.1384 -0.0719 -0.9878
vn 0.0921 0.0485 -0.9946
vn -0.0894 -0.0474 0.9949
vn -0.0894 0.0500 -0.9947
vn 0.0921 -0.0511 0.9944
# 14 vertex normals

vt 0.0000 0.0000 0.0000
vt 0.1762 0.0000 0.0000
vt 0.1762 0.5134 0.0000
vt 0.0000 0.5134 0.0000
vt 1.0000 0.0000 0.0000
vt 1.0000 0.5134 0.0000
vt 0.4334 0.0000 0.0000
vt 0.4334 0.5134 0.0000
vt 0.5666 0.0000 0.0000
vt 0.5666 0.5134 0.0000
vt 0.8238 0.0000 0.0000
vt 0.8238 0.5134 0.0000
vt 0.1762 1.0000 0.0000
vt 0.0000 1.0000 0.0000
vt 1.0000 1.0000 0.0000
vt 0.8238 1.0000 0.0000
vt 0.4334 1.0000 0.0000
vt 0.5666 1.0000 0.0000
# 18 texture coords

g pages
usemtl wire_153228214
s off
f 135/26/74 136/27/74 137/28/74 138/29/74 
f 139/26/75 140/30/75 141/31/75 142/29/75 
f 140/26/76 143/32/76 144/33/76 141/29/76 
f 136/27/77 145/34/77 146/35/77 137/28/77 
f 147/36/78 148/30/78 149/31/78 150/37/78 
f 137/28/79 151/38/79 152/39/79 138/29/79 
f 141/31/80 153/40/80 154/39/80 142/29/80 
f 150/37/81 155/41/81 156/42/81 144/33/81 
f 142/31/82 154/40/82 157/43/82 146/35/82 
f 149/31/83 158/40/83 155/41/83 150/37/83 
f 143/32/84 147/36/84 150/37/84 144/33/84 
f 145/34/85 139/30/85 142/31/85 146/35/85 
f 156/42/86 153/39/86 141/29/86 144/33/86 
f 157/43/87 151/38/87 137/28/87 146/35/87 
# 14 polygons

