# 3ds Max Wavefront OBJ Exporter v0.97b - (c)2007 guruware
# File Created: 17.01.2019 11:17:04

mtllib book3.mtl

#
# object pages002
#

v  0.3234 -0.0056 -0.8421
v  0.3627 -0.0019 -0.8463
v  0.3481 0.0394 -0.8463
v  0.3088 0.0409 -0.8421
v  0.5427 -0.0013 -0.8421
v  0.5427 -0.0013 -1.1777
v  0.5280 0.0394 -1.1777
v  0.5280 0.0394 -0.8421
v  0.4196 -0.0002 -1.1697
v  0.4055 0.0394 -1.1697
v  0.4196 -0.0002 -0.8501
v  0.4055 0.0394 -0.8501
v  0.3627 -0.0019 -1.1736
v  0.3234 -0.0056 -1.1777
v  0.3088 0.0409 -1.1777
v  0.3481 0.0394 -1.1736
v  0.3627 0.0785 -0.8463
v  0.3234 0.0850 -0.8421
v  0.5427 0.0780 -1.1777
v  0.5427 0.0780 -0.8421
v  0.3627 0.0785 -1.1736
v  0.4196 0.0769 -1.1697
v  0.4196 0.0769 -0.8501
v  0.3234 0.0850 -1.1777
# 24 vertices

vn 0.1419 0.0699 0.9874
vn 0.8831 0.4692 -0.0000
vn -0.0894 -0.0474 -0.9949
vn 0.0921 0.0484 0.9946
vn 0.1419 0.0699 -0.9874
vn 0.1384 -0.0719 0.9878
vn 0.8723 -0.4890 -0.0000
vn 0.0921 -0.0511 -0.9944
vn -0.0894 0.0500 0.9947
vn 0.1384 -0.0719 -0.9878
vn 0.0921 0.0485 -0.9946
vn -0.0894 -0.0474 0.9949
vn -0.0894 0.0500 -0.9947
vn 0.0921 -0.0511 0.9944
# 14 vertex normals

vt 0.0000 0.0000 0.0000
vt 0.1762 0.0000 0.0000
vt 0.1762 0.5134 0.0000
vt 0.0000 0.5134 0.0000
vt 1.0000 0.0000 0.0000
vt 1.0000 0.5134 0.0000
vt 0.4334 0.0000 0.0000
vt 0.4334 0.5134 0.0000
vt 0.5666 0.0000 0.0000
vt 0.5666 0.5134 0.0000
vt 0.8238 0.0000 0.0000
vt 0.8238 0.5134 0.0000
vt 0.1762 1.0000 0.0000
vt 0.0000 1.0000 0.0000
vt 1.0000 1.0000 0.0000
vt 0.8238 1.0000 0.0000
vt 0.4334 1.0000 0.0000
vt 0.5666 1.0000 0.0000
# 18 texture coords

g pages002
usemtl wire_153228214
s off
f 1/1/1 2/2/1 3/3/1 4/4/1 
f 5/1/2 6/5/2 7/6/2 8/4/2 
f 6/1/3 9/7/3 10/8/3 7/4/3 
f 2/2/4 11/9/4 12/10/4 3/3/4 
f 13/11/5 14/5/5 15/6/5 16/12/5 
f 3/3/6 17/13/6 18/14/6 4/4/6 
f 7/6/7 19/15/7 20/14/7 8/4/7 
f 16/12/8 21/16/8 22/17/8 10/8/8 
f 8/6/9 20/15/9 23/18/9 12/10/9 
f 15/6/10 24/15/10 21/16/10 16/12/10 
f 9/7/11 13/11/11 16/12/11 10/8/11 
f 11/9/12 5/5/12 8/6/12 12/10/12 
f 22/17/13 19/14/13 7/4/13 10/8/13 
f 23/18/14 17/13/14 3/3/14 12/10/14 
# 14 polygons

#
# object contour
#

#
# object ontour
#

v  0.3234 -0.0056 -1.1777
v  0.3627 -0.0019 -1.1736
v  0.3637 -0.0019 -1.1855
v  0.3345 -0.0023 -1.1944
v  0.5427 -0.0013 -1.1777
v  0.5427 -0.0013 -0.8421
v  0.5553 -0.0013 -0.8330
v  0.5553 -0.0013 -1.1868
v  0.4196 -0.0002 -0.8501
v  0.4259 -0.0002 -0.8399
v  0.3234 -0.0056 -0.8421
v  0.3088 0.0409 -0.8421
v  0.3153 0.0396 -0.8273
v  0.3299 0.0023 -0.8273
v  0.3234 0.0850 -0.8421
v  0.3627 0.0785 -0.8463
v  0.3637 0.0785 -0.8343
v  0.3299 0.0752 -0.8273
v  0.5427 0.0780 -0.8421
v  0.5427 0.0780 -1.1777
v  0.5553 0.0780 -1.1868
v  0.5553 0.0780 -0.8330
v  0.4196 0.0769 -1.1697
v  0.4259 0.0769 -1.1800
v  0.3234 0.0850 -1.1777
v  0.3088 0.0409 -1.1777
v  0.3199 0.0396 -1.1931
v  0.3345 0.0769 -1.1922
v  0.4196 -0.0002 -1.1697
v  0.4259 -0.0002 -1.1800
v  0.3627 -0.0019 -0.8463
v  0.3637 -0.0019 -0.8343
v  0.4196 0.0769 -0.8501
v  0.4259 0.0769 -0.8399
v  0.3627 0.0785 -1.1736
v  0.3637 0.0785 -1.1855
v  0.5427 -0.0209 -1.1777
v  0.4154 -0.0164 -1.1697
v  0.4153 -0.0249 -1.1698
v  0.5426 -0.0294 -1.1778
v  0.3544 -0.0166 -1.1736
v  0.3543 -0.0250 -1.1737
v  0.3141 -0.0141 -1.1777
v  0.3104 -0.0203 -1.1787
v  0.2994 0.0390 -1.1777
v  0.2943 0.0392 -1.1796
v  0.3141 0.0891 -1.1777
v  0.3106 0.0953 -1.1789
v  0.3544 0.0936 -1.1736
v  0.3542 0.1020 -1.1737
v  0.4154 0.0931 -1.1697
v  0.4154 0.1016 -1.1697
v  0.5427 0.0976 -1.1777
v  0.5426 0.1060 -1.1778
v  0.5427 0.0976 -0.8421
v  0.5426 0.1060 -0.8421
v  0.4154 0.0931 -0.8501
v  0.4154 0.1016 -0.8501
v  0.3544 0.0936 -0.8463
v  0.3542 0.1020 -0.8461
v  0.3141 0.0891 -0.8421
v  0.3106 0.0954 -0.8411
v  0.2994 0.0390 -0.8421
v  0.2942 0.0391 -0.8405
v  0.3141 -0.0141 -0.8421
v  0.3107 -0.0205 -0.8409
v  0.3544 -0.0166 -0.8463
v  0.3543 -0.0250 -0.8461
v  0.4154 -0.0164 -0.8501
v  0.4153 -0.0249 -0.8501
v  0.5427 -0.0209 -0.8421
v  0.5426 -0.0294 -0.8421
v  0.4223 -0.0164 -1.1800
v  0.5554 -0.0209 -1.1868
v  0.5553 -0.0294 -1.1868
v  0.4223 -0.0249 -1.1800
v  0.5554 -0.0209 -0.8331
v  0.5553 -0.0294 -0.8330
v  0.4223 -0.0164 -0.8399
v  0.4222 -0.0249 -0.8398
v  0.3566 -0.0154 -0.8343
v  0.3565 -0.0239 -0.8341
v  0.3227 -0.0123 -0.8276
v  0.3198 -0.0193 -0.8265
v  0.3080 0.0392 -0.8276
v  0.3028 0.0393 -0.8260
v  0.3227 0.0891 -0.8276
v  0.3198 0.0962 -0.8267
v  0.3566 0.0928 -0.8343
v  0.3564 0.1013 -0.8342
v  0.4223 0.0931 -0.8399
v  0.4223 0.1016 -0.8399
v  0.5554 0.0976 -0.8331
v  0.5553 0.1060 -0.8330
v  0.5554 0.0976 -1.1868
v  0.5553 0.1060 -1.1868
v  0.4223 0.0931 -1.1800
v  0.4223 0.1016 -1.1800
v  0.3566 0.0928 -1.1855
v  0.3564 0.1013 -1.1857
v  0.3249 0.0896 -1.1930
v  0.3221 0.0967 -1.1940
v  0.3102 0.0369 -1.1930
v  0.3051 0.0368 -1.1949
v  0.3260 -0.0180 -1.1951
v  0.3234 -0.0254 -1.1956
v  0.3566 -0.0162 -1.1855
v  0.3567 -0.0246 -1.1856
# 108 vertices

vn -0.0523 0.9978 0.0412
vn 0.0000 1.0000 -0.0000
vn 0.0063 1.0000 -0.0045
vn 0.8441 0.4354 -0.3129
vn -0.0637 -0.9845 -0.1634
vn 0.0000 -1.0000 -0.0000
vn 0.0063 -1.0000 0.0044
vn 0.7713 -0.4205 0.4778
vn -0.0184 0.9998 -0.0044
vn -0.0259 0.9902 -0.1373
vn -0.0183 -0.9998 0.0043
vn -0.0752 -0.9896 0.1230
vn 0.8259 -0.4480 -0.3423
vn 0.8200 0.3883 0.4205
vn -0.0184 0.9998 0.0044
vn -0.0183 -0.9998 -0.0043
vn 0.0063 1.0000 0.0045
vn 0.0063 -1.0000 -0.0044
vn 0.0863 -0.0094 0.9962
vn -0.0876 -0.0103 0.9961
vn -0.1529 -0.0869 0.9844
vn -0.3578 -0.1290 0.9249
vn -0.3812 0.1526 0.9118
vn -0.1622 0.1283 0.9784
vn -0.0882 0.0169 0.9960
vn 0.0863 0.0088 0.9962
vn -0.9999 -0.0133 -0.0000
vn 0.0863 0.0088 -0.9962
vn -0.0882 0.0169 -0.9960
vn -0.1578 0.1063 -0.9817
vn -0.3309 0.1329 -0.9343
vn -0.3533 -0.1377 -0.9253
vn -0.1571 -0.1381 -0.9779
vn -0.0889 -0.0253 -0.9957
vn 0.0863 -0.0094 -0.9962
vn -0.9999 0.0133 -0.0000
vn -0.0707 0.0107 -0.9974
vn 0.9999 -0.0116 -0.0000
vn -0.0706 0.0114 0.9974
vn 0.1185 0.0271 0.9926
vn 0.2759 0.0843 0.9575
vn 0.3470 0.1383 0.9276
vn 0.3222 -0.1279 0.9380
vn 0.2723 -0.0500 0.9609
vn 0.1176 -0.0183 0.9929
vn -0.0707 -0.0107 0.9974
vn 0.9999 0.0116 -0.0000
vn -0.0707 -0.0107 -0.9974
vn 0.1176 -0.0183 -0.9929
vn 0.3173 -0.0490 -0.9471
vn 0.3731 -0.1396 -0.9172
vn 0.2945 0.1717 -0.9401
vn 0.3901 -0.0192 -0.9206
vn 0.1170 0.0110 -0.9931
vn 0.3849 -0.2584 -0.8860
vn 1.0000 0.0052 -0.0000
vn -0.0719 0.0060 0.9974
vn -0.0424 -0.0207 0.9989
vn 0.2513 0.2103 0.9448
vn 1.0000 -0.0052 -0.0000
vn -0.0719 -0.0060 -0.9974
vn 0.0510 -0.0037 -0.9987
vn -0.0247 -0.9995 -0.0181
vn -0.8425 -0.3521 -0.4076
vn -0.0929 0.9954 -0.0215
vn -0.0000 1.0000 -0.0000
vn -0.0246 0.9995 0.0181
vn -0.8480 0.3792 0.3702
vn -0.0628 -0.9961 0.0622
vn -0.0000 -1.0000 -0.0000
vn 0.1197 -0.0642 -0.9907
vn 0.2509 -0.2105 0.9448
vn 0.1197 0.0642 0.9907
vn 0.2891 0.2077 -0.9345
vn -0.0505 -0.9969 0.0601
vn 0.0028 0.9999 -0.0156
vn -0.0921 0.9953 0.0283
vn -0.0018 -0.9997 0.0261
vn -0.0431 0.0218 0.9988
vn -0.0066 0.0680 -0.9977
vn -0.8218 0.3598 -0.4418
vn -0.8495 -0.3634 0.3825
vn 0.1195 -0.0657 0.9907
vn 0.1197 0.0642 -0.9907
vn 0.0004 -1.0000 -0.0089
vn 0.0028 0.9999 0.0156
vn -0.0719 0.0060 -0.9974
vn -0.0719 -0.0060 0.9974
vn -0.0246 0.9995 -0.0181
vn -0.0247 -0.9995 0.0181
# 90 vertex normals

vt 1.0000 1.0000 0.0000
vt 0.8238 1.0000 0.0000
vt 0.0000 1.0000 0.0000
vt 0.0000 0.0000 0.0000
vt 0.4334 0.0000 0.0000
vt 1.0000 0.0000 0.0000
vt 1.0000 0.5134 0.0000
vt 0.1762 0.0000 0.0000
vt 0.5666 1.0000 0.0000
vt 0.0000 0.5134 0.0000
vt 0.4334 1.0000 0.0000
vt 0.8238 0.0000 0.0000
vt 0.5666 0.0000 0.0000
vt 0.1762 1.0000 0.0000
# 14 texture coords

g ontour
usemtl wire_225198087
s off
f 25/19/15 26/20/15 27/20/15 28/19/15 
f 29/21/16 30/22/16 31/22/16 32/21/16 
f 30/22/17 33/23/17 34/23/17 31/22/17 
f 35/24/18 36/25/18 37/25/18 38/24/18 
f 39/22/19 40/26/19 41/26/19 42/22/19 
f 43/24/20 44/19/20 45/19/20 46/24/20 
f 44/19/21 47/27/21 48/27/21 45/19/21 
f 49/21/22 50/28/22 51/28/22 52/21/22 
f 26/20/23 53/29/23 54/29/23 27/20/23 
f 55/30/24 35/24/24 38/24/24 56/30/24 
f 40/26/25 57/31/25 58/31/25 41/26/25 
f 59/32/26 49/21/26 52/21/26 60/32/26 
f 36/25/27 39/19/27 42/19/27 37/25/27 
f 50/28/28 25/22/28 28/22/28 51/28/28 
f 33/23/29 55/30/29 56/30/29 34/23/29 
f 47/27/30 59/32/30 60/32/30 48/27/30 
f 53/29/31 29/21/31 32/21/31 54/29/31 
f 57/31/32 43/24/32 46/24/32 58/31/32 
f 61/21/33 62/29/33 63/29/33 64/21/33 
f 62/29/34 65/20/34 66/20/34 63/29/34 
f 65/20/35 67/19/35 68/19/35 66/20/35 
f 67/22/36 69/28/36 70/28/36 68/22/36 
f 69/28/37 71/21/37 72/21/37 70/28/37 
f 71/21/38 73/32/38 74/32/38 72/21/38 
f 73/32/39 75/27/39 76/27/39 74/32/39 
f 75/27/40 77/19/40 78/19/40 76/27/40 
f 77/19/41 79/24/41 80/24/41 78/19/41 
f 79/24/42 81/31/42 82/31/42 80/24/42 
f 81/31/43 83/26/43 84/26/43 82/31/43 
f 83/26/44 85/22/44 86/22/44 84/26/44 
f 85/19/45 87/25/45 88/25/45 86/19/45 
f 87/25/46 89/24/46 90/24/46 88/25/46 
f 89/24/47 91/30/47 92/30/47 90/24/47 
f 91/30/48 93/23/48 94/23/48 92/30/48 
f 93/23/49 95/22/49 96/22/49 94/23/49 
f 95/22/50 61/21/50 64/21/50 96/22/50 
f 97/29/51 98/21/51 99/21/51 100/29/51 
f 98/21/52 101/22/52 102/22/52 99/21/52 
f 101/22/53 103/23/53 104/23/53 102/22/53 
f 103/23/54 105/30/54 106/30/54 104/23/54 
f 105/30/55 107/24/55 108/24/55 106/30/55 
f 107/24/56 109/25/56 110/25/56 108/24/56 
f 109/25/57 111/19/57 112/19/57 110/25/57 
f 111/22/58 113/26/58 114/26/58 112/22/58 
f 113/26/59 115/31/59 116/31/59 114/26/59 
f 115/31/60 117/24/60 118/24/60 116/31/60 
f 117/24/61 119/19/61 120/19/61 118/24/61 
f 119/19/62 121/27/62 122/27/62 120/19/62 
f 121/27/63 123/32/63 124/32/63 122/27/63 
f 123/32/64 125/21/64 126/21/64 124/32/64 
f 125/21/65 127/28/65 128/28/65 126/21/65 
f 127/28/66 129/22/66 130/22/66 128/28/66 
f 129/19/67 131/20/67 132/20/67 130/19/67 
f 131/20/68 97/29/68 100/29/68 132/20/68 
f 28/19/69 27/20/69 131/20/69 129/19/69 
f 32/21/70 31/22/70 101/22/70 98/21/70 
f 31/22/71 34/23/71 103/23/71 101/22/71 
f 38/24/72 37/25/72 109/25/72 107/24/72 
f 42/22/73 41/26/73 113/26/73 111/22/73 
f 46/24/74 45/19/74 119/19/74 117/24/74 
f 45/19/75 48/27/75 121/27/75 119/19/75 
f 52/21/76 51/28/76 127/28/76 125/21/76 
f 64/21/77 63/29/77 100/29/77 99/21/77 
f 68/22/78 70/28/78 128/28/78 130/22/78 
f 72/21/79 74/32/79 124/32/79 126/21/79 
f 78/19/80 80/24/80 118/24/80 120/19/80 
f 80/24/81 82/31/81 116/31/81 118/24/81 
f 86/19/82 88/25/82 110/25/82 112/19/82 
f 90/24/83 92/30/83 106/30/83 108/24/83 
f 96/22/84 64/21/84 99/21/84 102/22/84 
f 27/20/85 54/29/85 97/29/85 131/20/85 
f 56/30/86 38/24/86 107/24/86 105/30/86 
f 41/26/87 58/31/87 115/31/87 113/26/87 
f 60/32/88 52/21/88 125/21/88 123/32/88 
f 66/20/89 68/19/89 130/19/89 132/20/89 
f 74/32/90 76/27/90 122/27/90 124/32/90 
f 84/26/91 86/22/91 112/22/91 114/26/91 
f 92/30/92 94/23/92 104/23/92 106/30/92 
f 37/25/93 42/19/93 111/19/93 109/25/93 
f 51/28/94 28/22/94 129/22/94 127/28/94 
f 70/28/95 72/21/95 126/21/95 128/28/95 
f 88/25/96 90/24/96 108/24/96 110/25/96 
f 34/23/97 56/30/97 105/30/97 103/23/97 
f 48/27/98 60/32/98 123/32/98 121/27/98 
f 63/29/99 66/20/99 132/20/99 100/29/99 
f 82/31/100 84/26/100 114/26/100 116/31/100 
f 54/29/101 32/21/101 98/21/101 97/29/101 
f 58/31/102 46/24/102 117/24/102 115/31/102 
f 76/27/103 78/19/103 120/19/103 122/27/103 
f 94/23/104 96/22/104 102/22/104 104/23/104 
# 90 polygons

#
# object couverture002
#

v  0.3141 -0.0141 -0.8421
v  0.3141 -0.0141 -1.1777
v  0.3544 -0.0166 -1.1736
v  0.3544 -0.0166 -0.8463
v  0.3141 0.0891 -0.8421
v  0.3544 0.0936 -0.8463
v  0.3544 0.0936 -1.1736
v  0.3141 0.0891 -1.1777
v  0.2994 0.0390 -0.8421
v  0.2994 0.0390 -1.1777
v  0.4154 -0.0164 -1.1697
v  0.4154 -0.0164 -0.8501
v  0.4154 0.0931 -0.8501
v  0.4154 0.0931 -1.1697
v  0.5427 -0.0209 -1.1777
v  0.5427 -0.0209 -0.8421
v  0.5427 0.0976 -0.8421
v  0.5427 0.0976 -1.1777
# 18 vertices

vn -0.0416 -0.9991 -0.0000
vn -0.0757 0.9971 -0.0000
vn -0.9262 -0.3770 -0.0000
vn 0.0018 -1.0000 -0.0000
vn 0.0054 1.0000 -0.0000
vn -0.9178 0.3970 -0.0000
vn -0.0238 -0.9997 -0.0000
vn -0.0237 0.9997 -0.0000
# 8 vertex normals

vt 1.0000 0.0000 0.0000
vt 1.0000 1.0000 0.0000
vt 0.8238 1.0000 0.0000
vt 0.8238 0.0000 0.0000
vt 0.0000 0.0000 0.0000
vt 0.1762 0.0000 0.0000
vt 0.1762 1.0000 0.0000
vt 0.0000 1.0000 0.0000
vt 1.0000 0.5134 0.0000
vt 0.0000 0.5134 0.0000
vt 0.4334 1.0000 0.0000
vt 0.4334 0.0000 0.0000
vt 0.5666 0.0000 0.0000
vt 0.5666 1.0000 0.0000
# 14 texture coords

g couverture002
usemtl wire_028089177
s off
f 133/33/105 134/34/105 135/35/105 136/36/105 
f 137/37/106 138/38/106 139/39/106 140/40/106 
f 134/37/107 133/33/107 141/41/107 142/42/107 
f 135/35/108 143/43/108 144/44/108 136/36/108 
f 138/38/109 145/45/109 146/46/109 139/39/109 
f 141/41/110 137/34/110 140/40/110 142/42/110 
f 143/43/111 147/40/111 148/37/111 144/44/111 
f 145/45/112 149/33/112 150/34/112 146/46/112 
# 8 polygons

