# 3ds Max Wavefront OBJ Exporter v0.97b - (c)2007 guruware
# File Created: 14.01.2019 14:16:22

mtllib pillier_yeux.mtl

#
# object yeux
#

v  44.0595 3.5308 0.7322
v  44.0510 3.5573 0.7271
v  44.0268 3.5645 0.7185
v  44.0198 3.5368 0.7206
v  43.9792 3.5726 0.6910
v  43.9839 3.5642 0.6953
v  44.0173 3.5371 0.7192
v  44.1295 3.5308 0.7322
v  44.1692 3.5368 0.7206
v  44.1622 3.5645 0.7185
v  44.1380 3.5573 0.7271
v  44.1717 3.5371 0.7192
v  44.2051 3.5642 0.6953
v  44.2098 3.5726 0.6910
# 14 vertices

vn -0.0980 0.0160 0.9951
vn -0.3269 0.0268 0.9447
vn 0.3711 0.0136 0.9285
vn 0.5071 0.0205 0.8616
# 4 vertex normals

vt 0.2170 0.9700 2.9855
vt 0.1631 0.9350 2.9855
vt 0.1744 0.8238 2.9855
vt 0.2401 0.8238 2.9855
vt 0.2000 0.6762 2.9855
vt 0.2136 0.6963 2.9855
vt 0.2415 0.8162 2.9855
# 7 texture coords

g yeux
usemtl wire_000000000
s off
f 1/1/1 2/2/1 3/3/1 4/4/1 
f 4/4/2 3/3/2 5/5/2 6/6/2 7/7/2 
f 8/1/3 9/4/3 10/3/3 11/2/3 
f 9/4/4 12/7/4 13/6/4 14/5/4 10/3/4 
# 4 polygons

